<?xml version="1.0" encoding="utf-8"?>
<!-- Generator: Adobe Illustrator 16.0.0, SVG Export Plug-In . SVG Version: 6.00 Build 0)  -->
<!DOCTYPE svg PUBLIC "-//W3C//DTD SVG 1.1//EN" "http://www.w3.org/Graphics/SVG/1.1/DTD/svg11.dtd">
<svg version="1.1" id="Layer_1" xmlns="http://www.w3.org/2000/svg" xmlns:xlink="http://www.w3.org/1999/xlink" x="0px" y="0px"
	 width="86.333px" height="69px" viewBox="0 0 86.333 69" enable-background="new 0 0 86.333 69" xml:space="preserve">
<path fill="#CCCCCC" d="M40.885,34.967L20.139,55.705c-1.318,1.316-3.459,1.316-4.778,0c-1.314-1.319-1.314-3.457,0-4.774
	l18.351-18.354L15.366,14.23c-1.319-1.321-1.319-3.457,0-4.775c1.317-1.323,3.457-1.323,4.773,0l20.746,20.737
	c0.657,0.66,0.986,1.518,0.986,2.385C41.871,33.441,41.542,34.306,40.885,34.967L40.885,34.967z M40.885,34.967"/>
<path fill="#CCCCCC" d="M72.97,34.967L52.229,55.705c-1.318,1.316-3.461,1.316-4.779,0c-1.315-1.319-1.315-3.457,0-4.774
	l18.352-18.354L47.451,14.23c-1.317-1.321-1.317-3.457,0-4.775c1.318-1.323,3.459-1.323,4.777,0L72.97,30.191
	c0.659,0.66,0.988,1.518,0.988,2.385C73.958,33.441,73.629,34.306,72.97,34.967L72.97,34.967z M72.97,34.967"/>
</svg>
