<?xml version="1.0" encoding="utf-8"?>
<!-- Generator: Adobe Illustrator 16.0.0, SVG Export Plug-In . SVG Version: 6.00 Build 0)  -->
<!DOCTYPE svg PUBLIC "-//W3C//DTD SVG 1.1//EN" "http://www.w3.org/Graphics/SVG/1.1/DTD/svg11.dtd">
<svg version="1.1" id="Layer_1" xmlns="http://www.w3.org/2000/svg" xmlns:xlink="http://www.w3.org/1999/xlink" x="0px" y="0px"
	 width="36px" height="39px" viewBox="0 0 36 39" enable-background="new 0 0 36 39" xml:space="preserve">
<g>
	<path fill="#FFFFFF" d="M27.053,13.208c-1.481-2.394-3.954-4.122-6.936-4.528c-5.395-0.731-9.902,3.213-11.179,8.615
		c-1.609,6.83,0.212,9.222,3.593,9.318c0.625-0.549,1.393-0.982,2.24-1.239L27.053,13.208z M17.097,12.757
		c0.183-1.29,1.406-2.194,2.726-2.012c1.319,0.178,2.242,1.372,2.06,2.662c-0.185,1.294-1.406,2.197-2.725,2.017
		C17.836,15.247,16.917,14.054,17.097,12.757L17.097,12.757z M12.113,15.322c0.132-0.959,1.039-1.627,2.016-1.494
		c0.98,0.132,1.662,1.013,1.527,1.973c-0.135,0.958-1.04,1.627-2.019,1.494C12.659,17.162,11.976,16.281,12.113,15.322
		L12.113,15.322z M12.618,23.177c-0.979-0.134-1.662-1.018-1.524-1.976c0.132-0.955,1.038-1.626,2.019-1.493
		c0.976,0.131,1.659,1.018,1.525,1.976C14.5,22.645,13.593,23.312,12.618,23.177L12.618,23.177z M12.618,23.177"/>
	<path fill="#FFFFFF" d="M22.834,24.403l0.244-0.311l9.049-11.798c-0.019-0.191-0.122-0.463-0.462-0.771
		c-0.67-0.606-1.11-0.311-1.11-0.311L20.034,21.383l-0.269,0.259L22.834,24.403z M22.834,24.403"/>
	<path fill="#FFFFFF" d="M19.199,28.438l0.258-0.29L22.29,25l-3.087-2.746l-2.81,3.131l-0.264,0.292L19.199,28.438z M17.51,25.217
		l1.406-1.595c0.134-0.147,0.355-0.163,0.503-0.033l0.182,0.158c0.07,0.063,0.116,0.148,0.124,0.245
		c0.003,0.095-0.027,0.189-0.091,0.259l-1.409,1.595c-0.131,0.143-0.35,0.162-0.5,0.03l-0.182-0.161
		c-0.07-0.062-0.114-0.146-0.123-0.241C17.419,25.381,17.452,25.288,17.51,25.217L17.51,25.217z M17.51,25.217"/>
	<path fill="#FFFFFF" d="M18.374,29.271L18.374,29.271c0,0,0.157-0.252,0.185-0.304l-2.876-2.598
		c-0.068,0.011-0.125,0.027-0.194,0.04c-0.003,0-0.009,0.005-0.017,0.005c-2.321,0.547-4.605,3.042-2.306,5.837
		c0.104,0.129,0.276,0.186,0.435,0.14c0.163-0.04,0.285-0.173,0.316-0.333c0.066-0.366,0.199-0.768,0.511-1.061
		C15.13,30.326,17.11,31.407,18.374,29.271L18.374,29.271z M15.564,29.975c-0.579,0.021-1.179,0.044-1.633,0.477
		c-0.088,0.082-0.167,0.172-0.236,0.264c-0.082,0.106-0.215,0.156-0.344,0.136c-0.13-0.023-0.236-0.115-0.276-0.241
		c-0.132-0.4-0.163-0.831-0.039-1.27c0.075-0.259,0.192-0.496,0.345-0.715c0.583,0.638,1.094,0.999,2.042,0.915
		c0.589-0.051,1.132-0.029,1.637,0.106C16.595,29.932,16.089,29.955,15.564,29.975L15.564,29.975z M15.564,29.975"/>
</g>
</svg>
