<?xml version="1.0" encoding="utf-8"?>
<!-- Generator: Adobe Illustrator 16.0.0, SVG Export Plug-In . SVG Version: 6.00 Build 0)  -->
<!DOCTYPE svg PUBLIC "-//W3C//DTD SVG 1.1//EN" "http://www.w3.org/Graphics/SVG/1.1/DTD/svg11.dtd">
<svg version="1.1" id="Layer_1" xmlns="http://www.w3.org/2000/svg" xmlns:xlink="http://www.w3.org/1999/xlink" x="0px" y="0px"
	 width="36px" height="39px" viewBox="0 0 36 39" enable-background="new 0 0 36 39" xml:space="preserve">
<g>
	<g opacity="0.5">
		<path fill="#4E4E4E" d="M17.061,14.768l-5.248,3.026c-0.233,0.134-0.312,0.429-0.178,0.661c0.134,0.232,0.429,0.313,0.661,0.179
			l5.249-3.026c0.231-0.134,0.312-0.43,0.179-0.663C17.59,14.712,17.292,14.633,17.061,14.768L17.061,14.768z M17.061,14.768"/>
		<path fill="#4D4D4D" d="M9.472,14.947l0.604,1.05c0.101,0.173,0.324,0.233,0.496,0.133c0.177-0.101,0.234-0.323,0.136-0.497
			l-0.605-1.05c-0.102-0.174-0.324-0.233-0.498-0.133C9.432,14.55,9.371,14.773,9.472,14.947L9.472,14.947z M9.472,14.947"/>
		<path fill="#4D4D4D" d="M10.28,13.921l0.847,1.47c0.101,0.173,0.321,0.234,0.496,0.133c0.173-0.099,0.234-0.323,0.135-0.496
			l-0.848-1.47c-0.102-0.173-0.326-0.234-0.499-0.134C10.237,13.525,10.18,13.749,10.28,13.921L10.28,13.921z M10.28,13.921"/>
		<path fill="#4D4D4D" d="M11.086,12.896l1.091,1.89c0.101,0.174,0.323,0.234,0.496,0.134c0.173-0.1,0.232-0.323,0.133-0.496
			l-1.092-1.891c-0.099-0.173-0.321-0.233-0.493-0.133C11.047,12.5,10.987,12.723,11.086,12.896L11.086,12.896z M11.086,12.896"/>
		<path fill="#4E4E4E" d="M14.883,7.352l-8.397,4.842c-0.231,0.134-0.312,0.431-0.179,0.662l3.026,5.249
			c0.134,0.231,0.431,0.311,0.662,0.177l8.014-4.621c-0.019-0.003-0.036-0.003-0.055-0.009l-0.918-0.246
			c-0.225,0.381-0.547,0.702-0.936,0.927c-0.529,0.305-1.138,0.412-1.732,0.31l-4.438,2.557l-2.542-4.409l7.558-4.357l0.683,1.183
			c0.604,0.201,1.106,0.608,1.427,1.163c0.224,0.389,0.34,0.826,0.344,1.27l0.889,0.238l-2.745-4.76
			C15.412,7.296,15.115,7.217,14.883,7.352L14.883,7.352z M14.883,7.352"/>
		<path fill="#8F8F8F" d="M17.197,12.496c-0.065-0.016-0.133,0-0.185,0.036l-0.14-0.037c0.104-0.505,0.021-1.023-0.238-1.473
			c-0.282-0.49-0.737-0.84-1.283-0.987c-0.546-0.147-1.118-0.072-1.607,0.211c-0.488,0.283-0.84,0.736-0.985,1.284
			c-0.147,0.546-0.072,1.116,0.21,1.606c0.282,0.489,0.738,0.84,1.284,0.987c0.548,0.146,1.116,0.071,1.605-0.211
			c0.451-0.26,0.78-0.667,0.945-1.155l0.139,0.037c0.026,0.058,0.077,0.104,0.143,0.122l0.994,0.268
			c0.06,0.015,0.116,0.005,0.165-0.022c0.047-0.028,0.088-0.074,0.103-0.131c0.03-0.115-0.039-0.235-0.154-0.266L17.197,12.496z
			 M16.426,12.515c-0.115,0.434-0.395,0.796-0.783,1.021c-0.39,0.224-0.844,0.284-1.275,0.167c-0.436-0.117-0.797-0.395-1.022-0.783
			c-0.225-0.39-0.283-0.844-0.166-1.278c0.115-0.433,0.396-0.796,0.782-1.021c0.389-0.225,0.844-0.283,1.278-0.167
			c0.433,0.115,0.795,0.396,1.019,0.785C16.482,11.629,16.543,12.081,16.426,12.515L16.426,12.515z M16.426,12.515"/>
	</g>
	<path fill="#116386" d="M18.371,20.423v9.758l8.105-1.475v-4.754c0-0.199,0.067-0.354,0.266-0.332l0.704,0.148
		c0.169,0.02,0.044,0.162,0.044,0.331v5.523c0,0.157,0.091,0.293-0.063,0.326l-8.404,1.828c-0.411,0.089-0.785,0.09-1.196,0.003
		L9.438,30.01c-0.15-0.032-0.248-0.163-0.253-0.317l-0.137-5.609c-0.005-0.176,0.13-0.325,0.306-0.34l7.146-0.628
		c0.125-0.011,0.232-0.09,0.28-0.206l1.014-2.613C17.933,19.959,18.371,20.058,18.371,20.423L18.371,20.423z"/>
	<g opacity="0.5">
		<g>
			<path fill="#4E4E4E" d="M28.109,14.681l0.379-0.766l-5.355-2.65l-2.083,4.209c-0.104,0.21-0.018,0.466,0.193,0.571l5.166,2.556
				c0.316,0.157,0.7,0.027,0.856-0.29l1.608-3.252L28.109,14.681z M26.022,17.935l-4.591-2.271l1.894-3.826l4.592,2.271
				L26.022,17.935z M22.95,13.557"/>
		</g>
		
			<rect x="22.366" y="13.919" transform="matrix(-0.8963 -0.4434 0.4434 -0.8963 37.7935 38.8093)" fill="#8F8F8F" width="2.134" height="2.135"/>
		
			<rect x="23.014" y="13.716" transform="matrix(-0.8962 -0.4435 0.4435 -0.8962 41.5094 37.5678)" fill="#4D4D4D" width="4.269" height="0.426"/>
		
			<rect x="25.064" y="15.049" transform="matrix(-0.8961 -0.4438 0.4438 -0.8961 42.3699 40.4417)" fill="#4D4D4D" width="1.707" height="0.428"/>
		
			<rect x="24.685" y="15.815" transform="matrix(-0.8961 -0.4438 0.4438 -0.8961 41.3118 41.7249)" fill="#4D4D4D" width="1.707" height="0.427"/>
		
			<rect x="24.329" y="16.485" transform="matrix(-0.8963 -0.4435 0.4435 -0.8963 39.9405 42.7389)" fill="#4D4D4D" width="1.28" height="0.427"/>
	</g>
	<path fill="#EF6A54" d="M8.974,17.229L6.73,22.022c-0.109,0.234,0.078,0.498,0.335,0.472l8.422-0.851
		c0.118-0.013,0.223-0.087,0.271-0.197l2.711-6.104l-9.254,1.7C9.107,17.062,9.019,17.131,8.974,17.229L8.974,17.229z
		 M18.469,15.342l2.866,6.295c0.049,0.11,0.156,0.185,0.276,0.194l8.405,0.676c0.253,0.02,0.436-0.24,0.329-0.471l-2.191-4.805
		c-0.046-0.1-0.137-0.17-0.244-0.189L18.469,15.342z M18.469,15.342"/>
	<g opacity="0.4">
		<path fill="#4E4E4E" d="M20.42,12.726c0.482-0.028,0.943-0.261,1.249-0.678c0.548-0.755,0.319-1.756-0.392-2.388
			c-0.899-0.798-1.408-0.718-1.698-0.216c0.033,0.14,0.035,0.29,0.006,0.439L20.42,12.726z M21.299,11.262
			c0.178,0.131,0.217,0.39,0.081,0.574c-0.135,0.186-0.391,0.227-0.568,0.094c-0.18-0.133-0.219-0.391-0.081-0.575
			C20.863,11.17,21.119,11.128,21.299,11.262L21.299,11.262z M21.318,10.301c0.132,0.098,0.16,0.289,0.059,0.426
			c-0.098,0.137-0.287,0.167-0.42,0.069c-0.134-0.099-0.161-0.289-0.062-0.426C20.994,10.233,21.184,10.203,21.318,10.301
			L21.318,10.301z M20.092,9.739c0.102-0.139,0.288-0.168,0.422-0.071c0.134,0.097,0.161,0.288,0.061,0.426
			c-0.102,0.137-0.289,0.168-0.423,0.07C20.018,10.064,19.991,9.874,20.092,9.739L20.092,9.739z M20.092,9.739"/>
		<path fill="#4D4D4D" d="M19.074,11.179l0.028,0.062l1.042,2.325c0.032,0.011,0.08,0.019,0.155-0.008
			c0.147-0.051,0.138-0.143,0.138-0.143l-0.68-2.414l-0.014-0.061L19.074,11.179z M19.074,11.179"/>
		<path fill="#4E4E4E" d="M18.761,10.303l0.023,0.062l0.245,0.683l0.667-0.243l-0.246-0.678l-0.021-0.062L18.761,10.303z
			 M19.387,10.311l0.124,0.341c0.013,0.033-0.004,0.068-0.034,0.079l-0.039,0.015c-0.017,0.006-0.033,0.005-0.049-0.001
			c-0.012-0.008-0.024-0.019-0.032-0.035l-0.125-0.342c-0.011-0.032,0.007-0.066,0.037-0.078l0.04-0.014
			c0.013-0.006,0.031-0.006,0.046,0C19.369,10.283,19.379,10.295,19.387,10.311L19.387,10.311z M19.387,10.311"/>
		<path fill="#8F8F8F" d="M18.704,10.111L18.704,10.111c0,0,0.025,0.044,0.03,0.051l0.625-0.221
			c0.005-0.011,0.008-0.021,0.011-0.032c0.001-0.001,0-0.002,0.001-0.004c0.105-0.394-0.085-0.942-0.693-0.823
			c-0.027,0.005-0.05,0.027-0.057,0.055s0.004,0.057,0.024,0.075c0.05,0.039,0.101,0.091,0.117,0.163
			C18.809,9.535,18.484,9.747,18.704,10.111L18.704,10.111z M18.825,9.63c0.044-0.089,0.089-0.181,0.062-0.286
			c-0.004-0.02-0.011-0.04-0.021-0.058c-0.008-0.021-0.007-0.044,0.008-0.063c0.015-0.017,0.037-0.026,0.059-0.021
			c0.07,0.014,0.141,0.043,0.193,0.097c0.035,0.033,0.06,0.07,0.081,0.111c-0.145,0.037-0.24,0.083-0.304,0.233
			c-0.04,0.093-0.09,0.174-0.149,0.238C18.748,9.788,18.786,9.709,18.825,9.63L18.825,9.63z M18.825,9.63"/>
	</g>
</g>
</svg>
