<?xml version="1.0" encoding="utf-8"?>
<!-- Generator: Adobe Illustrator 16.0.0, SVG Export Plug-In . SVG Version: 6.00 Build 0)  -->
<!DOCTYPE svg PUBLIC "-//W3C//DTD SVG 1.1//EN" "http://www.w3.org/Graphics/SVG/1.1/DTD/svg11.dtd">
<svg version="1.1" id="Layer_1" xmlns="http://www.w3.org/2000/svg" xmlns:xlink="http://www.w3.org/1999/xlink" x="0px" y="0px"
	 width="577.25px" height="16.628px" viewBox="0 0 577.25 16.628" enable-background="new 0 0 577.25 16.628" xml:space="preserve">
<g opacity="0.6">
	<path fill="#333333" d="M285.368,11.621c-0.091,0-0.182-0.025-0.263-0.075l-5.174-3.199H3.5c-0.276,0-0.5-0.224-0.5-0.5
		s0.224-0.5,0.5-0.5h276.573c0.093,0,0.184,0.026,0.263,0.075l5.027,3.108l4.855-3.104c0.081-0.051,0.174-0.079,0.27-0.079h280.413
		c0.276,0,0.5,0.224,0.5,0.5s-0.224,0.5-0.5,0.5H290.634l-4.997,3.195C285.555,11.594,285.461,11.621,285.368,11.621z"/>
</g>
<g opacity="0.3">
	<path fill="#0071BC" d="M285.54,13.537c-0.092,0-0.183-0.025-0.261-0.073c-0.137,0.047-0.293,0.035-0.426-0.047l-0.425-0.263
		c-0.078-0.048-0.138-0.114-0.178-0.188c-0.085-0.002-0.17-0.027-0.248-0.075l-0.425-0.263c-0.078-0.048-0.138-0.114-0.178-0.188
		c-0.085-0.002-0.17-0.027-0.248-0.075l-0.425-0.263c-0.078-0.048-0.138-0.114-0.178-0.188c-0.085-0.002-0.17-0.027-0.248-0.075
		l-0.425-0.263c-0.078-0.048-0.138-0.114-0.178-0.188c-0.085-0.002-0.17-0.027-0.248-0.075l-0.425-0.263
		c-0.078-0.048-0.137-0.113-0.178-0.188c-0.085-0.002-0.17-0.027-0.248-0.075l-0.425-0.263c-0.064-0.04-0.116-0.092-0.155-0.151
		c-0.005,0-0.011,0-0.017,0h-0.5c-0.091,0-0.176-0.024-0.25-0.067c-0.074,0.042-0.159,0.067-0.25,0.067h-0.5
		c-0.091,0-0.176-0.024-0.25-0.067c-0.074,0.042-0.159,0.067-0.25,0.067h-0.5c-0.091,0-0.176-0.024-0.25-0.067
		c-0.074,0.042-0.159,0.067-0.25,0.067h-0.5c-0.091,0-0.176-0.024-0.25-0.067c-0.074,0.042-0.159,0.067-0.25,0.067h-0.5
		c-0.091,0-0.176-0.024-0.25-0.067c-0.074,0.042-0.159,0.067-0.25,0.067h-0.5c-0.091,0-0.176-0.024-0.25-0.067
		c-0.074,0.042-0.159,0.067-0.25,0.067h-0.5c-0.091,0-0.176-0.024-0.25-0.067c-0.074,0.042-0.159,0.067-0.25,0.067h-0.5
		c-0.091,0-0.176-0.024-0.25-0.067c-0.074,0.042-0.159,0.067-0.25,0.067h-0.5c-0.091,0-0.176-0.024-0.25-0.067
		c-0.074,0.042-0.159,0.067-0.25,0.067h-0.5c-0.091,0-0.176-0.024-0.25-0.067c-0.074,0.042-0.159,0.067-0.25,0.067h-0.5
		c-0.091,0-0.176-0.024-0.25-0.067c-0.074,0.042-0.159,0.067-0.25,0.067h-0.5c-0.091,0-0.176-0.024-0.25-0.067
		c-0.074,0.042-0.159,0.067-0.25,0.067h-0.5c-0.091,0-0.176-0.024-0.25-0.067c-0.074,0.042-0.159,0.067-0.25,0.067h-0.5
		c-0.091,0-0.176-0.024-0.25-0.067c-0.074,0.042-0.159,0.067-0.25,0.067h-0.5c-0.091,0-0.176-0.024-0.25-0.067
		c-0.074,0.042-0.159,0.067-0.25,0.067h-0.5c-0.091,0-0.176-0.024-0.25-0.067c-0.074,0.042-0.159,0.067-0.25,0.067h-0.5
		c-0.091,0-0.176-0.024-0.25-0.067c-0.074,0.042-0.159,0.067-0.25,0.067h-0.5c-0.091,0-0.176-0.024-0.25-0.067
		c-0.074,0.042-0.159,0.067-0.25,0.067h-0.5c-0.091,0-0.176-0.024-0.25-0.067c-0.074,0.042-0.159,0.067-0.25,0.067h-0.5
		c-0.091,0-0.176-0.024-0.25-0.067c-0.074,0.042-0.159,0.067-0.25,0.067h-0.5c-0.091,0-0.176-0.024-0.25-0.067
		c-0.074,0.042-0.159,0.067-0.25,0.067h-0.5c-0.091,0-0.176-0.024-0.25-0.067c-0.074,0.042-0.159,0.067-0.25,0.067h-0.5
		c-0.091,0-0.176-0.024-0.25-0.067c-0.074,0.042-0.159,0.067-0.25,0.067h-0.5c-0.091,0-0.176-0.024-0.25-0.067
		c-0.074,0.042-0.159,0.067-0.25,0.067h-0.5c-0.091,0-0.176-0.024-0.25-0.067c-0.074,0.042-0.159,0.067-0.25,0.067h-0.5
		c-0.091,0-0.176-0.024-0.25-0.067c-0.074,0.042-0.159,0.067-0.25,0.067h-0.5c-0.091,0-0.176-0.024-0.25-0.067
		c-0.074,0.042-0.159,0.067-0.25,0.067h-0.5c-0.091,0-0.176-0.024-0.25-0.067c-0.074,0.042-0.159,0.067-0.25,0.067h-0.5
		c-0.091,0-0.176-0.024-0.25-0.067c-0.074,0.042-0.159,0.067-0.25,0.067h-0.5c-0.091,0-0.176-0.024-0.25-0.067
		c-0.074,0.042-0.159,0.067-0.25,0.067h-0.5c-0.091,0-0.176-0.024-0.25-0.067c-0.074,0.042-0.159,0.067-0.25,0.067h-0.5
		c-0.091,0-0.176-0.024-0.25-0.067c-0.074,0.042-0.159,0.067-0.25,0.067h-0.5c-0.091,0-0.176-0.024-0.25-0.067
		c-0.074,0.042-0.159,0.067-0.25,0.067h-0.5c-0.091,0-0.176-0.024-0.25-0.067c-0.074,0.042-0.159,0.067-0.25,0.067h-0.5
		c-0.091,0-0.176-0.024-0.25-0.067c-0.074,0.042-0.159,0.067-0.25,0.067h-0.5c-0.091,0-0.176-0.024-0.25-0.067
		c-0.074,0.042-0.159,0.067-0.25,0.067h-0.5c-0.091,0-0.176-0.024-0.25-0.067c-0.074,0.042-0.159,0.067-0.25,0.067h-0.5
		c-0.091,0-0.176-0.024-0.25-0.067c-0.074,0.042-0.159,0.067-0.25,0.067h-0.5c-0.091,0-0.177-0.024-0.25-0.067
		c-0.074,0.042-0.159,0.067-0.25,0.067h-0.5c-0.091,0-0.176-0.024-0.25-0.067c-0.074,0.042-0.159,0.067-0.25,0.067h-0.5
		c-0.091,0-0.176-0.024-0.25-0.067c-0.074,0.042-0.159,0.067-0.25,0.067h-0.5c-0.091,0-0.176-0.024-0.25-0.067
		c-0.074,0.042-0.159,0.067-0.25,0.067h-0.5c-0.091,0-0.176-0.024-0.25-0.067c-0.074,0.042-0.159,0.067-0.25,0.067h-0.5
		c-0.091,0-0.176-0.024-0.25-0.067c-0.074,0.042-0.159,0.067-0.25,0.067h-0.5c-0.091,0-0.176-0.024-0.25-0.067
		c-0.074,0.042-0.159,0.067-0.25,0.067h-0.5c-0.091,0-0.176-0.024-0.25-0.067c-0.074,0.042-0.159,0.067-0.25,0.067h-0.5
		c-0.091,0-0.176-0.024-0.25-0.067c-0.074,0.042-0.159,0.067-0.25,0.067h-0.5c-0.091,0-0.176-0.024-0.25-0.067
		c-0.074,0.042-0.159,0.067-0.25,0.067h-0.5c-0.091,0-0.176-0.024-0.25-0.067c-0.074,0.042-0.159,0.067-0.25,0.067h-0.5
		c-0.091,0-0.176-0.024-0.25-0.067c-0.074,0.042-0.159,0.067-0.25,0.067h-0.5c-0.091,0-0.176-0.024-0.25-0.067
		c-0.074,0.042-0.159,0.067-0.25,0.067h-0.5c-0.091,0-0.176-0.024-0.25-0.067c-0.074,0.042-0.159,0.067-0.25,0.067h-0.5
		c-0.091,0-0.176-0.024-0.25-0.067c-0.074,0.042-0.159,0.067-0.25,0.067h-0.5c-0.091,0-0.176-0.024-0.25-0.067
		c-0.074,0.042-0.159,0.067-0.25,0.067h-0.5c-0.091,0-0.176-0.024-0.25-0.067c-0.074,0.042-0.159,0.067-0.25,0.067h-0.5
		c-0.091,0-0.176-0.024-0.25-0.067c-0.074,0.042-0.159,0.067-0.25,0.067h-0.5c-0.091,0-0.176-0.024-0.25-0.067
		c-0.074,0.042-0.159,0.067-0.25,0.067h-0.5c-0.091,0-0.176-0.024-0.25-0.067c-0.074,0.042-0.159,0.067-0.25,0.067h-0.5
		c-0.091,0-0.176-0.024-0.25-0.067c-0.074,0.042-0.159,0.067-0.25,0.067h-0.5c-0.091,0-0.176-0.024-0.25-0.067
		c-0.074,0.042-0.159,0.067-0.25,0.067h-0.5c-0.091,0-0.176-0.024-0.25-0.067c-0.074,0.042-0.159,0.067-0.25,0.067h-0.5
		c-0.091,0-0.176-0.024-0.25-0.067c-0.074,0.042-0.159,0.067-0.25,0.067h-0.5c-0.091,0-0.176-0.024-0.25-0.067
		c-0.074,0.042-0.159,0.067-0.25,0.067h-0.5c-0.091,0-0.176-0.024-0.25-0.067c-0.074,0.042-0.159,0.067-0.25,0.067h-0.5
		c-0.091,0-0.176-0.024-0.25-0.067c-0.074,0.042-0.159,0.067-0.25,0.067h-0.5c-0.091,0-0.176-0.024-0.25-0.067
		c-0.074,0.042-0.159,0.067-0.25,0.067h-0.5c-0.091,0-0.176-0.024-0.25-0.067c-0.074,0.042-0.159,0.067-0.25,0.067h-0.5
		c-0.091,0-0.176-0.024-0.25-0.067c-0.074,0.042-0.159,0.067-0.25,0.067h-0.5c-0.091,0-0.176-0.024-0.25-0.067
		c-0.074,0.042-0.159,0.067-0.25,0.067h-0.5c-0.091,0-0.176-0.024-0.25-0.067c-0.074,0.042-0.159,0.067-0.25,0.067h-0.5
		c-0.091,0-0.176-0.024-0.25-0.067c-0.074,0.042-0.159,0.067-0.25,0.067h-0.5c-0.091,0-0.176-0.024-0.25-0.067
		c-0.074,0.042-0.159,0.067-0.25,0.067h-0.5c-0.091,0-0.176-0.024-0.25-0.067c-0.074,0.042-0.159,0.067-0.25,0.067h-0.5
		c-0.091,0-0.176-0.024-0.25-0.067c-0.074,0.042-0.159,0.067-0.25,0.067h-0.5c-0.091,0-0.176-0.024-0.25-0.067
		c-0.074,0.042-0.159,0.067-0.25,0.067h-0.5c-0.091,0-0.176-0.024-0.25-0.067c-0.074,0.042-0.159,0.067-0.25,0.067h-0.5
		c-0.091,0-0.176-0.024-0.25-0.067c-0.074,0.042-0.159,0.067-0.25,0.067h-0.5c-0.091,0-0.176-0.024-0.25-0.067
		c-0.074,0.042-0.159,0.067-0.25,0.067h-0.5c-0.091,0-0.176-0.024-0.25-0.067c-0.074,0.042-0.159,0.067-0.25,0.067h-0.5
		c-0.091,0-0.176-0.024-0.25-0.067c-0.074,0.042-0.159,0.067-0.25,0.067h-0.5c-0.091,0-0.176-0.024-0.25-0.067
		c-0.074,0.042-0.159,0.067-0.25,0.067h-0.5c-0.091,0-0.176-0.024-0.25-0.067c-0.074,0.042-0.159,0.067-0.25,0.067h-0.5
		c-0.091,0-0.176-0.024-0.25-0.067c-0.074,0.042-0.159,0.067-0.25,0.067h-0.5c-0.091,0-0.176-0.024-0.25-0.067
		c-0.074,0.042-0.159,0.067-0.25,0.067h-0.5c-0.091,0-0.176-0.024-0.25-0.067c-0.074,0.042-0.159,0.067-0.25,0.067h-0.5
		c-0.091,0-0.176-0.024-0.25-0.067c-0.074,0.042-0.159,0.067-0.25,0.067h-0.5c-0.091,0-0.176-0.024-0.25-0.067
		c-0.074,0.042-0.159,0.067-0.25,0.067h-0.5c-0.091,0-0.176-0.024-0.25-0.067c-0.074,0.042-0.159,0.067-0.25,0.067h-0.5
		c-0.091,0-0.176-0.024-0.25-0.067c-0.074,0.042-0.159,0.067-0.25,0.067h-0.5c-0.091,0-0.176-0.024-0.25-0.067
		c-0.074,0.042-0.159,0.067-0.25,0.067h-0.5c-0.091,0-0.176-0.024-0.25-0.067c-0.074,0.042-0.159,0.067-0.25,0.067h-0.5
		c-0.091,0-0.176-0.024-0.25-0.067c-0.074,0.042-0.159,0.067-0.25,0.067h-0.5c-0.091,0-0.176-0.024-0.25-0.067
		c-0.074,0.042-0.159,0.067-0.25,0.067h-0.5c-0.091,0-0.176-0.024-0.25-0.067c-0.074,0.042-0.159,0.067-0.25,0.067h-0.5
		c-0.091,0-0.176-0.024-0.25-0.067c-0.074,0.042-0.159,0.067-0.25,0.067h-0.5c-0.091,0-0.176-0.024-0.25-0.067
		c-0.074,0.042-0.159,0.067-0.25,0.067h-0.5c-0.091,0-0.176-0.024-0.25-0.067c-0.074,0.042-0.159,0.067-0.25,0.067h-0.5
		c-0.091,0-0.176-0.024-0.25-0.067c-0.074,0.042-0.159,0.067-0.25,0.067h-0.5c-0.091,0-0.176-0.024-0.25-0.067
		c-0.074,0.042-0.159,0.067-0.25,0.067h-0.5c-0.091,0-0.176-0.024-0.25-0.067c-0.074,0.042-0.159,0.067-0.25,0.067h-0.5
		c-0.091,0-0.176-0.024-0.25-0.067c-0.074,0.042-0.159,0.067-0.25,0.067h-0.5c-0.091,0-0.176-0.024-0.25-0.067
		c-0.074,0.042-0.159,0.067-0.25,0.067h-0.5c-0.091,0-0.176-0.024-0.25-0.067c-0.074,0.042-0.159,0.067-0.25,0.067h-0.5
		c-0.091,0-0.176-0.024-0.25-0.067c-0.074,0.042-0.159,0.067-0.25,0.067h-0.5c-0.091,0-0.176-0.024-0.25-0.067
		c-0.074,0.042-0.159,0.067-0.25,0.067h-0.5c-0.091,0-0.176-0.024-0.25-0.067c-0.074,0.042-0.159,0.067-0.25,0.067h-0.5
		c-0.091,0-0.176-0.024-0.25-0.067c-0.074,0.042-0.159,0.067-0.25,0.067h-0.5c-0.091,0-0.176-0.024-0.25-0.067
		c-0.074,0.042-0.159,0.067-0.25,0.067h-0.5c-0.091,0-0.176-0.024-0.25-0.067c-0.074,0.042-0.159,0.067-0.25,0.067h-0.5
		c-0.091,0-0.176-0.024-0.25-0.067c-0.074,0.042-0.159,0.067-0.25,0.067h-0.5c-0.091,0-0.176-0.024-0.25-0.067
		c-0.074,0.042-0.159,0.067-0.25,0.067h-0.5c-0.091,0-0.176-0.024-0.25-0.067c-0.074,0.042-0.159,0.067-0.25,0.067h-0.5
		c-0.091,0-0.176-0.024-0.25-0.067c-0.074,0.042-0.159,0.067-0.25,0.067h-0.5c-0.091,0-0.176-0.024-0.25-0.067
		c-0.074,0.042-0.159,0.067-0.25,0.067h-0.5c-0.091,0-0.176-0.024-0.25-0.067c-0.074,0.042-0.159,0.067-0.25,0.067h-0.5
		c-0.091,0-0.176-0.024-0.25-0.067c-0.074,0.042-0.159,0.067-0.25,0.067h-0.5c-0.091,0-0.176-0.024-0.25-0.067
		c-0.074,0.042-0.159,0.067-0.25,0.067h-0.5c-0.091,0-0.176-0.024-0.25-0.067c-0.074,0.042-0.159,0.067-0.25,0.067h-0.5
		c-0.091,0-0.176-0.024-0.25-0.067c-0.074,0.042-0.159,0.067-0.25,0.067h-0.5c-0.091,0-0.176-0.024-0.25-0.067
		c-0.074,0.042-0.159,0.067-0.25,0.067h-0.5c-0.091,0-0.176-0.024-0.25-0.067c-0.074,0.042-0.159,0.067-0.25,0.067h-0.5
		c-0.091,0-0.176-0.024-0.25-0.067c-0.074,0.042-0.159,0.067-0.25,0.067h-0.5c-0.091,0-0.176-0.024-0.25-0.067
		c-0.074,0.042-0.159,0.067-0.25,0.067h-0.5c-0.091,0-0.176-0.024-0.25-0.067c-0.074,0.042-0.159,0.067-0.25,0.067h-0.5
		c-0.091,0-0.176-0.024-0.25-0.067c-0.074,0.042-0.159,0.067-0.25,0.067h-0.5c-0.091,0-0.176-0.024-0.25-0.067
		c-0.074,0.042-0.159,0.067-0.25,0.067h-0.5c-0.091,0-0.176-0.024-0.25-0.067c-0.074,0.042-0.159,0.067-0.25,0.067h-0.5
		c-0.091,0-0.176-0.024-0.25-0.067c-0.074,0.042-0.159,0.067-0.25,0.067h-0.5c-0.091,0-0.176-0.024-0.25-0.067
		c-0.074,0.042-0.159,0.067-0.25,0.067h-0.5c-0.091,0-0.176-0.024-0.25-0.067c-0.074,0.042-0.159,0.067-0.25,0.067h-0.5
		c-0.091,0-0.176-0.024-0.25-0.067c-0.074,0.042-0.159,0.067-0.25,0.067h-0.5c-0.091,0-0.176-0.024-0.25-0.067
		c-0.074,0.042-0.159,0.067-0.25,0.067h-0.5c-0.091,0-0.176-0.024-0.25-0.067c-0.074,0.042-0.159,0.067-0.25,0.067h-0.5
		c-0.091,0-0.176-0.024-0.25-0.067c-0.074,0.042-0.159,0.067-0.25,0.067h-0.5c-0.091,0-0.176-0.024-0.25-0.067
		c-0.074,0.042-0.159,0.067-0.25,0.067h-0.5c-0.091,0-0.176-0.024-0.25-0.067c-0.074,0.042-0.159,0.067-0.25,0.067h-0.5
		c-0.091,0-0.176-0.024-0.25-0.067c-0.074,0.042-0.159,0.067-0.25,0.067h-0.5c-0.091,0-0.176-0.024-0.25-0.067
		c-0.074,0.042-0.159,0.067-0.25,0.067h-0.5c-0.091,0-0.176-0.024-0.25-0.067c-0.074,0.042-0.159,0.067-0.25,0.067h-0.5
		c-0.091,0-0.176-0.024-0.25-0.067c-0.074,0.042-0.159,0.067-0.25,0.067h-0.5c-0.091,0-0.176-0.024-0.25-0.067
		c-0.074,0.042-0.159,0.067-0.25,0.067h-0.5c-0.091,0-0.176-0.024-0.25-0.067c-0.074,0.042-0.159,0.067-0.25,0.067h-0.5
		c-0.091,0-0.176-0.024-0.25-0.067c-0.074,0.042-0.159,0.067-0.25,0.067h-0.5c-0.091,0-0.176-0.024-0.25-0.067
		c-0.074,0.042-0.159,0.067-0.25,0.067h-0.5c-0.091,0-0.176-0.024-0.25-0.067c-0.074,0.042-0.159,0.067-0.25,0.067h-0.5
		c-0.091,0-0.176-0.024-0.25-0.067c-0.074,0.042-0.159,0.067-0.25,0.067h-0.5c-0.091,0-0.176-0.024-0.25-0.067
		c-0.074,0.042-0.159,0.067-0.25,0.067h-0.5c-0.091,0-0.176-0.024-0.25-0.067c-0.074,0.042-0.159,0.067-0.25,0.067h-0.5
		c-0.091,0-0.176-0.024-0.25-0.067c-0.074,0.042-0.159,0.067-0.25,0.067h-0.5c-0.091,0-0.176-0.024-0.25-0.067
		c-0.074,0.042-0.159,0.067-0.25,0.067h-0.5c-0.091,0-0.176-0.024-0.25-0.067c-0.074,0.042-0.159,0.067-0.25,0.067h-0.5
		c-0.091,0-0.176-0.024-0.25-0.067c-0.074,0.042-0.159,0.067-0.25,0.067h-0.5c-0.091,0-0.176-0.024-0.25-0.067
		c-0.074,0.042-0.159,0.067-0.25,0.067h-0.5c-0.091,0-0.176-0.024-0.25-0.067c-0.074,0.042-0.159,0.067-0.25,0.067h-0.5
		c-0.091,0-0.176-0.024-0.25-0.067c-0.074,0.042-0.159,0.067-0.25,0.067h-0.5c-0.091,0-0.176-0.024-0.25-0.067
		c-0.074,0.042-0.159,0.067-0.25,0.067h-0.5c-0.091,0-0.176-0.024-0.25-0.067c-0.074,0.042-0.159,0.067-0.25,0.067h-0.5
		c-0.091,0-0.176-0.024-0.25-0.067c-0.074,0.042-0.159,0.067-0.25,0.067h-0.5c-0.091,0-0.176-0.024-0.25-0.067
		c-0.074,0.042-0.159,0.067-0.25,0.067h-0.5c-0.091,0-0.176-0.024-0.25-0.067c-0.074,0.042-0.159,0.067-0.25,0.067h-0.5
		c-0.091,0-0.176-0.024-0.25-0.067c-0.074,0.042-0.159,0.067-0.25,0.067h-0.5c-0.091,0-0.176-0.024-0.25-0.067
		c-0.074,0.042-0.159,0.067-0.25,0.067h-0.5c-0.091,0-0.176-0.024-0.25-0.067c-0.074,0.042-0.159,0.067-0.25,0.067h-0.5
		c-0.091,0-0.176-0.024-0.25-0.067c-0.074,0.042-0.159,0.067-0.25,0.067h-0.5c-0.091,0-0.176-0.024-0.25-0.067
		c-0.074,0.042-0.159,0.067-0.25,0.067h-0.5c-0.091,0-0.176-0.024-0.25-0.067c-0.074,0.042-0.159,0.067-0.25,0.067h-0.5
		c-0.091,0-0.176-0.024-0.25-0.067c-0.074,0.042-0.159,0.067-0.25,0.067h-0.5c-0.091,0-0.176-0.024-0.25-0.067
		c-0.074,0.042-0.159,0.067-0.25,0.067h-0.5c-0.091,0-0.176-0.024-0.25-0.067c-0.074,0.042-0.159,0.067-0.25,0.067h-0.5
		c-0.091,0-0.176-0.024-0.25-0.067c-0.074,0.042-0.159,0.067-0.25,0.067h-0.5c-0.091,0-0.176-0.024-0.25-0.067
		c-0.074,0.042-0.159,0.067-0.25,0.067h-0.5c-0.091,0-0.176-0.024-0.25-0.067c-0.074,0.042-0.159,0.067-0.25,0.067h-0.5
		c-0.091,0-0.176-0.024-0.25-0.067c-0.074,0.042-0.159,0.067-0.25,0.067h-0.5c-0.091,0-0.176-0.024-0.25-0.067
		c-0.074,0.042-0.159,0.067-0.25,0.067h-0.5c-0.091,0-0.176-0.024-0.25-0.067c-0.074,0.042-0.159,0.067-0.25,0.067h-0.5
		c-0.091,0-0.176-0.024-0.25-0.067c-0.074,0.042-0.159,0.067-0.25,0.067h-0.5c-0.091,0-0.176-0.024-0.25-0.067
		c-0.074,0.042-0.159,0.067-0.25,0.067h-0.5c-0.091,0-0.176-0.024-0.25-0.067c-0.074,0.042-0.159,0.067-0.25,0.067h-0.5
		c-0.091,0-0.176-0.024-0.25-0.067c-0.074,0.042-0.159,0.067-0.25,0.067h-0.5c-0.091,0-0.176-0.024-0.25-0.067
		c-0.074,0.042-0.159,0.067-0.25,0.067h-0.5c-0.091,0-0.176-0.024-0.25-0.067c-0.074,0.042-0.159,0.067-0.25,0.067h-0.5
		c-0.091,0-0.176-0.024-0.25-0.067c-0.074,0.042-0.159,0.067-0.25,0.067h-0.5c-0.091,0-0.176-0.024-0.25-0.067
		c-0.074,0.042-0.159,0.067-0.25,0.067h-0.5c-0.091,0-0.176-0.024-0.25-0.067c-0.074,0.042-0.159,0.067-0.25,0.067h-0.5
		c-0.091,0-0.176-0.024-0.25-0.067c-0.074,0.042-0.159,0.067-0.25,0.067h-0.5c-0.091,0-0.176-0.024-0.25-0.067
		c-0.074,0.042-0.159,0.067-0.25,0.067h-0.5c-0.091,0-0.176-0.024-0.25-0.067c-0.074,0.042-0.159,0.067-0.25,0.067h-0.5
		c-0.091,0-0.176-0.024-0.25-0.067c-0.074,0.042-0.159,0.067-0.25,0.067h-0.5c-0.091,0-0.176-0.024-0.25-0.067
		c-0.074,0.042-0.159,0.067-0.25,0.067h-0.5c-0.091,0-0.176-0.024-0.25-0.067c-0.074,0.042-0.159,0.067-0.25,0.067h-0.5
		c-0.091,0-0.176-0.024-0.25-0.067c-0.074,0.042-0.159,0.067-0.25,0.067h-0.5c-0.091,0-0.176-0.024-0.25-0.067
		c-0.074,0.042-0.159,0.067-0.25,0.067h-0.5c-0.091,0-0.176-0.024-0.25-0.067c-0.074,0.042-0.159,0.067-0.25,0.067h-0.5
		c-0.091,0-0.176-0.024-0.25-0.067c-0.074,0.042-0.159,0.067-0.25,0.067h-0.5c-0.091,0-0.176-0.024-0.25-0.067
		c-0.074,0.042-0.159,0.067-0.25,0.067h-0.5c-0.091,0-0.176-0.024-0.25-0.067c-0.074,0.042-0.159,0.067-0.25,0.067h-0.5
		c-0.091,0-0.176-0.024-0.25-0.067c-0.074,0.042-0.159,0.067-0.25,0.067h-0.5c-0.091,0-0.176-0.024-0.25-0.067
		c-0.074,0.042-0.159,0.067-0.25,0.067h-0.5c-0.091,0-0.176-0.024-0.25-0.067c-0.074,0.042-0.159,0.067-0.25,0.067h-0.5
		c-0.091,0-0.176-0.024-0.25-0.067c-0.074,0.042-0.159,0.067-0.25,0.067h-0.5c-0.091,0-0.176-0.024-0.25-0.067
		c-0.074,0.042-0.159,0.067-0.25,0.067h-0.5c-0.091,0-0.176-0.024-0.25-0.067c-0.074,0.042-0.159,0.067-0.25,0.067h-0.5
		c-0.091,0-0.176-0.024-0.25-0.067c-0.074,0.042-0.159,0.067-0.25,0.067h-0.5c-0.091,0-0.176-0.024-0.25-0.067
		c-0.074,0.042-0.159,0.067-0.25,0.067h-0.5c-0.091,0-0.176-0.024-0.25-0.067c-0.074,0.042-0.159,0.067-0.25,0.067h-0.5
		c-0.091,0-0.176-0.024-0.25-0.067c-0.074,0.042-0.159,0.067-0.25,0.067h-0.5c-0.091,0-0.176-0.024-0.25-0.067
		c-0.074,0.042-0.159,0.067-0.25,0.067h-0.5c-0.091,0-0.176-0.024-0.25-0.067c-0.074,0.042-0.159,0.067-0.25,0.067h-0.5
		c-0.091,0-0.176-0.024-0.25-0.067c-0.074,0.042-0.159,0.067-0.25,0.067h-0.5c-0.091,0-0.176-0.024-0.25-0.067
		c-0.074,0.042-0.159,0.067-0.25,0.067h-0.5c-0.091,0-0.176-0.024-0.25-0.067c-0.074,0.042-0.159,0.067-0.25,0.067h-0.5
		c-0.091,0-0.176-0.024-0.25-0.067c-0.074,0.042-0.159,0.067-0.25,0.067h-0.5c-0.091,0-0.176-0.024-0.25-0.067
		c-0.074,0.042-0.159,0.067-0.25,0.067h-0.5c-0.091,0-0.176-0.024-0.25-0.067c-0.074,0.042-0.159,0.067-0.25,0.067h-0.5
		c-0.091,0-0.176-0.024-0.25-0.067c-0.074,0.042-0.159,0.067-0.25,0.067h-0.5c-0.091,0-0.176-0.024-0.25-0.067
		c-0.074,0.042-0.159,0.067-0.25,0.067h-0.5c-0.091,0-0.176-0.024-0.25-0.067c-0.074,0.042-0.159,0.067-0.25,0.067h-0.5
		c-0.091,0-0.176-0.024-0.25-0.067c-0.074,0.042-0.159,0.067-0.25,0.067h-0.5c-0.091,0-0.176-0.024-0.25-0.067
		c-0.074,0.042-0.159,0.067-0.25,0.067h-0.5c-0.091,0-0.176-0.024-0.25-0.067c-0.074,0.042-0.159,0.067-0.25,0.067h-0.5
		c-0.091,0-0.176-0.024-0.25-0.067c-0.074,0.042-0.159,0.067-0.25,0.067h-0.5c-0.091,0-0.176-0.024-0.25-0.067
		c-0.074,0.042-0.159,0.067-0.25,0.067h-0.5c-0.091,0-0.176-0.024-0.25-0.067c-0.074,0.042-0.159,0.067-0.25,0.067h-0.5
		c-0.091,0-0.176-0.024-0.25-0.067c-0.074,0.042-0.159,0.067-0.25,0.067h-0.5c-0.091,0-0.176-0.024-0.25-0.067
		c-0.074,0.042-0.159,0.067-0.25,0.067h-0.5c-0.091,0-0.176-0.024-0.25-0.067c-0.074,0.042-0.159,0.067-0.25,0.067h-0.5
		c-0.091,0-0.176-0.024-0.25-0.067c-0.074,0.042-0.159,0.067-0.25,0.067h-0.5c-0.091,0-0.176-0.024-0.25-0.067
		c-0.074,0.042-0.159,0.067-0.25,0.067h-0.5c-0.091,0-0.176-0.024-0.25-0.067c-0.074,0.042-0.159,0.067-0.25,0.067h-0.5
		c-0.091,0-0.176-0.024-0.25-0.067c-0.074,0.042-0.159,0.067-0.25,0.067h-0.5c-0.091,0-0.176-0.024-0.25-0.067
		c-0.074,0.042-0.159,0.067-0.25,0.067h-0.5c-0.091,0-0.176-0.024-0.25-0.067c-0.074,0.042-0.159,0.067-0.25,0.067h-0.5
		c-0.091,0-0.176-0.024-0.25-0.067c-0.074,0.042-0.159,0.067-0.25,0.067h-0.5c-0.091,0-0.176-0.024-0.25-0.067
		c-0.074,0.042-0.159,0.067-0.25,0.067h-0.5c-0.091,0-0.176-0.024-0.25-0.067c-0.074,0.042-0.159,0.067-0.25,0.067h-0.5
		c-0.091,0-0.176-0.024-0.25-0.067c-0.074,0.042-0.159,0.067-0.25,0.067h-0.5c-0.091,0-0.176-0.024-0.25-0.067
		c-0.074,0.042-0.159,0.067-0.25,0.067h-0.5c-0.091,0-0.176-0.024-0.25-0.067c-0.074,0.042-0.159,0.067-0.25,0.067h-0.5
		c-0.091,0-0.176-0.024-0.25-0.067c-0.074,0.042-0.159,0.067-0.25,0.067h-0.5c-0.091,0-0.176-0.024-0.25-0.067
		c-0.074,0.042-0.159,0.067-0.25,0.067h-0.5c-0.091,0-0.176-0.024-0.25-0.067c-0.074,0.042-0.159,0.067-0.25,0.067h-0.5
		c-0.091,0-0.176-0.024-0.25-0.067c-0.074,0.042-0.159,0.067-0.25,0.067h-0.5c-0.091,0-0.176-0.024-0.25-0.067
		c-0.074,0.042-0.159,0.067-0.25,0.067h-0.5c-0.091,0-0.176-0.024-0.25-0.067c-0.074,0.042-0.159,0.067-0.25,0.067h-0.5
		c-0.091,0-0.176-0.024-0.25-0.067c-0.074,0.042-0.159,0.067-0.25,0.067h-0.5c-0.091,0-0.176-0.024-0.25-0.067
		c-0.074,0.042-0.159,0.067-0.25,0.067h-0.5c-0.091,0-0.176-0.024-0.25-0.067c-0.074,0.042-0.159,0.067-0.25,0.067h-0.5
		c-0.091,0-0.176-0.024-0.25-0.067c-0.074,0.042-0.159,0.067-0.25,0.067h-0.5c-0.091,0-0.176-0.024-0.25-0.067
		c-0.074,0.042-0.159,0.067-0.25,0.067h-0.5c-0.091,0-0.176-0.024-0.25-0.067c-0.074,0.042-0.159,0.067-0.25,0.067h-0.5
		c-0.091,0-0.176-0.024-0.25-0.067c-0.074,0.042-0.159,0.067-0.25,0.067h-0.5c-0.091,0-0.176-0.024-0.25-0.067
		c-0.074,0.042-0.159,0.067-0.25,0.067h-0.5c-0.091,0-0.176-0.024-0.25-0.067c-0.074,0.042-0.159,0.067-0.25,0.067h-0.5
		c-0.091,0-0.176-0.024-0.25-0.067c-0.074,0.042-0.159,0.067-0.25,0.067h-0.5c-0.091,0-0.176-0.024-0.25-0.067
		c-0.074,0.042-0.159,0.067-0.25,0.067h-0.5c-0.091,0-0.176-0.024-0.25-0.067c-0.074,0.042-0.159,0.067-0.25,0.067h-0.5
		c-0.091,0-0.176-0.024-0.25-0.067c-0.074,0.042-0.159,0.067-0.25,0.067h-0.5c-0.091,0-0.176-0.024-0.25-0.067
		c-0.074,0.042-0.159,0.067-0.25,0.067h-0.5c-0.091,0-0.176-0.024-0.25-0.067c-0.074,0.042-0.159,0.067-0.25,0.067h-0.5
		c-0.091,0-0.176-0.024-0.25-0.067c-0.074,0.042-0.159,0.067-0.25,0.067h-0.5c-0.091,0-0.176-0.024-0.25-0.067
		c-0.074,0.042-0.159,0.067-0.25,0.067h-0.5c-0.091,0-0.176-0.024-0.25-0.067c-0.074,0.042-0.159,0.067-0.25,0.067h-0.5
		c-0.091,0-0.176-0.024-0.25-0.067c-0.074,0.042-0.159,0.067-0.25,0.067h-0.5c-0.091,0-0.176-0.024-0.25-0.067
		c-0.074,0.042-0.159,0.067-0.25,0.067h-0.5c-0.091,0-0.176-0.024-0.25-0.067c-0.074,0.042-0.159,0.067-0.25,0.067h-0.5
		c-0.091,0-0.176-0.024-0.25-0.067c-0.074,0.042-0.159,0.067-0.25,0.067h-0.5c-0.091,0-0.176-0.024-0.25-0.067
		c-0.074,0.042-0.159,0.067-0.25,0.067h-0.5c-0.091,0-0.176-0.024-0.25-0.067c-0.074,0.042-0.159,0.067-0.25,0.067h-0.5
		c-0.091,0-0.176-0.024-0.25-0.067c-0.074,0.042-0.159,0.067-0.25,0.067h-0.5c-0.091,0-0.176-0.024-0.25-0.067
		c-0.074,0.042-0.159,0.067-0.25,0.067H9.5c-0.091,0-0.176-0.024-0.25-0.067C9.176,10.349,9.091,10.373,9,10.373H8.5
		c-0.091,0-0.176-0.024-0.25-0.067C8.176,10.349,8.091,10.373,8,10.373H7.5c-0.091,0-0.176-0.024-0.25-0.067
		C7.176,10.349,7.091,10.373,7,10.373H6.5c-0.091,0-0.176-0.024-0.25-0.067C6.176,10.349,6.091,10.373,6,10.373H5.5
		c-0.091,0-0.176-0.024-0.25-0.067C5.176,10.349,5.091,10.373,5,10.373H4.5c-0.091,0-0.176-0.024-0.25-0.067
		C4.176,10.349,4.091,10.373,4,10.373H3.5c-0.276,0-0.5-0.224-0.5-0.5c0-0.276,0.224-0.5,0.5-0.5H4c0.091,0,0.176,0.024,0.25,0.067
		C4.324,9.397,4.409,9.373,4.5,9.373H5c0.091,0,0.176,0.024,0.25,0.067C5.324,9.397,5.409,9.373,5.5,9.373H6
		c0.091,0,0.176,0.024,0.25,0.067C6.324,9.397,6.409,9.373,6.5,9.373H7c0.091,0,0.176,0.024,0.25,0.067
		C7.324,9.397,7.409,9.373,7.5,9.373H8c0.091,0,0.176,0.024,0.25,0.067C8.324,9.397,8.409,9.373,8.5,9.373H9
		c0.091,0,0.176,0.024,0.25,0.067C9.324,9.397,9.409,9.373,9.5,9.373H10c0.091,0,0.176,0.024,0.25,0.067
		c0.074-0.042,0.159-0.067,0.25-0.067H11c0.091,0,0.176,0.024,0.25,0.067c0.074-0.042,0.159-0.067,0.25-0.067H12
		c0.091,0,0.176,0.024,0.25,0.067c0.074-0.042,0.159-0.067,0.25-0.067H13c0.091,0,0.176,0.024,0.25,0.067
		c0.074-0.042,0.159-0.067,0.25-0.067H14c0.091,0,0.176,0.024,0.25,0.067c0.074-0.042,0.159-0.067,0.25-0.067H15
		c0.091,0,0.176,0.024,0.25,0.067c0.074-0.042,0.159-0.067,0.25-0.067H16c0.091,0,0.176,0.024,0.25,0.067
		c0.074-0.042,0.159-0.067,0.25-0.067H17c0.091,0,0.176,0.024,0.25,0.067c0.074-0.042,0.159-0.067,0.25-0.067H18
		c0.091,0,0.176,0.024,0.25,0.067c0.074-0.042,0.159-0.067,0.25-0.067H19c0.091,0,0.176,0.024,0.25,0.067
		c0.074-0.042,0.159-0.067,0.25-0.067H20c0.091,0,0.176,0.024,0.25,0.067c0.074-0.042,0.159-0.067,0.25-0.067H21
		c0.091,0,0.176,0.024,0.25,0.067c0.074-0.042,0.159-0.067,0.25-0.067H22c0.091,0,0.176,0.024,0.25,0.067
		c0.074-0.042,0.159-0.067,0.25-0.067H23c0.091,0,0.176,0.024,0.25,0.067c0.074-0.042,0.159-0.067,0.25-0.067H24
		c0.091,0,0.176,0.024,0.25,0.067c0.074-0.042,0.159-0.067,0.25-0.067H25c0.091,0,0.176,0.024,0.25,0.067
		c0.074-0.042,0.159-0.067,0.25-0.067H26c0.091,0,0.176,0.024,0.25,0.067c0.074-0.042,0.159-0.067,0.25-0.067H27
		c0.091,0,0.176,0.024,0.25,0.067c0.074-0.042,0.159-0.067,0.25-0.067H28c0.091,0,0.176,0.024,0.25,0.067
		c0.074-0.042,0.159-0.067,0.25-0.067H29c0.091,0,0.176,0.024,0.25,0.067c0.074-0.042,0.159-0.067,0.25-0.067H30
		c0.091,0,0.176,0.024,0.25,0.067c0.074-0.042,0.159-0.067,0.25-0.067H31c0.091,0,0.176,0.024,0.25,0.067
		c0.074-0.042,0.159-0.067,0.25-0.067H32c0.091,0,0.176,0.024,0.25,0.067c0.074-0.042,0.159-0.067,0.25-0.067H33
		c0.091,0,0.176,0.024,0.25,0.067c0.074-0.042,0.159-0.067,0.25-0.067H34c0.091,0,0.176,0.024,0.25,0.067
		c0.074-0.042,0.159-0.067,0.25-0.067H35c0.091,0,0.176,0.024,0.25,0.067c0.074-0.042,0.159-0.067,0.25-0.067H36
		c0.091,0,0.176,0.024,0.25,0.067c0.074-0.042,0.159-0.067,0.25-0.067H37c0.091,0,0.176,0.024,0.25,0.067
		c0.074-0.042,0.159-0.067,0.25-0.067H38c0.091,0,0.176,0.024,0.25,0.067c0.074-0.042,0.159-0.067,0.25-0.067H39
		c0.091,0,0.176,0.024,0.25,0.067c0.074-0.042,0.159-0.067,0.25-0.067H40c0.091,0,0.176,0.024,0.25,0.067
		c0.074-0.042,0.159-0.067,0.25-0.067H41c0.091,0,0.176,0.024,0.25,0.067c0.074-0.042,0.159-0.067,0.25-0.067H42
		c0.091,0,0.176,0.024,0.25,0.067c0.074-0.042,0.159-0.067,0.25-0.067H43c0.091,0,0.176,0.024,0.25,0.067
		c0.074-0.042,0.159-0.067,0.25-0.067H44c0.091,0,0.176,0.024,0.25,0.067c0.074-0.042,0.159-0.067,0.25-0.067H45
		c0.091,0,0.176,0.024,0.25,0.067c0.074-0.042,0.159-0.067,0.25-0.067H46c0.091,0,0.176,0.024,0.25,0.067
		c0.074-0.042,0.159-0.067,0.25-0.067H47c0.091,0,0.176,0.024,0.25,0.067c0.074-0.042,0.159-0.067,0.25-0.067H48
		c0.091,0,0.176,0.024,0.25,0.067c0.074-0.042,0.159-0.067,0.25-0.067H49c0.091,0,0.176,0.024,0.25,0.067
		c0.074-0.042,0.159-0.067,0.25-0.067H50c0.091,0,0.176,0.024,0.25,0.067c0.074-0.042,0.159-0.067,0.25-0.067H51
		c0.091,0,0.176,0.024,0.25,0.067c0.074-0.042,0.159-0.067,0.25-0.067H52c0.091,0,0.176,0.024,0.25,0.067
		c0.074-0.042,0.159-0.067,0.25-0.067H53c0.091,0,0.176,0.024,0.25,0.067c0.074-0.042,0.159-0.067,0.25-0.067H54
		c0.091,0,0.176,0.024,0.25,0.067c0.074-0.042,0.159-0.067,0.25-0.067H55c0.091,0,0.176,0.024,0.25,0.067
		c0.074-0.042,0.159-0.067,0.25-0.067H56c0.091,0,0.176,0.024,0.25,0.067c0.074-0.042,0.159-0.067,0.25-0.067H57
		c0.091,0,0.176,0.024,0.25,0.067c0.074-0.042,0.159-0.067,0.25-0.067H58c0.091,0,0.176,0.024,0.25,0.067
		c0.074-0.042,0.159-0.067,0.25-0.067H59c0.091,0,0.176,0.024,0.25,0.067c0.074-0.042,0.159-0.067,0.25-0.067H60
		c0.091,0,0.176,0.024,0.25,0.067c0.074-0.042,0.159-0.067,0.25-0.067H61c0.091,0,0.176,0.024,0.25,0.067
		c0.074-0.042,0.159-0.067,0.25-0.067H62c0.091,0,0.176,0.024,0.25,0.067c0.074-0.042,0.159-0.067,0.25-0.067H63
		c0.091,0,0.176,0.024,0.25,0.067c0.074-0.042,0.159-0.067,0.25-0.067H64c0.091,0,0.176,0.024,0.25,0.067
		c0.074-0.042,0.159-0.067,0.25-0.067H65c0.091,0,0.176,0.024,0.25,0.067c0.074-0.042,0.159-0.067,0.25-0.067H66
		c0.091,0,0.176,0.024,0.25,0.067c0.074-0.042,0.159-0.067,0.25-0.067H67c0.091,0,0.176,0.024,0.25,0.067
		c0.074-0.042,0.159-0.067,0.25-0.067H68c0.091,0,0.176,0.024,0.25,0.067c0.074-0.042,0.159-0.067,0.25-0.067H69
		c0.091,0,0.176,0.024,0.25,0.067c0.074-0.042,0.159-0.067,0.25-0.067H70c0.091,0,0.176,0.024,0.25,0.067
		c0.074-0.042,0.159-0.067,0.25-0.067H71c0.091,0,0.176,0.024,0.25,0.067c0.074-0.042,0.159-0.067,0.25-0.067H72
		c0.091,0,0.176,0.024,0.25,0.067c0.074-0.042,0.159-0.067,0.25-0.067H73c0.091,0,0.176,0.024,0.25,0.067
		c0.074-0.042,0.159-0.067,0.25-0.067H74c0.091,0,0.176,0.024,0.25,0.067c0.074-0.042,0.159-0.067,0.25-0.067H75
		c0.091,0,0.176,0.024,0.25,0.067c0.074-0.042,0.159-0.067,0.25-0.067H76c0.091,0,0.176,0.024,0.25,0.067
		c0.074-0.042,0.159-0.067,0.25-0.067H77c0.091,0,0.176,0.024,0.25,0.067c0.074-0.042,0.159-0.067,0.25-0.067H78
		c0.091,0,0.176,0.024,0.25,0.067c0.074-0.042,0.159-0.067,0.25-0.067H79c0.091,0,0.176,0.024,0.25,0.067
		c0.074-0.042,0.159-0.067,0.25-0.067H80c0.091,0,0.176,0.024,0.25,0.067c0.074-0.042,0.159-0.067,0.25-0.067H81
		c0.091,0,0.176,0.024,0.25,0.067c0.074-0.042,0.159-0.067,0.25-0.067H82c0.091,0,0.176,0.024,0.25,0.067
		c0.074-0.042,0.159-0.067,0.25-0.067H83c0.091,0,0.176,0.024,0.25,0.067c0.074-0.042,0.159-0.067,0.25-0.067H84
		c0.091,0,0.176,0.024,0.25,0.067c0.074-0.042,0.159-0.067,0.25-0.067H85c0.091,0,0.176,0.024,0.25,0.067
		c0.074-0.042,0.159-0.067,0.25-0.067H86c0.091,0,0.176,0.024,0.25,0.067c0.074-0.042,0.159-0.067,0.25-0.067H87
		c0.091,0,0.176,0.024,0.25,0.067c0.074-0.042,0.159-0.067,0.25-0.067H88c0.091,0,0.176,0.024,0.25,0.067
		c0.074-0.042,0.159-0.067,0.25-0.067H89c0.091,0,0.176,0.024,0.25,0.067c0.074-0.042,0.159-0.067,0.25-0.067H90
		c0.091,0,0.176,0.024,0.25,0.067c0.074-0.042,0.159-0.067,0.25-0.067H91c0.091,0,0.176,0.024,0.25,0.067
		c0.074-0.042,0.159-0.067,0.25-0.067H92c0.091,0,0.176,0.024,0.25,0.067c0.074-0.042,0.159-0.067,0.25-0.067H93
		c0.091,0,0.176,0.024,0.25,0.067c0.074-0.042,0.159-0.067,0.25-0.067H94c0.091,0,0.176,0.024,0.25,0.067
		c0.074-0.042,0.159-0.067,0.25-0.067H95c0.091,0,0.176,0.024,0.25,0.067c0.074-0.042,0.159-0.067,0.25-0.067H96
		c0.091,0,0.176,0.024,0.25,0.067c0.074-0.042,0.159-0.067,0.25-0.067H97c0.091,0,0.176,0.024,0.25,0.067
		c0.074-0.042,0.159-0.067,0.25-0.067H98c0.091,0,0.176,0.024,0.25,0.067c0.074-0.042,0.159-0.067,0.25-0.067H99
		c0.091,0,0.176,0.024,0.25,0.067c0.074-0.042,0.159-0.067,0.25-0.067h0.5c0.091,0,0.176,0.024,0.25,0.067
		c0.074-0.042,0.159-0.067,0.25-0.067h0.5c0.091,0,0.176,0.024,0.25,0.067c0.074-0.042,0.159-0.067,0.25-0.067h0.5
		c0.091,0,0.176,0.024,0.25,0.067c0.074-0.042,0.159-0.067,0.25-0.067h0.5c0.091,0,0.176,0.024,0.25,0.067
		c0.074-0.042,0.159-0.067,0.25-0.067h0.5c0.091,0,0.176,0.024,0.25,0.067c0.074-0.042,0.159-0.067,0.25-0.067h0.5
		c0.091,0,0.176,0.024,0.25,0.067c0.074-0.042,0.159-0.067,0.25-0.067h0.5c0.091,0,0.176,0.024,0.25,0.067
		c0.074-0.042,0.159-0.067,0.25-0.067h0.5c0.091,0,0.176,0.024,0.25,0.067c0.074-0.042,0.159-0.067,0.25-0.067h0.5
		c0.091,0,0.176,0.024,0.25,0.067c0.074-0.042,0.159-0.067,0.25-0.067h0.5c0.091,0,0.176,0.024,0.25,0.067
		c0.074-0.042,0.159-0.067,0.25-0.067h0.5c0.091,0,0.176,0.024,0.25,0.067c0.074-0.042,0.159-0.067,0.25-0.067h0.5
		c0.091,0,0.176,0.024,0.25,0.067c0.074-0.042,0.159-0.067,0.25-0.067h0.5c0.091,0,0.176,0.024,0.25,0.067
		c0.074-0.042,0.159-0.067,0.25-0.067h0.5c0.091,0,0.176,0.024,0.25,0.067c0.074-0.042,0.159-0.067,0.25-0.067h0.5
		c0.091,0,0.176,0.024,0.25,0.067c0.074-0.042,0.159-0.067,0.25-0.067h0.5c0.091,0,0.176,0.024,0.25,0.067
		c0.074-0.042,0.159-0.067,0.25-0.067h0.5c0.091,0,0.176,0.024,0.25,0.067c0.074-0.042,0.159-0.067,0.25-0.067h0.5
		c0.091,0,0.176,0.024,0.25,0.067c0.074-0.042,0.159-0.067,0.25-0.067h0.5c0.091,0,0.176,0.024,0.25,0.067
		c0.074-0.042,0.159-0.067,0.25-0.067h0.5c0.091,0,0.176,0.024,0.25,0.067c0.074-0.042,0.159-0.067,0.25-0.067h0.5
		c0.091,0,0.176,0.024,0.25,0.067c0.074-0.042,0.159-0.067,0.25-0.067h0.5c0.091,0,0.176,0.024,0.25,0.067
		c0.074-0.042,0.159-0.067,0.25-0.067h0.5c0.091,0,0.176,0.024,0.25,0.067c0.074-0.042,0.159-0.067,0.25-0.067h0.5
		c0.091,0,0.176,0.024,0.25,0.067c0.074-0.042,0.159-0.067,0.25-0.067h0.5c0.091,0,0.176,0.024,0.25,0.067
		c0.074-0.042,0.159-0.067,0.25-0.067h0.5c0.091,0,0.176,0.024,0.25,0.067c0.074-0.042,0.159-0.067,0.25-0.067h0.5
		c0.091,0,0.176,0.024,0.25,0.067c0.074-0.042,0.159-0.067,0.25-0.067h0.5c0.091,0,0.176,0.024,0.25,0.067
		c0.074-0.042,0.159-0.067,0.25-0.067h0.5c0.091,0,0.176,0.024,0.25,0.067c0.074-0.042,0.159-0.067,0.25-0.067h0.5
		c0.091,0,0.176,0.024,0.25,0.067c0.074-0.042,0.159-0.067,0.25-0.067h0.5c0.091,0,0.176,0.024,0.25,0.067
		c0.074-0.042,0.159-0.067,0.25-0.067h0.5c0.091,0,0.176,0.024,0.25,0.067c0.074-0.042,0.159-0.067,0.25-0.067h0.5
		c0.091,0,0.176,0.024,0.25,0.067c0.074-0.042,0.159-0.067,0.25-0.067h0.5c0.091,0,0.176,0.024,0.25,0.067
		c0.074-0.042,0.159-0.067,0.25-0.067h0.5c0.091,0,0.176,0.024,0.25,0.067c0.074-0.042,0.159-0.067,0.25-0.067h0.5
		c0.091,0,0.176,0.024,0.25,0.067c0.074-0.042,0.159-0.067,0.25-0.067h0.5c0.091,0,0.176,0.024,0.25,0.067
		c0.074-0.042,0.159-0.067,0.25-0.067h0.5c0.091,0,0.176,0.024,0.25,0.067c0.074-0.042,0.159-0.067,0.25-0.067h0.5
		c0.091,0,0.176,0.024,0.25,0.067c0.074-0.042,0.159-0.067,0.25-0.067h0.5c0.091,0,0.176,0.024,0.25,0.067
		c0.074-0.042,0.159-0.067,0.25-0.067h0.5c0.091,0,0.176,0.024,0.25,0.067c0.074-0.042,0.159-0.067,0.25-0.067h0.5
		c0.091,0,0.176,0.024,0.25,0.067c0.074-0.042,0.159-0.067,0.25-0.067h0.5c0.091,0,0.176,0.024,0.25,0.067
		c0.074-0.042,0.159-0.067,0.25-0.067h0.5c0.091,0,0.176,0.024,0.25,0.067c0.074-0.042,0.159-0.067,0.25-0.067h0.5
		c0.091,0,0.176,0.024,0.25,0.067c0.074-0.042,0.159-0.067,0.25-0.067h0.5c0.091,0,0.176,0.024,0.25,0.067
		c0.074-0.042,0.159-0.067,0.25-0.067h0.5c0.091,0,0.176,0.024,0.25,0.067c0.074-0.042,0.159-0.067,0.25-0.067h0.5
		c0.091,0,0.176,0.024,0.25,0.067c0.074-0.042,0.159-0.067,0.25-0.067h0.5c0.091,0,0.176,0.024,0.25,0.067
		c0.074-0.042,0.159-0.067,0.25-0.067h0.5c0.091,0,0.176,0.024,0.25,0.067c0.074-0.042,0.159-0.067,0.25-0.067h0.5
		c0.091,0,0.176,0.024,0.25,0.067c0.074-0.042,0.159-0.067,0.25-0.067h0.5c0.091,0,0.176,0.024,0.25,0.067
		c0.074-0.042,0.159-0.067,0.25-0.067h0.5c0.091,0,0.176,0.024,0.25,0.067c0.074-0.042,0.159-0.067,0.25-0.067h0.5
		c0.091,0,0.176,0.024,0.25,0.067c0.074-0.042,0.159-0.067,0.25-0.067h0.5c0.091,0,0.176,0.024,0.25,0.067
		c0.074-0.042,0.159-0.067,0.25-0.067h0.5c0.091,0,0.176,0.024,0.25,0.067c0.074-0.042,0.159-0.067,0.25-0.067h0.5
		c0.091,0,0.176,0.024,0.25,0.067c0.074-0.042,0.159-0.067,0.25-0.067h0.5c0.091,0,0.176,0.024,0.25,0.067
		c0.074-0.042,0.159-0.067,0.25-0.067h0.5c0.091,0,0.176,0.024,0.25,0.067c0.074-0.042,0.159-0.067,0.25-0.067h0.5
		c0.091,0,0.176,0.024,0.25,0.067c0.074-0.042,0.159-0.067,0.25-0.067h0.5c0.091,0,0.176,0.024,0.25,0.067
		c0.074-0.042,0.159-0.067,0.25-0.067h0.5c0.091,0,0.176,0.024,0.25,0.067c0.074-0.042,0.159-0.067,0.25-0.067h0.5
		c0.091,0,0.176,0.024,0.25,0.067c0.074-0.042,0.159-0.067,0.25-0.067h0.5c0.091,0,0.176,0.024,0.25,0.067
		c0.074-0.042,0.159-0.067,0.25-0.067h0.5c0.091,0,0.176,0.024,0.25,0.067c0.074-0.042,0.159-0.067,0.25-0.067h0.5
		c0.091,0,0.176,0.024,0.25,0.067c0.074-0.042,0.159-0.067,0.25-0.067h0.5c0.091,0,0.176,0.024,0.25,0.067
		c0.074-0.042,0.159-0.067,0.25-0.067h0.5c0.091,0,0.176,0.024,0.25,0.067c0.074-0.042,0.159-0.067,0.25-0.067h0.5
		c0.091,0,0.176,0.024,0.25,0.067c0.074-0.042,0.159-0.067,0.25-0.067h0.5c0.091,0,0.176,0.024,0.25,0.067
		c0.074-0.042,0.159-0.067,0.25-0.067h0.5c0.091,0,0.176,0.024,0.25,0.067c0.074-0.042,0.159-0.067,0.25-0.067h0.5
		c0.091,0,0.176,0.024,0.25,0.067c0.074-0.042,0.159-0.067,0.25-0.067h0.5c0.091,0,0.176,0.024,0.25,0.067
		c0.074-0.042,0.159-0.067,0.25-0.067h0.5c0.091,0,0.176,0.024,0.25,0.067c0.074-0.042,0.159-0.067,0.25-0.067h0.5
		c0.091,0,0.176,0.024,0.25,0.067c0.074-0.042,0.159-0.067,0.25-0.067h0.5c0.091,0,0.176,0.024,0.25,0.067
		c0.074-0.042,0.159-0.067,0.25-0.067h0.5c0.091,0,0.176,0.024,0.25,0.067c0.074-0.042,0.159-0.067,0.25-0.067h0.5
		c0.091,0,0.176,0.024,0.25,0.067c0.074-0.042,0.159-0.067,0.25-0.067h0.5c0.091,0,0.176,0.024,0.25,0.067
		c0.074-0.042,0.159-0.067,0.25-0.067h0.5c0.091,0,0.176,0.024,0.25,0.067c0.074-0.042,0.159-0.067,0.25-0.067h0.5
		c0.091,0,0.176,0.024,0.25,0.067c0.074-0.042,0.159-0.067,0.25-0.067h0.5c0.091,0,0.176,0.024,0.25,0.067
		c0.074-0.042,0.159-0.067,0.25-0.067h0.5c0.091,0,0.176,0.024,0.25,0.067c0.074-0.042,0.159-0.067,0.25-0.067h0.5
		c0.091,0,0.176,0.024,0.25,0.067c0.074-0.042,0.159-0.067,0.25-0.067h0.5c0.091,0,0.176,0.024,0.25,0.067
		c0.074-0.042,0.159-0.067,0.25-0.067h0.5c0.091,0,0.176,0.024,0.25,0.067c0.074-0.042,0.159-0.067,0.25-0.067h0.5
		c0.091,0,0.176,0.024,0.25,0.067c0.074-0.042,0.159-0.067,0.25-0.067h0.5c0.091,0,0.176,0.024,0.25,0.067
		c0.074-0.042,0.159-0.067,0.25-0.067h0.5c0.091,0,0.176,0.024,0.25,0.067c0.074-0.042,0.159-0.067,0.25-0.067h0.5
		c0.091,0,0.176,0.024,0.25,0.067c0.074-0.042,0.159-0.067,0.25-0.067h0.5c0.091,0,0.176,0.024,0.25,0.067
		c0.074-0.042,0.159-0.067,0.25-0.067h0.5c0.091,0,0.176,0.024,0.25,0.067c0.074-0.042,0.159-0.067,0.25-0.067h0.5
		c0.091,0,0.176,0.024,0.25,0.067c0.074-0.042,0.159-0.067,0.25-0.067h0.5c0.091,0,0.176,0.024,0.25,0.067
		c0.074-0.042,0.159-0.067,0.25-0.067h0.5c0.091,0,0.176,0.024,0.25,0.067c0.074-0.042,0.159-0.067,0.25-0.067h0.5
		c0.091,0,0.176,0.024,0.25,0.067c0.074-0.042,0.159-0.067,0.25-0.067h0.5c0.091,0,0.176,0.024,0.25,0.067
		c0.074-0.042,0.159-0.067,0.25-0.067h0.5c0.091,0,0.176,0.024,0.25,0.067c0.074-0.042,0.159-0.067,0.25-0.067h0.5
		c0.091,0,0.176,0.024,0.25,0.067c0.074-0.042,0.159-0.067,0.25-0.067h0.5c0.091,0,0.176,0.024,0.25,0.067
		c0.074-0.042,0.159-0.067,0.25-0.067h0.5c0.091,0,0.176,0.024,0.25,0.067c0.074-0.042,0.159-0.067,0.25-0.067h0.5
		c0.091,0,0.176,0.024,0.25,0.067c0.074-0.042,0.159-0.067,0.25-0.067h0.5c0.091,0,0.176,0.024,0.25,0.067
		c0.074-0.042,0.159-0.067,0.25-0.067h0.5c0.091,0,0.176,0.024,0.25,0.067c0.074-0.042,0.159-0.067,0.25-0.067h0.5
		c0.091,0,0.176,0.024,0.25,0.067c0.074-0.042,0.159-0.067,0.25-0.067h0.5c0.091,0,0.176,0.024,0.25,0.067
		c0.074-0.042,0.159-0.067,0.25-0.067h0.5c0.091,0,0.176,0.024,0.25,0.067c0.074-0.042,0.159-0.067,0.25-0.067h0.5
		c0.091,0,0.176,0.024,0.25,0.067c0.074-0.042,0.159-0.067,0.25-0.067h0.5c0.091,0,0.176,0.024,0.25,0.067
		c0.074-0.042,0.159-0.067,0.25-0.067h0.5c0.091,0,0.176,0.024,0.25,0.067c0.074-0.042,0.159-0.067,0.25-0.067h0.5
		c0.091,0,0.176,0.024,0.25,0.067c0.074-0.042,0.159-0.067,0.25-0.067h0.5c0.091,0,0.176,0.024,0.25,0.067
		c0.074-0.042,0.159-0.067,0.25-0.067h0.5c0.091,0,0.176,0.024,0.25,0.067c0.074-0.042,0.159-0.067,0.25-0.067h0.5
		c0.091,0,0.176,0.024,0.25,0.067c0.074-0.042,0.159-0.067,0.25-0.067h0.5c0.091,0,0.176,0.024,0.25,0.067
		c0.074-0.042,0.159-0.067,0.25-0.067h0.5c0.091,0,0.176,0.024,0.25,0.067c0.074-0.042,0.159-0.067,0.25-0.067h0.5
		c0.091,0,0.176,0.024,0.25,0.067c0.074-0.042,0.159-0.067,0.25-0.067h0.5c0.091,0,0.176,0.024,0.25,0.067
		c0.074-0.042,0.159-0.067,0.25-0.067h0.5c0.091,0,0.176,0.024,0.25,0.067c0.074-0.042,0.159-0.067,0.25-0.067h0.5
		c0.091,0,0.176,0.024,0.25,0.067c0.074-0.042,0.159-0.067,0.25-0.067h0.5c0.091,0,0.176,0.024,0.25,0.067
		c0.074-0.042,0.159-0.067,0.25-0.067h0.5c0.091,0,0.176,0.024,0.25,0.067c0.074-0.042,0.159-0.067,0.25-0.067h0.5
		c0.091,0,0.176,0.024,0.25,0.067c0.074-0.042,0.159-0.067,0.25-0.067h0.5c0.091,0,0.176,0.024,0.25,0.067
		c0.074-0.042,0.159-0.067,0.25-0.067h0.5c0.091,0,0.176,0.024,0.25,0.067c0.074-0.042,0.159-0.067,0.25-0.067h0.5
		c0.091,0,0.176,0.024,0.25,0.067c0.074-0.042,0.159-0.067,0.25-0.067h0.5c0.091,0,0.176,0.024,0.25,0.067
		c0.074-0.042,0.159-0.067,0.25-0.067h0.5c0.091,0,0.176,0.024,0.25,0.067c0.074-0.042,0.159-0.067,0.25-0.067h0.5
		c0.091,0,0.176,0.024,0.25,0.067c0.074-0.042,0.159-0.067,0.25-0.067h0.5c0.091,0,0.176,0.024,0.25,0.067
		c0.074-0.042,0.159-0.067,0.25-0.067h0.5c0.091,0,0.176,0.024,0.25,0.067c0.074-0.042,0.159-0.067,0.25-0.067h0.5
		c0.091,0,0.176,0.024,0.25,0.067c0.074-0.042,0.159-0.067,0.25-0.067h0.5c0.091,0,0.176,0.024,0.25,0.067
		c0.074-0.042,0.159-0.067,0.25-0.067h0.5c0.091,0,0.176,0.024,0.25,0.067c0.074-0.042,0.159-0.067,0.25-0.067h0.5
		c0.091,0,0.176,0.024,0.25,0.067c0.074-0.042,0.159-0.067,0.25-0.067h0.5c0.091,0,0.176,0.024,0.25,0.067
		c0.074-0.042,0.159-0.067,0.25-0.067h0.5c0.091,0,0.176,0.024,0.25,0.067c0.074-0.042,0.159-0.067,0.25-0.067h0.5
		c0.091,0,0.176,0.024,0.25,0.067c0.074-0.042,0.159-0.067,0.25-0.067h0.5c0.091,0,0.176,0.024,0.25,0.067
		c0.074-0.042,0.159-0.067,0.25-0.067h0.5c0.091,0,0.176,0.024,0.25,0.067c0.074-0.042,0.159-0.067,0.25-0.067h0.5
		c0.091,0,0.176,0.024,0.25,0.067c0.074-0.042,0.159-0.067,0.25-0.067h0.5c0.091,0,0.177,0.024,0.25,0.067
		c0.073-0.042,0.159-0.067,0.25-0.067h0.5c0.091,0,0.176,0.024,0.25,0.067c0.074-0.042,0.159-0.067,0.25-0.067h0.5
		c0.091,0,0.176,0.024,0.25,0.067c0.074-0.042,0.159-0.067,0.25-0.067h0.5c0.091,0,0.176,0.024,0.25,0.067
		c0.074-0.042,0.159-0.067,0.25-0.067h0.5c0.091,0,0.176,0.024,0.25,0.067c0.074-0.042,0.159-0.067,0.25-0.067h0.5
		c0.091,0,0.176,0.024,0.25,0.067c0.074-0.042,0.159-0.067,0.25-0.067h0.5c0.091,0,0.176,0.024,0.25,0.067
		c0.074-0.042,0.159-0.067,0.25-0.067h0.5c0.091,0,0.176,0.024,0.25,0.067c0.074-0.042,0.159-0.067,0.25-0.067h0.5
		c0.091,0,0.176,0.024,0.25,0.067c0.074-0.042,0.159-0.067,0.25-0.067h0.5c0.091,0,0.176,0.024,0.25,0.067
		c0.074-0.042,0.159-0.067,0.25-0.067h0.5c0.091,0,0.176,0.024,0.25,0.067c0.074-0.042,0.159-0.067,0.25-0.067h0.5
		c0.091,0,0.176,0.024,0.25,0.067c0.074-0.042,0.159-0.067,0.25-0.067h0.5c0.091,0,0.176,0.024,0.25,0.067
		c0.074-0.042,0.159-0.067,0.25-0.067h0.5c0.091,0,0.176,0.024,0.25,0.067c0.074-0.042,0.159-0.067,0.25-0.067h0.5
		c0.091,0,0.176,0.024,0.25,0.067c0.074-0.042,0.159-0.067,0.25-0.067h0.5c0.091,0,0.176,0.024,0.25,0.067
		c0.074-0.042,0.159-0.067,0.25-0.067h0.5c0.091,0,0.176,0.024,0.25,0.067c0.074-0.042,0.159-0.067,0.25-0.067h0.5
		c0.091,0,0.176,0.024,0.25,0.067c0.074-0.042,0.159-0.067,0.25-0.067h0.5c0.091,0,0.176,0.024,0.25,0.067
		c0.074-0.042,0.159-0.067,0.25-0.067h0.5c0.091,0,0.176,0.024,0.25,0.067c0.074-0.042,0.159-0.067,0.25-0.067h0.5
		c0.091,0,0.176,0.024,0.25,0.067c0.074-0.042,0.159-0.067,0.25-0.067h0.5c0.091,0,0.176,0.024,0.25,0.067
		c0.074-0.042,0.159-0.067,0.25-0.067h0.5c0.091,0,0.176,0.024,0.25,0.067c0.074-0.042,0.159-0.067,0.25-0.067h0.5
		c0.091,0,0.176,0.024,0.25,0.067c0.074-0.042,0.159-0.067,0.25-0.067h0.5c0.091,0,0.176,0.024,0.25,0.067
		c0.074-0.042,0.159-0.067,0.25-0.067h0.5c0.091,0,0.176,0.024,0.25,0.067c0.074-0.042,0.159-0.067,0.25-0.067h0.5
		c0.091,0,0.176,0.024,0.25,0.067c0.074-0.042,0.159-0.067,0.25-0.067h0.5c0.091,0,0.176,0.024,0.25,0.067
		c0.074-0.042,0.159-0.067,0.25-0.067h0.5c0.091,0,0.176,0.024,0.25,0.067c0.074-0.042,0.159-0.067,0.25-0.067h0.5
		c0.091,0,0.176,0.024,0.25,0.067c0.074-0.042,0.159-0.067,0.25-0.067h0.5c0.091,0,0.176,0.024,0.25,0.067
		c0.074-0.042,0.159-0.067,0.25-0.067h0.5c0.091,0,0.176,0.024,0.25,0.067c0.074-0.042,0.159-0.067,0.25-0.067h0.5
		c0.091,0,0.176,0.024,0.25,0.067c0.074-0.042,0.159-0.067,0.25-0.067h0.5c0.091,0,0.176,0.024,0.25,0.067
		c0.074-0.042,0.159-0.067,0.25-0.067h0.5c0.091,0,0.176,0.024,0.25,0.067c0.074-0.042,0.159-0.067,0.25-0.067h0.5
		c0.091,0,0.176,0.024,0.25,0.067c0.074-0.042,0.159-0.067,0.25-0.067h0.5c0.091,0,0.176,0.024,0.25,0.067
		c0.074-0.042,0.159-0.067,0.25-0.067h0.5c0.091,0,0.176,0.024,0.25,0.067c0.074-0.042,0.159-0.067,0.25-0.067h0.5
		c0.091,0,0.176,0.024,0.25,0.067c0.074-0.042,0.159-0.067,0.25-0.067h0.5c0.175,0,0.329,0.09,0.418,0.226
		c0.099-0.015,0.193,0.02,0.281,0.074l0.425,0.263c0.077,0.048,0.137,0.113,0.177,0.188c0.085,0.002,0.17,0.027,0.248,0.075
		l0.425,0.263c0.078,0.048,0.138,0.114,0.178,0.188c0.085,0.002,0.17,0.027,0.248,0.075l0.425,0.263
		c0.078,0.048,0.138,0.114,0.178,0.188c0.085,0.002,0.17,0.027,0.248,0.075l0.425,0.263c0.078,0.048,0.138,0.114,0.178,0.188
		c0.085,0.002,0.17,0.027,0.248,0.075l0.425,0.263c0.078,0.048,0.138,0.114,0.178,0.188c0.085,0.002,0.17,0.027,0.248,0.075
		l0.41,0.253l0.328-0.21c0.077-0.049,0.162-0.074,0.247-0.078c0.039-0.075,0.098-0.142,0.174-0.191l0.421-0.27
		c0.077-0.049,0.162-0.075,0.247-0.078c0.039-0.075,0.098-0.142,0.174-0.191l0.421-0.27c0.077-0.049,0.162-0.074,0.247-0.078
		c0.039-0.075,0.098-0.142,0.174-0.191l0.421-0.27c0.077-0.049,0.162-0.074,0.247-0.078c0.039-0.076,0.098-0.142,0.175-0.191
		l0.421-0.269c0.077-0.049,0.161-0.074,0.246-0.078c0.039-0.076,0.098-0.142,0.175-0.191l0.421-0.269
		c0.095-0.061,0.204-0.086,0.309-0.077c0.091-0.123,0.237-0.203,0.402-0.203h0.5c0.091,0,0.176,0.024,0.25,0.067
		c0.074-0.042,0.159-0.067,0.25-0.067h0.5c0.091,0,0.176,0.024,0.25,0.067c0.074-0.042,0.159-0.067,0.25-0.067h0.5
		c0.091,0,0.176,0.024,0.25,0.067c0.074-0.042,0.159-0.067,0.25-0.067h0.5c0.091,0,0.176,0.024,0.25,0.067
		c0.074-0.042,0.159-0.067,0.25-0.067h0.5c0.091,0,0.176,0.024,0.25,0.067c0.074-0.042,0.159-0.067,0.25-0.067h0.5
		c0.091,0,0.176,0.024,0.25,0.067c0.074-0.042,0.159-0.067,0.25-0.067h0.5c0.091,0,0.176,0.024,0.25,0.067
		c0.074-0.042,0.159-0.067,0.25-0.067h0.5c0.091,0,0.176,0.024,0.25,0.067c0.074-0.042,0.159-0.067,0.25-0.067h0.5
		c0.091,0,0.176,0.024,0.25,0.067c0.074-0.042,0.159-0.067,0.25-0.067h0.5c0.091,0,0.176,0.024,0.25,0.067
		c0.074-0.042,0.159-0.067,0.25-0.067h0.5c0.091,0,0.176,0.024,0.25,0.067c0.074-0.042,0.159-0.067,0.25-0.067h0.5
		c0.091,0,0.176,0.024,0.25,0.067c0.074-0.042,0.159-0.067,0.25-0.067h0.5c0.091,0,0.176,0.024,0.25,0.067
		c0.074-0.042,0.159-0.067,0.25-0.067h0.5c0.091,0,0.176,0.024,0.25,0.067c0.074-0.042,0.159-0.067,0.25-0.067h0.5
		c0.091,0,0.176,0.024,0.25,0.067c0.074-0.042,0.159-0.067,0.25-0.067h0.5c0.091,0,0.176,0.024,0.25,0.067
		c0.074-0.042,0.159-0.067,0.25-0.067h0.5c0.091,0,0.176,0.024,0.25,0.067c0.074-0.042,0.159-0.067,0.25-0.067h0.5
		c0.091,0,0.176,0.024,0.25,0.067c0.074-0.042,0.159-0.067,0.25-0.067h0.5c0.091,0,0.176,0.024,0.25,0.067
		c0.074-0.042,0.159-0.067,0.25-0.067h0.5c0.091,0,0.176,0.024,0.25,0.067c0.074-0.042,0.159-0.067,0.25-0.067h0.5
		c0.091,0,0.176,0.024,0.25,0.067c0.074-0.042,0.159-0.067,0.25-0.067h0.5c0.091,0,0.176,0.024,0.25,0.067
		c0.074-0.042,0.159-0.067,0.25-0.067h0.5c0.091,0,0.176,0.024,0.25,0.067c0.074-0.042,0.159-0.067,0.25-0.067h0.5
		c0.091,0,0.176,0.024,0.25,0.067c0.074-0.042,0.159-0.067,0.25-0.067h0.5c0.091,0,0.176,0.024,0.25,0.067
		c0.074-0.042,0.159-0.067,0.25-0.067h0.5c0.091,0,0.176,0.024,0.25,0.067c0.074-0.042,0.159-0.067,0.25-0.067h0.5
		c0.091,0,0.176,0.024,0.25,0.067c0.074-0.042,0.159-0.067,0.25-0.067h0.5c0.091,0,0.176,0.024,0.25,0.067
		c0.074-0.042,0.159-0.067,0.25-0.067h0.5c0.091,0,0.176,0.024,0.25,0.067c0.074-0.042,0.159-0.067,0.25-0.067h0.5
		c0.091,0,0.176,0.024,0.25,0.067c0.074-0.042,0.159-0.067,0.25-0.067h0.5c0.091,0,0.176,0.024,0.25,0.067
		c0.074-0.042,0.159-0.067,0.25-0.067h0.5c0.091,0,0.176,0.024,0.25,0.067c0.074-0.042,0.159-0.067,0.25-0.067h0.5
		c0.091,0,0.176,0.024,0.25,0.067c0.074-0.042,0.159-0.067,0.25-0.067h0.5c0.091,0,0.176,0.024,0.25,0.067
		c0.074-0.042,0.159-0.067,0.25-0.067h0.5c0.091,0,0.176,0.024,0.25,0.067c0.074-0.042,0.159-0.067,0.25-0.067h0.5
		c0.091,0,0.176,0.024,0.25,0.067c0.074-0.042,0.159-0.067,0.25-0.067h0.5c0.091,0,0.176,0.024,0.25,0.067
		c0.074-0.042,0.159-0.067,0.25-0.067h0.5c0.091,0,0.176,0.024,0.25,0.067c0.074-0.042,0.159-0.067,0.25-0.067h0.5
		c0.091,0,0.176,0.024,0.25,0.067c0.074-0.042,0.159-0.067,0.25-0.067h0.5c0.091,0,0.176,0.024,0.25,0.067
		c0.074-0.042,0.159-0.067,0.25-0.067h0.5c0.091,0,0.176,0.024,0.25,0.067c0.074-0.042,0.159-0.067,0.25-0.067h0.5
		c0.091,0,0.176,0.024,0.25,0.067c0.074-0.042,0.159-0.067,0.25-0.067h0.5c0.091,0,0.176,0.024,0.25,0.067
		c0.074-0.042,0.159-0.067,0.25-0.067h0.5c0.091,0,0.176,0.024,0.25,0.067c0.074-0.042,0.159-0.067,0.25-0.067h0.5
		c0.091,0,0.176,0.024,0.25,0.067c0.074-0.042,0.159-0.067,0.25-0.067h0.5c0.091,0,0.176,0.024,0.25,0.067
		c0.074-0.042,0.159-0.067,0.25-0.067h0.5c0.091,0,0.176,0.024,0.25,0.067c0.074-0.042,0.159-0.067,0.25-0.067h0.5
		c0.091,0,0.176,0.024,0.25,0.067c0.074-0.042,0.159-0.067,0.25-0.067h0.5c0.091,0,0.176,0.024,0.25,0.067
		c0.074-0.042,0.159-0.067,0.25-0.067h0.5c0.091,0,0.176,0.024,0.25,0.067c0.074-0.042,0.159-0.067,0.25-0.067h0.5
		c0.091,0,0.176,0.024,0.25,0.067c0.074-0.042,0.159-0.067,0.25-0.067h0.5c0.091,0,0.176,0.024,0.25,0.067
		c0.074-0.042,0.159-0.067,0.25-0.067h0.5c0.091,0,0.176,0.024,0.25,0.067c0.074-0.042,0.159-0.067,0.25-0.067h0.5
		c0.091,0,0.176,0.024,0.25,0.067c0.074-0.042,0.159-0.067,0.25-0.067h0.5c0.091,0,0.176,0.024,0.25,0.067
		c0.074-0.042,0.159-0.067,0.25-0.067h0.5c0.091,0,0.176,0.024,0.25,0.067c0.074-0.042,0.159-0.067,0.25-0.067h0.5
		c0.091,0,0.176,0.024,0.25,0.067c0.074-0.042,0.159-0.067,0.25-0.067h0.5c0.091,0,0.176,0.024,0.25,0.067
		c0.074-0.042,0.159-0.067,0.25-0.067h0.5c0.091,0,0.176,0.024,0.25,0.067c0.074-0.042,0.159-0.067,0.25-0.067h0.5
		c0.091,0,0.176,0.024,0.25,0.067c0.074-0.042,0.159-0.067,0.25-0.067h0.5c0.091,0,0.176,0.024,0.25,0.067
		c0.074-0.042,0.159-0.067,0.25-0.067h0.5c0.091,0,0.176,0.024,0.25,0.067c0.074-0.042,0.159-0.067,0.25-0.067h0.5
		c0.091,0,0.176,0.024,0.25,0.067c0.074-0.042,0.159-0.067,0.25-0.067h0.5c0.091,0,0.176,0.024,0.25,0.067
		c0.074-0.042,0.159-0.067,0.25-0.067h0.5c0.091,0,0.176,0.024,0.25,0.067c0.074-0.042,0.159-0.067,0.25-0.067h0.5
		c0.091,0,0.176,0.024,0.25,0.067c0.074-0.042,0.159-0.067,0.25-0.067h0.5c0.091,0,0.176,0.024,0.25,0.067
		c0.074-0.042,0.159-0.067,0.25-0.067h0.5c0.091,0,0.176,0.024,0.25,0.067c0.074-0.042,0.159-0.067,0.25-0.067h0.5
		c0.091,0,0.176,0.024,0.25,0.067c0.074-0.042,0.159-0.067,0.25-0.067h0.5c0.091,0,0.176,0.024,0.25,0.067
		c0.074-0.042,0.159-0.067,0.25-0.067h0.5c0.091,0,0.176,0.024,0.25,0.067c0.074-0.042,0.159-0.067,0.25-0.067h0.5
		c0.091,0,0.176,0.024,0.25,0.067c0.074-0.042,0.159-0.067,0.25-0.067h0.5c0.091,0,0.176,0.024,0.25,0.067
		c0.074-0.042,0.159-0.067,0.25-0.067h0.5c0.091,0,0.176,0.024,0.25,0.067c0.074-0.042,0.159-0.067,0.25-0.067h0.5
		c0.091,0,0.176,0.024,0.25,0.067c0.074-0.042,0.159-0.067,0.25-0.067h0.5c0.091,0,0.176,0.024,0.25,0.067
		c0.074-0.042,0.159-0.067,0.25-0.067h0.5c0.091,0,0.176,0.024,0.25,0.067c0.074-0.042,0.159-0.067,0.25-0.067h0.5
		c0.091,0,0.176,0.024,0.25,0.067c0.074-0.042,0.159-0.067,0.25-0.067h0.5c0.091,0,0.176,0.024,0.25,0.067
		c0.074-0.042,0.159-0.067,0.25-0.067h0.5c0.091,0,0.176,0.024,0.25,0.067c0.074-0.042,0.159-0.067,0.25-0.067h0.5
		c0.091,0,0.176,0.024,0.25,0.067c0.074-0.042,0.159-0.067,0.25-0.067h0.5c0.091,0,0.176,0.024,0.25,0.067
		c0.074-0.042,0.159-0.067,0.25-0.067h0.5c0.091,0,0.176,0.024,0.25,0.067c0.074-0.042,0.159-0.067,0.25-0.067h0.5
		c0.091,0,0.176,0.024,0.25,0.067c0.074-0.042,0.159-0.067,0.25-0.067h0.5c0.091,0,0.176,0.024,0.25,0.067
		c0.074-0.042,0.159-0.067,0.25-0.067h0.5c0.091,0,0.176,0.024,0.25,0.067c0.074-0.042,0.159-0.067,0.25-0.067h0.5
		c0.091,0,0.176,0.024,0.25,0.067c0.074-0.042,0.159-0.067,0.25-0.067h0.5c0.091,0,0.176,0.024,0.25,0.067
		c0.074-0.042,0.159-0.067,0.25-0.067h0.5c0.091,0,0.176,0.024,0.25,0.067c0.074-0.042,0.159-0.067,0.25-0.067h0.5
		c0.091,0,0.176,0.024,0.25,0.067c0.074-0.042,0.159-0.067,0.25-0.067h0.5c0.091,0,0.176,0.024,0.25,0.067
		c0.074-0.042,0.159-0.067,0.25-0.067h0.5c0.091,0,0.176,0.024,0.25,0.067c0.074-0.042,0.159-0.067,0.25-0.067h0.5
		c0.091,0,0.176,0.024,0.25,0.067c0.074-0.042,0.159-0.067,0.25-0.067h0.5c0.091,0,0.176,0.024,0.25,0.067
		c0.074-0.042,0.159-0.067,0.25-0.067h0.5c0.091,0,0.176,0.024,0.25,0.067c0.074-0.042,0.159-0.067,0.25-0.067h0.5
		c0.091,0,0.176,0.024,0.25,0.067c0.074-0.042,0.159-0.067,0.25-0.067h0.5c0.091,0,0.176,0.024,0.25,0.067
		c0.074-0.042,0.159-0.067,0.25-0.067h0.5c0.091,0,0.176,0.024,0.25,0.067c0.074-0.042,0.159-0.067,0.25-0.067h0.5
		c0.091,0,0.176,0.024,0.25,0.067c0.074-0.042,0.159-0.067,0.25-0.067h0.5c0.091,0,0.176,0.024,0.25,0.067
		c0.074-0.042,0.159-0.067,0.25-0.067h0.5c0.091,0,0.176,0.024,0.25,0.067c0.074-0.042,0.159-0.067,0.25-0.067h0.5
		c0.091,0,0.176,0.024,0.25,0.067c0.074-0.042,0.159-0.067,0.25-0.067h0.5c0.091,0,0.176,0.024,0.25,0.067
		c0.074-0.042,0.159-0.067,0.25-0.067h0.5c0.091,0,0.176,0.024,0.25,0.067c0.074-0.042,0.159-0.067,0.25-0.067h0.5
		c0.091,0,0.176,0.024,0.25,0.067c0.073-0.042,0.159-0.067,0.25-0.067h0.5c0.091,0,0.176,0.024,0.25,0.067
		c0.074-0.042,0.159-0.067,0.25-0.067h0.5c0.091,0,0.176,0.024,0.25,0.067c0.074-0.042,0.159-0.067,0.25-0.067h0.5
		c0.091,0,0.176,0.024,0.25,0.067c0.074-0.042,0.159-0.067,0.25-0.067h0.5c0.091,0,0.176,0.024,0.25,0.067
		c0.074-0.042,0.159-0.067,0.25-0.067h0.5c0.091,0,0.176,0.024,0.25,0.067c0.074-0.042,0.159-0.067,0.25-0.067h0.5
		c0.091,0,0.176,0.024,0.25,0.067c0.074-0.042,0.159-0.067,0.25-0.067h0.5c0.091,0,0.176,0.024,0.25,0.067
		c0.074-0.042,0.159-0.067,0.25-0.067h0.5c0.091,0,0.176,0.024,0.25,0.067c0.074-0.042,0.159-0.067,0.25-0.067h0.5
		c0.091,0,0.176,0.024,0.25,0.067c0.074-0.042,0.159-0.067,0.25-0.067h0.5c0.091,0,0.176,0.024,0.25,0.067
		c0.074-0.042,0.159-0.067,0.25-0.067h0.5c0.091,0,0.176,0.024,0.25,0.067c0.074-0.042,0.159-0.067,0.25-0.067h0.5
		c0.091,0,0.176,0.024,0.25,0.067c0.074-0.042,0.159-0.067,0.25-0.067h0.5c0.091,0,0.176,0.024,0.25,0.067
		c0.074-0.042,0.159-0.067,0.25-0.067h0.5c0.091,0,0.176,0.024,0.25,0.067c0.074-0.042,0.159-0.067,0.25-0.067h0.5
		c0.091,0,0.176,0.024,0.25,0.067c0.074-0.042,0.159-0.067,0.25-0.067h0.5c0.091,0,0.176,0.024,0.25,0.067
		c0.074-0.042,0.159-0.067,0.25-0.067h0.5c0.091,0,0.176,0.024,0.25,0.067c0.074-0.042,0.159-0.067,0.25-0.067h0.5
		c0.091,0,0.176,0.024,0.25,0.067c0.074-0.042,0.159-0.067,0.25-0.067h0.5c0.091,0,0.176,0.024,0.25,0.067
		c0.074-0.042,0.159-0.067,0.25-0.067h0.5c0.091,0,0.176,0.024,0.25,0.067c0.074-0.042,0.159-0.067,0.25-0.067h0.5
		c0.091,0,0.176,0.024,0.25,0.067c0.074-0.042,0.159-0.067,0.25-0.067h0.5c0.091,0,0.176,0.024,0.25,0.067
		c0.074-0.042,0.159-0.067,0.25-0.067h0.5c0.091,0,0.176,0.024,0.25,0.067c0.074-0.042,0.159-0.067,0.25-0.067h0.5
		c0.091,0,0.176,0.024,0.25,0.067c0.074-0.042,0.159-0.067,0.25-0.067h0.5c0.091,0,0.176,0.024,0.25,0.067
		c0.074-0.042,0.159-0.067,0.25-0.067h0.5c0.091,0,0.176,0.024,0.25,0.067c0.074-0.042,0.159-0.067,0.25-0.067h0.5
		c0.091,0,0.176,0.024,0.25,0.067c0.074-0.042,0.159-0.067,0.25-0.067h0.5c0.091,0,0.176,0.024,0.25,0.067
		c0.074-0.042,0.159-0.067,0.25-0.067h0.5c0.091,0,0.176,0.024,0.25,0.067c0.074-0.042,0.159-0.067,0.25-0.067h0.5
		c0.091,0,0.176,0.024,0.25,0.067c0.074-0.042,0.159-0.067,0.25-0.067h0.5c0.091,0,0.176,0.024,0.25,0.067
		c0.074-0.042,0.159-0.067,0.25-0.067h0.5c0.091,0,0.176,0.024,0.25,0.067c0.074-0.042,0.159-0.067,0.25-0.067h0.5
		c0.091,0,0.176,0.024,0.25,0.067c0.074-0.042,0.159-0.067,0.25-0.067h0.5c0.091,0,0.176,0.024,0.25,0.067
		c0.074-0.042,0.159-0.067,0.25-0.067h0.5c0.091,0,0.176,0.024,0.25,0.067c0.074-0.042,0.159-0.067,0.25-0.067h0.5
		c0.091,0,0.176,0.024,0.25,0.067c0.074-0.042,0.159-0.067,0.25-0.067h0.5c0.091,0,0.176,0.024,0.25,0.067
		c0.074-0.042,0.159-0.067,0.25-0.067h0.5c0.091,0,0.176,0.024,0.25,0.067c0.074-0.042,0.159-0.067,0.25-0.067h0.5
		c0.091,0,0.176,0.024,0.25,0.067c0.074-0.042,0.159-0.067,0.25-0.067h0.5c0.091,0,0.176,0.024,0.25,0.067
		c0.074-0.042,0.159-0.067,0.25-0.067h0.5c0.091,0,0.176,0.024,0.25,0.067c0.074-0.042,0.159-0.067,0.25-0.067h0.5
		c0.091,0,0.176,0.024,0.25,0.067c0.074-0.042,0.159-0.067,0.25-0.067h0.5c0.091,0,0.176,0.024,0.25,0.067
		c0.074-0.042,0.159-0.067,0.25-0.067h0.5c0.091,0,0.176,0.024,0.25,0.067c0.074-0.042,0.159-0.067,0.25-0.067h0.5
		c0.091,0,0.176,0.024,0.25,0.067c0.074-0.042,0.159-0.067,0.25-0.067h0.5c0.091,0,0.176,0.024,0.25,0.067
		c0.074-0.042,0.159-0.067,0.25-0.067h0.5c0.091,0,0.176,0.024,0.25,0.067c0.074-0.042,0.159-0.067,0.25-0.067h0.5
		c0.091,0,0.176,0.024,0.25,0.067c0.074-0.042,0.159-0.067,0.25-0.067h0.5c0.091,0,0.176,0.024,0.25,0.067
		c0.074-0.042,0.159-0.067,0.25-0.067h0.5c0.091,0,0.176,0.024,0.25,0.067c0.074-0.042,0.159-0.067,0.25-0.067h0.5
		c0.091,0,0.176,0.024,0.25,0.067c0.074-0.042,0.159-0.067,0.25-0.067h0.5c0.091,0,0.176,0.024,0.25,0.067
		c0.074-0.042,0.159-0.067,0.25-0.067h0.5c0.091,0,0.176,0.024,0.25,0.067c0.074-0.042,0.159-0.067,0.25-0.067h0.5
		c0.091,0,0.176,0.024,0.25,0.067c0.074-0.042,0.159-0.067,0.25-0.067h0.5c0.091,0,0.176,0.024,0.25,0.067
		c0.074-0.042,0.159-0.067,0.25-0.067h0.5c0.091,0,0.176,0.024,0.25,0.067c0.074-0.042,0.159-0.067,0.25-0.067h0.5
		c0.091,0,0.176,0.024,0.25,0.067c0.074-0.042,0.159-0.067,0.25-0.067h0.5c0.091,0,0.176,0.024,0.25,0.067
		c0.074-0.042,0.159-0.067,0.25-0.067h0.5c0.091,0,0.176,0.024,0.25,0.067c0.074-0.042,0.159-0.067,0.25-0.067h0.5
		c0.091,0,0.176,0.024,0.25,0.067c0.074-0.042,0.159-0.067,0.25-0.067h0.5c0.091,0,0.176,0.024,0.25,0.067
		c0.074-0.042,0.159-0.067,0.25-0.067h0.5c0.091,0,0.176,0.024,0.25,0.067c0.074-0.042,0.159-0.067,0.25-0.067h0.5
		c0.091,0,0.176,0.024,0.25,0.067c0.074-0.042,0.159-0.067,0.25-0.067h0.5c0.091,0,0.176,0.024,0.25,0.067
		c0.074-0.042,0.159-0.067,0.25-0.067h0.5c0.091,0,0.176,0.024,0.25,0.067c0.074-0.042,0.159-0.067,0.25-0.067h0.5
		c0.091,0,0.176,0.024,0.25,0.067c0.074-0.042,0.159-0.067,0.25-0.067h0.5c0.091,0,0.176,0.024,0.25,0.067
		c0.074-0.042,0.159-0.067,0.25-0.067h0.5c0.091,0,0.176,0.024,0.25,0.067c0.074-0.042,0.159-0.067,0.25-0.067h0.5
		c0.091,0,0.176,0.024,0.25,0.067c0.074-0.042,0.159-0.067,0.25-0.067h0.5c0.091,0,0.176,0.024,0.25,0.067
		c0.074-0.042,0.159-0.067,0.25-0.067h0.5c0.091,0,0.176,0.024,0.25,0.067c0.074-0.042,0.159-0.067,0.25-0.067h0.5
		c0.091,0,0.176,0.024,0.25,0.067c0.074-0.042,0.159-0.067,0.25-0.067h0.5c0.091,0,0.176,0.024,0.25,0.067
		c0.074-0.042,0.159-0.067,0.25-0.067h0.5c0.091,0,0.176,0.024,0.25,0.067c0.074-0.042,0.159-0.067,0.25-0.067h0.5
		c0.091,0,0.176,0.024,0.25,0.067c0.074-0.042,0.159-0.067,0.25-0.067h0.5c0.091,0,0.176,0.024,0.25,0.067
		c0.074-0.042,0.159-0.067,0.25-0.067h0.5c0.091,0,0.176,0.024,0.25,0.067c0.074-0.042,0.159-0.067,0.25-0.067h0.5
		c0.091,0,0.176,0.024,0.25,0.067c0.074-0.042,0.159-0.067,0.25-0.067h0.5c0.091,0,0.176,0.024,0.25,0.067
		c0.074-0.042,0.159-0.067,0.25-0.067h0.5c0.091,0,0.176,0.024,0.25,0.067c0.074-0.042,0.159-0.067,0.25-0.067h0.5
		c0.091,0,0.176,0.024,0.25,0.067c0.074-0.042,0.159-0.067,0.25-0.067h0.5c0.091,0,0.176,0.024,0.25,0.067
		c0.074-0.042,0.159-0.067,0.25-0.067h0.5c0.091,0,0.176,0.024,0.25,0.067c0.073-0.042,0.159-0.067,0.25-0.067h0.5
		c0.091,0,0.176,0.024,0.25,0.067c0.074-0.042,0.159-0.067,0.25-0.067h0.5c0.091,0,0.176,0.024,0.25,0.067
		c0.074-0.042,0.159-0.067,0.25-0.067h0.5c0.091,0,0.176,0.024,0.25,0.067c0.074-0.042,0.159-0.067,0.25-0.067h0.5
		c0.091,0,0.176,0.024,0.25,0.067c0.074-0.042,0.159-0.067,0.25-0.067h0.5c0.091,0,0.176,0.024,0.25,0.067
		c0.074-0.042,0.159-0.067,0.25-0.067h0.5c0.091,0,0.176,0.024,0.25,0.067c0.074-0.042,0.159-0.067,0.25-0.067h0.5
		c0.091,0,0.176,0.024,0.25,0.067c0.074-0.042,0.159-0.067,0.25-0.067h0.5c0.091,0,0.176,0.024,0.25,0.067
		c0.074-0.042,0.159-0.067,0.25-0.067h0.5c0.091,0,0.176,0.024,0.25,0.067c0.074-0.042,0.159-0.067,0.25-0.067h0.5
		c0.091,0,0.176,0.024,0.25,0.067c0.074-0.042,0.159-0.067,0.25-0.067h0.5c0.091,0,0.176,0.024,0.25,0.067
		c0.074-0.042,0.159-0.067,0.25-0.067h0.5c0.091,0,0.176,0.024,0.25,0.067c0.074-0.042,0.159-0.067,0.25-0.067h0.5
		c0.091,0,0.176,0.024,0.25,0.067c0.074-0.042,0.159-0.067,0.25-0.067h0.5c0.091,0,0.176,0.024,0.25,0.067
		c0.074-0.042,0.159-0.067,0.25-0.067h0.5c0.091,0,0.176,0.024,0.25,0.067c0.074-0.042,0.159-0.067,0.25-0.067h0.5
		c0.091,0,0.176,0.024,0.25,0.067c0.074-0.042,0.159-0.067,0.25-0.067h0.5c0.091,0,0.176,0.024,0.25,0.067
		c0.074-0.042,0.159-0.067,0.25-0.067h0.5c0.091,0,0.176,0.024,0.25,0.067c0.074-0.042,0.159-0.067,0.25-0.067h0.5
		c0.091,0,0.176,0.024,0.25,0.067c0.074-0.042,0.159-0.067,0.25-0.067h0.5c0.091,0,0.176,0.024,0.25,0.067
		c0.074-0.042,0.159-0.067,0.25-0.067h0.5c0.091,0,0.176,0.024,0.25,0.067c0.074-0.042,0.159-0.067,0.25-0.067h0.5
		c0.091,0,0.176,0.024,0.25,0.067c0.074-0.042,0.159-0.067,0.25-0.067h0.5c0.091,0,0.176,0.024,0.25,0.067
		c0.074-0.042,0.159-0.067,0.25-0.067h0.5c0.091,0,0.176,0.024,0.25,0.067c0.074-0.042,0.159-0.067,0.25-0.067h0.5
		c0.091,0,0.176,0.024,0.25,0.067c0.074-0.042,0.159-0.067,0.25-0.067h0.5c0.091,0,0.176,0.024,0.25,0.067
		c0.074-0.042,0.159-0.067,0.25-0.067h0.5c0.091,0,0.176,0.024,0.25,0.067c0.074-0.042,0.159-0.067,0.25-0.067h0.5
		c0.091,0,0.176,0.024,0.25,0.067c0.074-0.042,0.159-0.067,0.25-0.067h0.5c0.091,0,0.176,0.024,0.25,0.067
		c0.074-0.042,0.159-0.067,0.25-0.067h0.5c0.091,0,0.176,0.024,0.25,0.067c0.074-0.042,0.159-0.067,0.25-0.067h0.5
		c0.091,0,0.176,0.024,0.25,0.067c0.074-0.042,0.159-0.067,0.25-0.067h0.5c0.091,0,0.176,0.024,0.25,0.067
		c0.074-0.042,0.159-0.067,0.25-0.067h0.5c0.091,0,0.176,0.024,0.25,0.067c0.074-0.042,0.159-0.067,0.25-0.067h0.5
		c0.091,0,0.176,0.024,0.25,0.067c0.074-0.042,0.159-0.067,0.25-0.067h0.5c0.091,0,0.176,0.024,0.25,0.067
		c0.074-0.042,0.159-0.067,0.25-0.067h0.5c0.091,0,0.176,0.024,0.25,0.067c0.074-0.042,0.159-0.067,0.25-0.067h0.5
		c0.091,0,0.176,0.024,0.25,0.067c0.074-0.042,0.159-0.067,0.25-0.067h0.5c0.091,0,0.176,0.024,0.25,0.067
		c0.074-0.042,0.159-0.067,0.25-0.067h0.5c0.091,0,0.176,0.024,0.25,0.067c0.074-0.042,0.159-0.067,0.25-0.067h0.5
		c0.091,0,0.176,0.024,0.25,0.067c0.074-0.042,0.159-0.067,0.25-0.067h0.5c0.091,0,0.176,0.024,0.25,0.067
		c0.074-0.042,0.159-0.067,0.25-0.067h0.5c0.091,0,0.176,0.024,0.25,0.067c0.074-0.042,0.159-0.067,0.25-0.067h0.5
		c0.091,0,0.176,0.024,0.25,0.067c0.074-0.042,0.159-0.067,0.25-0.067h0.5c0.091,0,0.176,0.024,0.25,0.067
		c0.074-0.042,0.159-0.067,0.25-0.067h0.5c0.091,0,0.176,0.024,0.25,0.067c0.074-0.042,0.159-0.067,0.25-0.067h0.5
		c0.091,0,0.176,0.024,0.25,0.067c0.074-0.042,0.159-0.067,0.25-0.067h0.5c0.091,0,0.176,0.024,0.25,0.067
		c0.074-0.042,0.159-0.067,0.25-0.067h0.5c0.091,0,0.176,0.024,0.25,0.067c0.074-0.042,0.159-0.067,0.25-0.067h0.5
		c0.091,0,0.176,0.024,0.25,0.067c0.074-0.042,0.159-0.067,0.25-0.067h0.5c0.091,0,0.176,0.024,0.25,0.067
		c0.074-0.042,0.159-0.067,0.25-0.067h0.5c0.091,0,0.176,0.024,0.25,0.067c0.074-0.042,0.159-0.067,0.25-0.067h0.5
		c0.091,0,0.176,0.024,0.25,0.067c0.074-0.042,0.159-0.067,0.25-0.067h0.5c0.091,0,0.176,0.024,0.25,0.067
		c0.074-0.042,0.159-0.067,0.25-0.067h0.5c0.091,0,0.176,0.024,0.25,0.067c0.074-0.042,0.159-0.067,0.25-0.067h0.5
		c0.091,0,0.176,0.024,0.25,0.067c0.074-0.042,0.159-0.067,0.25-0.067h0.5c0.091,0,0.176,0.024,0.25,0.067
		c0.074-0.042,0.159-0.067,0.25-0.067h0.5c0.091,0,0.176,0.024,0.25,0.067c0.074-0.042,0.159-0.067,0.25-0.067h0.5
		c0.091,0,0.176,0.024,0.25,0.067c0.074-0.042,0.159-0.067,0.25-0.067h0.5c0.091,0,0.176,0.024,0.25,0.067
		c0.074-0.042,0.159-0.067,0.25-0.067h0.5c0.091,0,0.176,0.024,0.25,0.067c0.074-0.042,0.159-0.067,0.25-0.067h0.5
		c0.091,0,0.176,0.024,0.25,0.067c0.074-0.042,0.159-0.067,0.25-0.067h0.5c0.091,0,0.176,0.024,0.25,0.067
		c0.074-0.042,0.159-0.067,0.25-0.067h0.5c0.091,0,0.176,0.024,0.25,0.067c0.074-0.042,0.159-0.067,0.25-0.067h0.5
		c0.091,0,0.176,0.024,0.25,0.067c0.074-0.042,0.159-0.067,0.25-0.067h0.5c0.091,0,0.176,0.024,0.25,0.067
		c0.074-0.042,0.159-0.067,0.25-0.067h0.5c0.091,0,0.176,0.024,0.25,0.067c0.074-0.042,0.159-0.067,0.25-0.067h0.5
		c0.091,0,0.176,0.024,0.25,0.067c0.074-0.042,0.159-0.067,0.25-0.067h0.5c0.091,0,0.176,0.024,0.25,0.067
		c0.074-0.042,0.159-0.067,0.25-0.067h0.5c0.091,0,0.176,0.024,0.25,0.067c0.074-0.042,0.159-0.067,0.25-0.067h0.5
		c0.091,0,0.176,0.024,0.25,0.067c0.074-0.042,0.159-0.067,0.25-0.067h0.5c0.091,0,0.176,0.024,0.25,0.067
		c0.074-0.042,0.159-0.067,0.25-0.067h0.5c0.091,0,0.176,0.024,0.25,0.067c0.074-0.042,0.159-0.067,0.25-0.067h0.5
		c0.091,0,0.176,0.024,0.25,0.067c0.074-0.042,0.159-0.067,0.25-0.067h0.5c0.091,0,0.176,0.024,0.25,0.067
		c0.074-0.042,0.159-0.067,0.25-0.067h0.5c0.091,0,0.176,0.024,0.25,0.067c0.074-0.042,0.159-0.067,0.25-0.067h0.5
		c0.091,0,0.176,0.024,0.25,0.067c0.074-0.042,0.159-0.067,0.25-0.067h0.5c0.091,0,0.176,0.024,0.25,0.067
		c0.074-0.042,0.159-0.067,0.25-0.067h0.5c0.091,0,0.176,0.024,0.25,0.067c0.074-0.042,0.159-0.067,0.25-0.067h0.5
		c0.091,0,0.176,0.024,0.25,0.067c0.074-0.042,0.159-0.067,0.25-0.067h0.5c0.091,0,0.176,0.024,0.25,0.067
		c0.074-0.042,0.159-0.067,0.25-0.067h0.5c0.091,0,0.176,0.024,0.25,0.067c0.074-0.042,0.159-0.067,0.25-0.067h0.5
		c0.091,0,0.176,0.024,0.25,0.067c0.074-0.042,0.159-0.067,0.25-0.067h0.5c0.091,0,0.176,0.024,0.25,0.067
		c0.074-0.042,0.159-0.067,0.25-0.067h0.5c0.091,0,0.176,0.024,0.25,0.067c0.074-0.042,0.159-0.067,0.25-0.067h0.5
		c0.091,0,0.176,0.024,0.25,0.067c0.074-0.042,0.159-0.067,0.25-0.067h0.5c0.091,0,0.176,0.024,0.25,0.067
		c0.074-0.042,0.159-0.067,0.25-0.067h0.5c0.091,0,0.176,0.024,0.25,0.067c0.074-0.042,0.159-0.067,0.25-0.067h0.5
		c0.091,0,0.176,0.024,0.25,0.067c0.074-0.042,0.159-0.067,0.25-0.067h0.5c0.091,0,0.176,0.024,0.25,0.067
		c0.074-0.042,0.159-0.067,0.25-0.067h0.5c0.091,0,0.176,0.024,0.25,0.067c0.074-0.042,0.159-0.067,0.25-0.067h0.5
		c0.091,0,0.176,0.024,0.25,0.067c0.074-0.042,0.159-0.067,0.25-0.067h0.5c0.091,0,0.176,0.024,0.25,0.067
		c0.074-0.042,0.159-0.067,0.25-0.067h0.288c0.276,0,0.5,0.224,0.5,0.5c0,0.276-0.224,0.5-0.5,0.5h-0.288
		c-0.091,0-0.176-0.024-0.25-0.067c-0.074,0.042-0.159,0.067-0.25,0.067h-0.5c-0.091,0-0.176-0.024-0.25-0.067
		c-0.074,0.042-0.159,0.067-0.25,0.067h-0.5c-0.091,0-0.176-0.024-0.25-0.067c-0.074,0.042-0.159,0.067-0.25,0.067h-0.5
		c-0.091,0-0.176-0.024-0.25-0.067c-0.074,0.042-0.159,0.067-0.25,0.067h-0.5c-0.091,0-0.176-0.024-0.25-0.067
		c-0.074,0.042-0.159,0.067-0.25,0.067h-0.5c-0.091,0-0.176-0.024-0.25-0.067c-0.074,0.042-0.159,0.067-0.25,0.067h-0.5
		c-0.091,0-0.176-0.024-0.25-0.067c-0.074,0.042-0.159,0.067-0.25,0.067h-0.5c-0.091,0-0.176-0.024-0.25-0.067
		c-0.074,0.042-0.159,0.067-0.25,0.067h-0.5c-0.091,0-0.176-0.024-0.25-0.067c-0.074,0.042-0.159,0.067-0.25,0.067h-0.5
		c-0.091,0-0.176-0.024-0.25-0.067c-0.074,0.042-0.159,0.067-0.25,0.067h-0.5c-0.091,0-0.176-0.024-0.25-0.067
		c-0.074,0.042-0.159,0.067-0.25,0.067h-0.5c-0.091,0-0.176-0.024-0.25-0.067c-0.074,0.042-0.159,0.067-0.25,0.067h-0.5
		c-0.091,0-0.176-0.024-0.25-0.067c-0.074,0.042-0.159,0.067-0.25,0.067h-0.5c-0.091,0-0.176-0.024-0.25-0.067
		c-0.074,0.042-0.159,0.067-0.25,0.067h-0.5c-0.091,0-0.176-0.024-0.25-0.067c-0.074,0.042-0.159,0.067-0.25,0.067h-0.5
		c-0.091,0-0.176-0.024-0.25-0.067c-0.073,0.042-0.159,0.067-0.25,0.067h-0.5c-0.091,0-0.176-0.024-0.25-0.067
		c-0.074,0.042-0.159,0.067-0.25,0.067h-0.5c-0.091,0-0.176-0.024-0.25-0.067c-0.074,0.042-0.159,0.067-0.25,0.067h-0.5
		c-0.091,0-0.176-0.024-0.25-0.067c-0.074,0.042-0.159,0.067-0.25,0.067h-0.5c-0.091,0-0.176-0.024-0.25-0.067
		c-0.074,0.042-0.159,0.067-0.25,0.067h-0.5c-0.091,0-0.176-0.024-0.25-0.067c-0.074,0.042-0.159,0.067-0.25,0.067h-0.5
		c-0.091,0-0.176-0.024-0.25-0.067c-0.074,0.042-0.159,0.067-0.25,0.067h-0.5c-0.091,0-0.176-0.024-0.25-0.067
		c-0.074,0.042-0.159,0.067-0.25,0.067h-0.5c-0.091,0-0.176-0.024-0.25-0.067c-0.074,0.042-0.159,0.067-0.25,0.067h-0.5
		c-0.091,0-0.176-0.024-0.25-0.067c-0.074,0.042-0.159,0.067-0.25,0.067h-0.5c-0.091,0-0.176-0.024-0.25-0.067
		c-0.074,0.042-0.159,0.067-0.25,0.067h-0.5c-0.091,0-0.176-0.024-0.25-0.067c-0.074,0.042-0.159,0.067-0.25,0.067h-0.5
		c-0.091,0-0.176-0.024-0.25-0.067c-0.074,0.042-0.159,0.067-0.25,0.067h-0.5c-0.091,0-0.176-0.024-0.25-0.067
		c-0.074,0.042-0.159,0.067-0.25,0.067h-0.5c-0.091,0-0.176-0.024-0.25-0.067c-0.074,0.042-0.159,0.067-0.25,0.067h-0.5
		c-0.091,0-0.176-0.024-0.25-0.067c-0.074,0.042-0.159,0.067-0.25,0.067h-0.5c-0.091,0-0.176-0.024-0.25-0.067
		c-0.074,0.042-0.159,0.067-0.25,0.067h-0.5c-0.091,0-0.176-0.024-0.25-0.067c-0.074,0.042-0.159,0.067-0.25,0.067h-0.5
		c-0.091,0-0.176-0.024-0.25-0.067c-0.074,0.042-0.159,0.067-0.25,0.067h-0.5c-0.091,0-0.176-0.024-0.25-0.067
		c-0.074,0.042-0.159,0.067-0.25,0.067h-0.5c-0.091,0-0.176-0.024-0.25-0.067c-0.074,0.042-0.159,0.067-0.25,0.067h-0.5
		c-0.091,0-0.176-0.024-0.25-0.067c-0.074,0.042-0.159,0.067-0.25,0.067h-0.5c-0.091,0-0.176-0.024-0.25-0.067
		c-0.074,0.042-0.159,0.067-0.25,0.067h-0.5c-0.091,0-0.176-0.024-0.25-0.067c-0.074,0.042-0.159,0.067-0.25,0.067h-0.5
		c-0.091,0-0.176-0.024-0.25-0.067c-0.074,0.042-0.159,0.067-0.25,0.067h-0.5c-0.091,0-0.176-0.024-0.25-0.067
		c-0.074,0.042-0.159,0.067-0.25,0.067h-0.5c-0.091,0-0.176-0.024-0.25-0.067c-0.074,0.042-0.159,0.067-0.25,0.067h-0.5
		c-0.091,0-0.176-0.024-0.25-0.067c-0.074,0.042-0.159,0.067-0.25,0.067h-0.5c-0.091,0-0.176-0.024-0.25-0.067
		c-0.074,0.042-0.159,0.067-0.25,0.067h-0.5c-0.091,0-0.176-0.024-0.25-0.067c-0.074,0.042-0.159,0.067-0.25,0.067h-0.5
		c-0.091,0-0.176-0.024-0.25-0.067c-0.074,0.042-0.159,0.067-0.25,0.067h-0.5c-0.091,0-0.176-0.024-0.25-0.067
		c-0.074,0.042-0.159,0.067-0.25,0.067h-0.5c-0.091,0-0.176-0.024-0.25-0.067c-0.074,0.042-0.159,0.067-0.25,0.067h-0.5
		c-0.091,0-0.176-0.024-0.25-0.067c-0.074,0.042-0.159,0.067-0.25,0.067h-0.5c-0.091,0-0.176-0.024-0.25-0.067
		c-0.074,0.042-0.159,0.067-0.25,0.067h-0.5c-0.091,0-0.176-0.024-0.25-0.067c-0.074,0.042-0.159,0.067-0.25,0.067h-0.5
		c-0.091,0-0.176-0.024-0.25-0.067c-0.074,0.042-0.159,0.067-0.25,0.067h-0.5c-0.091,0-0.176-0.024-0.25-0.067
		c-0.074,0.042-0.159,0.067-0.25,0.067h-0.5c-0.091,0-0.176-0.024-0.25-0.067c-0.074,0.042-0.159,0.067-0.25,0.067h-0.5
		c-0.091,0-0.176-0.024-0.25-0.067c-0.074,0.042-0.159,0.067-0.25,0.067h-0.5c-0.091,0-0.176-0.024-0.25-0.067
		c-0.074,0.042-0.159,0.067-0.25,0.067h-0.5c-0.091,0-0.176-0.024-0.25-0.067c-0.074,0.042-0.159,0.067-0.25,0.067h-0.5
		c-0.091,0-0.176-0.024-0.25-0.067c-0.074,0.042-0.159,0.067-0.25,0.067h-0.5c-0.091,0-0.176-0.024-0.25-0.067
		c-0.074,0.042-0.159,0.067-0.25,0.067h-0.5c-0.091,0-0.176-0.024-0.25-0.067c-0.074,0.042-0.159,0.067-0.25,0.067h-0.5
		c-0.091,0-0.176-0.024-0.25-0.067c-0.074,0.042-0.159,0.067-0.25,0.067h-0.5c-0.091,0-0.176-0.024-0.25-0.067
		c-0.074,0.042-0.159,0.067-0.25,0.067h-0.5c-0.091,0-0.176-0.024-0.25-0.067c-0.074,0.042-0.159,0.067-0.25,0.067h-0.5
		c-0.091,0-0.176-0.024-0.25-0.067c-0.074,0.042-0.159,0.067-0.25,0.067h-0.5c-0.091,0-0.176-0.024-0.25-0.067
		c-0.074,0.042-0.159,0.067-0.25,0.067h-0.5c-0.091,0-0.176-0.024-0.25-0.067c-0.074,0.042-0.159,0.067-0.25,0.067h-0.5
		c-0.091,0-0.176-0.024-0.25-0.067c-0.074,0.042-0.159,0.067-0.25,0.067h-0.5c-0.091,0-0.176-0.024-0.25-0.067
		c-0.074,0.042-0.159,0.067-0.25,0.067h-0.5c-0.091,0-0.176-0.024-0.25-0.067c-0.074,0.042-0.159,0.067-0.25,0.067h-0.5
		c-0.091,0-0.176-0.024-0.25-0.067c-0.074,0.042-0.159,0.067-0.25,0.067h-0.5c-0.091,0-0.176-0.024-0.25-0.067
		c-0.074,0.042-0.159,0.067-0.25,0.067h-0.5c-0.091,0-0.176-0.024-0.25-0.067c-0.074,0.042-0.159,0.067-0.25,0.067h-0.5
		c-0.091,0-0.176-0.024-0.25-0.067c-0.074,0.042-0.159,0.067-0.25,0.067h-0.5c-0.091,0-0.176-0.024-0.25-0.067
		c-0.074,0.042-0.159,0.067-0.25,0.067h-0.5c-0.091,0-0.176-0.024-0.25-0.067c-0.074,0.042-0.159,0.067-0.25,0.067h-0.5
		c-0.091,0-0.176-0.024-0.25-0.067c-0.074,0.042-0.159,0.067-0.25,0.067h-0.5c-0.091,0-0.176-0.024-0.25-0.067
		c-0.074,0.042-0.159,0.067-0.25,0.067h-0.5c-0.091,0-0.176-0.024-0.25-0.067c-0.074,0.042-0.159,0.067-0.25,0.067h-0.5
		c-0.091,0-0.176-0.024-0.25-0.067c-0.074,0.042-0.159,0.067-0.25,0.067h-0.5c-0.091,0-0.176-0.024-0.25-0.067
		c-0.074,0.042-0.159,0.067-0.25,0.067h-0.5c-0.091,0-0.176-0.024-0.25-0.067c-0.074,0.042-0.159,0.067-0.25,0.067h-0.5
		c-0.091,0-0.176-0.024-0.25-0.067c-0.074,0.042-0.159,0.067-0.25,0.067h-0.5c-0.091,0-0.176-0.024-0.25-0.067
		c-0.074,0.042-0.159,0.067-0.25,0.067h-0.5c-0.091,0-0.176-0.024-0.25-0.067c-0.074,0.042-0.159,0.067-0.25,0.067h-0.5
		c-0.091,0-0.176-0.024-0.25-0.067c-0.074,0.042-0.159,0.067-0.25,0.067h-0.5c-0.091,0-0.176-0.024-0.25-0.067
		c-0.074,0.042-0.159,0.067-0.25,0.067h-0.5c-0.091,0-0.176-0.024-0.25-0.067c-0.074,0.042-0.159,0.067-0.25,0.067h-0.5
		c-0.091,0-0.176-0.024-0.25-0.067c-0.074,0.042-0.159,0.067-0.25,0.067h-0.5c-0.091,0-0.176-0.024-0.25-0.067
		c-0.074,0.042-0.159,0.067-0.25,0.067h-0.5c-0.091,0-0.176-0.024-0.25-0.067c-0.074,0.042-0.159,0.067-0.25,0.067h-0.5
		c-0.091,0-0.176-0.024-0.25-0.067c-0.074,0.042-0.159,0.067-0.25,0.067h-0.5c-0.091,0-0.176-0.024-0.25-0.067
		c-0.074,0.042-0.159,0.067-0.25,0.067h-0.5c-0.091,0-0.176-0.024-0.25-0.067c-0.074,0.042-0.159,0.067-0.25,0.067h-0.5
		c-0.091,0-0.176-0.024-0.25-0.067c-0.074,0.042-0.159,0.067-0.25,0.067h-0.5c-0.091,0-0.176-0.024-0.25-0.067
		c-0.074,0.042-0.159,0.067-0.25,0.067h-0.5c-0.091,0-0.176-0.024-0.25-0.067c-0.074,0.042-0.159,0.067-0.25,0.067h-0.5
		c-0.091,0-0.176-0.024-0.25-0.067c-0.074,0.042-0.159,0.067-0.25,0.067h-0.5c-0.091,0-0.176-0.024-0.25-0.067
		c-0.074,0.042-0.159,0.067-0.25,0.067h-0.5c-0.091,0-0.176-0.024-0.25-0.067c-0.074,0.042-0.159,0.067-0.25,0.067h-0.5
		c-0.091,0-0.176-0.024-0.25-0.067c-0.074,0.042-0.159,0.067-0.25,0.067h-0.5c-0.091,0-0.176-0.024-0.25-0.067
		c-0.074,0.042-0.159,0.067-0.25,0.067h-0.5c-0.091,0-0.176-0.024-0.25-0.067c-0.074,0.042-0.159,0.067-0.25,0.067h-0.5
		c-0.091,0-0.176-0.024-0.25-0.067c-0.074,0.042-0.159,0.067-0.25,0.067h-0.5c-0.091,0-0.176-0.024-0.25-0.067
		c-0.074,0.042-0.159,0.067-0.25,0.067h-0.5c-0.091,0-0.176-0.024-0.25-0.067c-0.074,0.042-0.159,0.067-0.25,0.067h-0.5
		c-0.091,0-0.176-0.024-0.25-0.067c-0.074,0.042-0.159,0.067-0.25,0.067h-0.5c-0.091,0-0.176-0.024-0.25-0.067
		c-0.074,0.042-0.159,0.067-0.25,0.067h-0.5c-0.091,0-0.176-0.024-0.25-0.067c-0.074,0.042-0.159,0.067-0.25,0.067h-0.5
		c-0.091,0-0.176-0.024-0.25-0.067c-0.074,0.042-0.159,0.067-0.25,0.067h-0.5c-0.091,0-0.176-0.024-0.25-0.067
		c-0.074,0.042-0.159,0.067-0.25,0.067h-0.5c-0.091,0-0.176-0.024-0.25-0.067c-0.074,0.042-0.159,0.067-0.25,0.067h-0.5
		c-0.091,0-0.176-0.024-0.25-0.067c-0.074,0.042-0.159,0.067-0.25,0.067h-0.5c-0.091,0-0.176-0.024-0.25-0.067
		c-0.074,0.042-0.159,0.067-0.25,0.067h-0.5c-0.091,0-0.176-0.024-0.25-0.067c-0.074,0.042-0.159,0.067-0.25,0.067h-0.5
		c-0.091,0-0.176-0.024-0.25-0.067c-0.074,0.042-0.159,0.067-0.25,0.067h-0.5c-0.091,0-0.176-0.024-0.25-0.067
		c-0.074,0.042-0.159,0.067-0.25,0.067h-0.5c-0.091,0-0.176-0.024-0.25-0.067c-0.074,0.042-0.159,0.067-0.25,0.067h-0.5
		c-0.091,0-0.176-0.024-0.25-0.067c-0.074,0.042-0.159,0.067-0.25,0.067h-0.5c-0.091,0-0.176-0.024-0.25-0.067
		c-0.074,0.042-0.159,0.067-0.25,0.067h-0.5c-0.091,0-0.176-0.024-0.25-0.067c-0.074,0.042-0.159,0.067-0.25,0.067h-0.5
		c-0.091,0-0.176-0.024-0.25-0.067c-0.074,0.042-0.159,0.067-0.25,0.067h-0.5c-0.091,0-0.176-0.024-0.25-0.067
		c-0.074,0.042-0.159,0.067-0.25,0.067h-0.5c-0.091,0-0.176-0.024-0.25-0.067c-0.074,0.042-0.159,0.067-0.25,0.067h-0.5
		c-0.091,0-0.176-0.024-0.25-0.067c-0.074,0.042-0.159,0.067-0.25,0.067h-0.5c-0.091,0-0.176-0.024-0.25-0.067
		c-0.074,0.042-0.159,0.067-0.25,0.067h-0.5c-0.091,0-0.176-0.024-0.25-0.067c-0.074,0.042-0.159,0.067-0.25,0.067h-0.5
		c-0.091,0-0.176-0.024-0.25-0.067c-0.074,0.042-0.159,0.067-0.25,0.067h-0.5c-0.091,0-0.176-0.024-0.25-0.067
		c-0.074,0.042-0.159,0.067-0.25,0.067h-0.5c-0.091,0-0.176-0.024-0.25-0.067c-0.074,0.042-0.159,0.067-0.25,0.067h-0.5
		c-0.091,0-0.176-0.024-0.25-0.067c-0.074,0.042-0.159,0.067-0.25,0.067h-0.5c-0.091,0-0.176-0.024-0.25-0.067
		c-0.074,0.042-0.159,0.067-0.25,0.067h-0.5c-0.091,0-0.176-0.024-0.25-0.067c-0.074,0.042-0.159,0.067-0.25,0.067h-0.5
		c-0.091,0-0.176-0.024-0.25-0.067c-0.074,0.042-0.159,0.067-0.25,0.067h-0.5c-0.091,0-0.176-0.024-0.25-0.067
		c-0.074,0.042-0.159,0.067-0.25,0.067h-0.5c-0.091,0-0.176-0.024-0.25-0.067c-0.074,0.042-0.159,0.067-0.25,0.067h-0.5
		c-0.091,0-0.176-0.024-0.25-0.067c-0.074,0.042-0.159,0.067-0.25,0.067h-0.5c-0.091,0-0.176-0.024-0.25-0.067
		c-0.074,0.042-0.159,0.067-0.25,0.067h-0.5c-0.091,0-0.176-0.024-0.25-0.067c-0.074,0.042-0.159,0.067-0.25,0.067h-0.5
		c-0.091,0-0.176-0.024-0.25-0.067c-0.074,0.042-0.159,0.067-0.25,0.067h-0.5c-0.091,0-0.176-0.024-0.25-0.067
		c-0.074,0.042-0.159,0.067-0.25,0.067h-0.5c-0.091,0-0.176-0.024-0.25-0.067c-0.074,0.042-0.159,0.067-0.25,0.067h-0.5
		c-0.091,0-0.176-0.024-0.25-0.067c-0.074,0.042-0.159,0.067-0.25,0.067h-0.5c-0.091,0-0.176-0.024-0.25-0.067
		c-0.074,0.042-0.159,0.067-0.25,0.067h-0.5c-0.091,0-0.176-0.024-0.25-0.067c-0.074,0.042-0.159,0.067-0.25,0.067h-0.5
		c-0.091,0-0.176-0.024-0.25-0.067c-0.074,0.042-0.159,0.067-0.25,0.067h-0.5c-0.091,0-0.176-0.024-0.25-0.067
		c-0.074,0.042-0.159,0.067-0.25,0.067h-0.5c-0.091,0-0.176-0.024-0.25-0.067c-0.074,0.042-0.159,0.067-0.25,0.067h-0.5
		c-0.091,0-0.176-0.024-0.25-0.067c-0.074,0.042-0.159,0.067-0.25,0.067h-0.5c-0.091,0-0.176-0.024-0.25-0.067
		c-0.074,0.042-0.159,0.067-0.25,0.067h-0.5c-0.091,0-0.176-0.024-0.25-0.067c-0.074,0.042-0.159,0.067-0.25,0.067h-0.5
		c-0.091,0-0.176-0.024-0.25-0.067c-0.074,0.042-0.159,0.067-0.25,0.067h-0.5c-0.091,0-0.176-0.024-0.25-0.067
		c-0.074,0.042-0.159,0.067-0.25,0.067h-0.5c-0.091,0-0.176-0.024-0.25-0.067c-0.074,0.042-0.159,0.067-0.25,0.067h-0.5
		c-0.091,0-0.176-0.024-0.25-0.067c-0.074,0.042-0.159,0.067-0.25,0.067h-0.5c-0.091,0-0.176-0.024-0.25-0.067
		c-0.074,0.042-0.159,0.067-0.25,0.067h-0.5c-0.091,0-0.176-0.024-0.25-0.067c-0.074,0.042-0.159,0.067-0.25,0.067h-0.5
		c-0.091,0-0.176-0.024-0.25-0.067c-0.074,0.042-0.159,0.067-0.25,0.067h-0.5c-0.091,0-0.176-0.024-0.25-0.067
		c-0.074,0.042-0.159,0.067-0.25,0.067h-0.5c-0.091,0-0.176-0.024-0.25-0.067c-0.074,0.042-0.159,0.067-0.25,0.067h-0.5
		c-0.091,0-0.176-0.024-0.25-0.067c-0.074,0.042-0.159,0.067-0.25,0.067h-0.5c-0.091,0-0.176-0.024-0.25-0.067
		c-0.074,0.042-0.159,0.067-0.25,0.067h-0.5c-0.091,0-0.176-0.024-0.25-0.067c-0.074,0.042-0.159,0.067-0.25,0.067h-0.5
		c-0.091,0-0.176-0.024-0.25-0.067c-0.074,0.042-0.159,0.067-0.25,0.067h-0.5c-0.091,0-0.176-0.024-0.25-0.067
		c-0.074,0.042-0.159,0.067-0.25,0.067h-0.5c-0.091,0-0.176-0.024-0.25-0.067c-0.074,0.042-0.159,0.067-0.25,0.067h-0.5
		c-0.091,0-0.176-0.024-0.25-0.067c-0.074,0.042-0.159,0.067-0.25,0.067h-0.5c-0.091,0-0.176-0.024-0.25-0.067
		c-0.074,0.042-0.159,0.067-0.25,0.067h-0.5c-0.091,0-0.176-0.024-0.25-0.067c-0.074,0.042-0.159,0.067-0.25,0.067h-0.5
		c-0.091,0-0.176-0.024-0.25-0.067c-0.074,0.042-0.159,0.067-0.25,0.067h-0.5c-0.091,0-0.176-0.024-0.25-0.067
		c-0.074,0.042-0.159,0.067-0.25,0.067h-0.5c-0.091,0-0.176-0.024-0.25-0.067c-0.074,0.042-0.159,0.067-0.25,0.067h-0.5
		c-0.091,0-0.176-0.024-0.25-0.067c-0.074,0.042-0.159,0.067-0.25,0.067h-0.5c-0.091,0-0.176-0.024-0.25-0.067
		c-0.074,0.042-0.159,0.067-0.25,0.067h-0.5c-0.091,0-0.176-0.024-0.25-0.067c-0.074,0.042-0.159,0.067-0.25,0.067h-0.5
		c-0.091,0-0.176-0.024-0.25-0.067c-0.074,0.042-0.159,0.067-0.25,0.067h-0.5c-0.091,0-0.176-0.024-0.25-0.067
		c-0.074,0.042-0.159,0.067-0.25,0.067h-0.5c-0.091,0-0.176-0.024-0.25-0.067c-0.074,0.042-0.159,0.067-0.25,0.067h-0.5
		c-0.091,0-0.176-0.024-0.25-0.067c-0.074,0.042-0.159,0.067-0.25,0.067h-0.5c-0.091,0-0.176-0.024-0.25-0.067
		c-0.074,0.042-0.159,0.067-0.25,0.067h-0.5c-0.091,0-0.176-0.024-0.25-0.067c-0.074,0.042-0.159,0.067-0.25,0.067h-0.5
		c-0.091,0-0.176-0.024-0.25-0.067c-0.074,0.042-0.159,0.067-0.25,0.067h-0.5c-0.091,0-0.176-0.024-0.25-0.067
		c-0.074,0.042-0.159,0.067-0.25,0.067h-0.5c-0.091,0-0.176-0.024-0.25-0.067c-0.074,0.042-0.159,0.067-0.25,0.067h-0.5
		c-0.091,0-0.176-0.024-0.25-0.067c-0.074,0.042-0.159,0.067-0.25,0.067h-0.5c-0.091,0-0.176-0.024-0.25-0.067
		c-0.074,0.042-0.159,0.067-0.25,0.067h-0.5c-0.091,0-0.176-0.024-0.25-0.067c-0.074,0.042-0.159,0.067-0.25,0.067h-0.5
		c-0.091,0-0.176-0.024-0.25-0.067c-0.074,0.042-0.159,0.067-0.25,0.067h-0.5c-0.091,0-0.176-0.024-0.25-0.067
		c-0.074,0.042-0.159,0.067-0.25,0.067h-0.5c-0.091,0-0.176-0.024-0.25-0.067c-0.074,0.042-0.159,0.067-0.25,0.067h-0.5
		c-0.091,0-0.176-0.024-0.25-0.067c-0.074,0.042-0.159,0.067-0.25,0.067h-0.5c-0.091,0-0.176-0.024-0.25-0.067
		c-0.074,0.042-0.159,0.067-0.25,0.067h-0.5c-0.091,0-0.176-0.024-0.25-0.067c-0.074,0.042-0.159,0.067-0.25,0.067h-0.5
		c-0.091,0-0.176-0.024-0.25-0.067c-0.074,0.042-0.159,0.067-0.25,0.067h-0.5c-0.091,0-0.176-0.024-0.25-0.067
		c-0.074,0.042-0.159,0.067-0.25,0.067h-0.5c-0.091,0-0.176-0.024-0.25-0.067c-0.074,0.042-0.159,0.067-0.25,0.067h-0.5
		c-0.091,0-0.176-0.024-0.25-0.067c-0.074,0.042-0.159,0.067-0.25,0.067h-0.5c-0.091,0-0.176-0.024-0.25-0.067
		c-0.074,0.042-0.159,0.067-0.25,0.067h-0.5c-0.091,0-0.176-0.024-0.25-0.067c-0.074,0.042-0.159,0.067-0.25,0.067h-0.5
		c-0.091,0-0.176-0.024-0.25-0.067c-0.074,0.042-0.159,0.067-0.25,0.067h-0.5c-0.091,0-0.176-0.024-0.25-0.067
		c-0.074,0.042-0.159,0.067-0.25,0.067h-0.5c-0.091,0-0.176-0.024-0.25-0.067c-0.074,0.042-0.159,0.067-0.25,0.067h-0.5
		c-0.091,0-0.176-0.024-0.25-0.067c-0.074,0.042-0.159,0.067-0.25,0.067h-0.5c-0.091,0-0.176-0.024-0.25-0.067
		c-0.074,0.042-0.159,0.067-0.25,0.067h-0.5c-0.091,0-0.176-0.024-0.25-0.067c-0.074,0.042-0.159,0.067-0.25,0.067h-0.5
		c-0.091,0-0.176-0.024-0.25-0.067c-0.074,0.042-0.159,0.067-0.25,0.067h-0.5c-0.091,0-0.176-0.024-0.25-0.067
		c-0.074,0.042-0.159,0.067-0.25,0.067h-0.5c-0.091,0-0.176-0.024-0.25-0.067c-0.074,0.042-0.159,0.067-0.25,0.067h-0.5
		c-0.091,0-0.176-0.024-0.25-0.067c-0.074,0.042-0.159,0.067-0.25,0.067h-0.5c-0.091,0-0.176-0.024-0.25-0.067
		c-0.074,0.042-0.159,0.067-0.25,0.067h-0.5c-0.091,0-0.176-0.024-0.25-0.067c-0.074,0.042-0.159,0.067-0.25,0.067h-0.5
		c-0.091,0-0.176-0.024-0.25-0.067c-0.074,0.042-0.159,0.067-0.25,0.067h-0.5c-0.091,0-0.176-0.024-0.25-0.067
		c-0.074,0.042-0.159,0.067-0.25,0.067h-0.5c-0.091,0-0.176-0.024-0.25-0.067c-0.074,0.042-0.159,0.067-0.25,0.067h-0.5
		c-0.091,0-0.176-0.024-0.25-0.067c-0.074,0.042-0.159,0.067-0.25,0.067h-0.5c-0.091,0-0.176-0.024-0.25-0.067
		c-0.074,0.042-0.159,0.067-0.25,0.067h-0.5c-0.091,0-0.176-0.024-0.25-0.067c-0.074,0.042-0.159,0.067-0.25,0.067h-0.5
		c-0.091,0-0.176-0.024-0.25-0.067c-0.074,0.042-0.159,0.067-0.25,0.067h-0.5c-0.091,0-0.176-0.024-0.25-0.067
		c-0.074,0.042-0.159,0.067-0.25,0.067h-0.5c-0.091,0-0.176-0.024-0.25-0.067c-0.074,0.042-0.159,0.067-0.25,0.067h-0.5
		c-0.091,0-0.176-0.024-0.25-0.067c-0.074,0.042-0.159,0.067-0.25,0.067h-0.5c-0.091,0-0.176-0.024-0.25-0.067
		c-0.074,0.042-0.159,0.067-0.25,0.067h-0.5c-0.091,0-0.176-0.024-0.25-0.067c-0.074,0.042-0.159,0.067-0.25,0.067h-0.5
		c-0.091,0-0.176-0.024-0.25-0.067c-0.074,0.042-0.159,0.067-0.25,0.067h-0.5c-0.091,0-0.176-0.024-0.25-0.067
		c-0.074,0.042-0.159,0.067-0.25,0.067h-0.5c-0.091,0-0.176-0.024-0.25-0.067c-0.074,0.042-0.159,0.067-0.25,0.067h-0.5
		c-0.091,0-0.176-0.024-0.25-0.067c-0.074,0.042-0.159,0.067-0.25,0.067h-0.5c-0.091,0-0.176-0.024-0.25-0.067
		c-0.074,0.042-0.159,0.067-0.25,0.067h-0.5c-0.091,0-0.176-0.024-0.25-0.067c-0.074,0.042-0.159,0.067-0.25,0.067h-0.5
		c-0.091,0-0.176-0.024-0.25-0.067c-0.074,0.042-0.159,0.067-0.25,0.067h-0.5c-0.091,0-0.176-0.024-0.25-0.067
		c-0.074,0.042-0.159,0.067-0.25,0.067h-0.5c-0.091,0-0.176-0.024-0.25-0.067c-0.074,0.042-0.159,0.067-0.25,0.067h-0.5
		c-0.091,0-0.176-0.024-0.25-0.067c-0.074,0.042-0.159,0.067-0.25,0.067h-0.5c-0.091,0-0.176-0.024-0.25-0.067
		c-0.074,0.042-0.159,0.067-0.25,0.067h-0.5c-0.091,0-0.176-0.024-0.25-0.067c-0.074,0.042-0.159,0.067-0.25,0.067h-0.5
		c-0.091,0-0.176-0.024-0.25-0.067c-0.074,0.042-0.159,0.067-0.25,0.067h-0.5c-0.091,0-0.176-0.024-0.25-0.067
		c-0.074,0.042-0.159,0.067-0.25,0.067h-0.5c-0.091,0-0.176-0.024-0.25-0.067c-0.074,0.042-0.159,0.067-0.25,0.067h-0.5
		c-0.091,0-0.176-0.024-0.25-0.067c-0.074,0.042-0.159,0.067-0.25,0.067h-0.5c-0.091,0-0.176-0.024-0.25-0.067
		c-0.074,0.042-0.159,0.067-0.25,0.067h-0.5c-0.091,0-0.176-0.024-0.25-0.067c-0.074,0.042-0.159,0.067-0.25,0.067h-0.5
		c-0.091,0-0.176-0.024-0.25-0.067c-0.074,0.042-0.159,0.067-0.25,0.067h-0.5c-0.091,0-0.176-0.024-0.25-0.067
		c-0.074,0.042-0.159,0.067-0.25,0.067h-0.5c-0.091,0-0.176-0.024-0.25-0.067c-0.074,0.042-0.159,0.067-0.25,0.067h-0.5
		c-0.091,0-0.176-0.024-0.25-0.067c-0.074,0.042-0.159,0.067-0.25,0.067h-0.5c-0.091,0-0.176-0.024-0.25-0.067
		c-0.074,0.042-0.159,0.067-0.25,0.067h-0.5c-0.091,0-0.176-0.024-0.25-0.067c-0.074,0.042-0.159,0.067-0.25,0.067h-0.5
		c-0.091,0-0.176-0.024-0.25-0.067c-0.074,0.042-0.159,0.067-0.25,0.067h-0.5c-0.091,0-0.176-0.024-0.25-0.067
		c-0.074,0.042-0.159,0.067-0.25,0.067h-0.5c-0.091,0-0.176-0.024-0.25-0.067c-0.074,0.042-0.159,0.067-0.25,0.067h-0.5
		c-0.091,0-0.176-0.024-0.25-0.067c-0.074,0.042-0.159,0.067-0.25,0.067h-0.5c-0.091,0-0.176-0.024-0.25-0.067
		c-0.074,0.042-0.159,0.067-0.25,0.067h-0.5c-0.091,0-0.176-0.024-0.25-0.067c-0.074,0.042-0.159,0.067-0.25,0.067h-0.5
		c-0.091,0-0.176-0.024-0.25-0.067c-0.074,0.042-0.159,0.067-0.25,0.067h-0.5c-0.091,0-0.176-0.024-0.25-0.067
		c-0.074,0.042-0.159,0.067-0.25,0.067h-0.5c-0.091,0-0.176-0.024-0.25-0.067c-0.074,0.042-0.159,0.067-0.25,0.067h-0.5
		c-0.091,0-0.176-0.024-0.25-0.067c-0.074,0.042-0.159,0.067-0.25,0.067h-0.5c-0.091,0-0.176-0.024-0.25-0.067
		c-0.074,0.042-0.159,0.067-0.25,0.067h-0.5c-0.091,0-0.176-0.024-0.25-0.067c-0.074,0.042-0.159,0.067-0.25,0.067h-0.5
		c-0.091,0-0.176-0.024-0.25-0.067c-0.074,0.042-0.159,0.067-0.25,0.067h-0.5c-0.091,0-0.176-0.024-0.25-0.067
		c-0.074,0.042-0.159,0.067-0.25,0.067h-0.5c-0.091,0-0.176-0.024-0.25-0.067c-0.074,0.042-0.159,0.067-0.25,0.067h-0.5
		c-0.091,0-0.176-0.024-0.25-0.067c-0.074,0.042-0.159,0.067-0.25,0.067h-0.5c-0.091,0-0.176-0.024-0.25-0.067
		c-0.074,0.042-0.159,0.067-0.25,0.067h-0.5c-0.091,0-0.176-0.024-0.25-0.067c-0.074,0.042-0.159,0.067-0.25,0.067h-0.5
		c-0.091,0-0.176-0.024-0.25-0.067c-0.074,0.042-0.159,0.067-0.25,0.067h-0.5c-0.091,0-0.176-0.024-0.25-0.067
		c-0.074,0.042-0.159,0.067-0.25,0.067h-0.5c-0.091,0-0.176-0.024-0.25-0.067c-0.074,0.042-0.159,0.067-0.25,0.067h-0.5
		c-0.091,0-0.176-0.024-0.25-0.067c-0.074,0.042-0.159,0.067-0.25,0.067h-0.5c-0.091,0-0.176-0.024-0.25-0.067
		c-0.074,0.042-0.159,0.067-0.25,0.067h-0.5c-0.091,0-0.176-0.024-0.25-0.067c-0.074,0.042-0.159,0.067-0.25,0.067h-0.5
		c-0.091,0-0.176-0.024-0.25-0.067c-0.074,0.042-0.159,0.067-0.25,0.067h-0.5c-0.091,0-0.176-0.024-0.25-0.067
		c-0.074,0.042-0.159,0.067-0.25,0.067h-0.5c-0.091,0-0.176-0.024-0.25-0.067c-0.074,0.042-0.159,0.067-0.25,0.067h-0.5
		c-0.091,0-0.176-0.024-0.25-0.067c-0.074,0.042-0.159,0.067-0.25,0.067h-0.5c-0.091,0-0.176-0.024-0.25-0.067
		c-0.074,0.042-0.159,0.067-0.25,0.067h-0.5c-0.091,0-0.176-0.024-0.25-0.067c-0.074,0.042-0.159,0.067-0.25,0.067h-0.5
		c-0.091,0-0.176-0.024-0.25-0.067c-0.074,0.042-0.159,0.067-0.25,0.067h-0.5c-0.091,0-0.176-0.024-0.25-0.067
		c-0.074,0.042-0.159,0.067-0.25,0.067h-0.5c-0.091,0-0.176-0.024-0.25-0.067c-0.074,0.042-0.159,0.067-0.25,0.067h-0.5
		c-0.091,0-0.176-0.024-0.25-0.067c-0.074,0.042-0.159,0.067-0.25,0.067h-0.5c-0.013,0-0.026,0-0.039-0.001
		c-0.036,0.048-0.08,0.09-0.133,0.124l-0.421,0.269c-0.077,0.049-0.161,0.074-0.246,0.078c-0.039,0.076-0.098,0.143-0.175,0.191
		l-0.421,0.269c-0.077,0.049-0.162,0.074-0.247,0.078c-0.039,0.076-0.098,0.142-0.174,0.191l-0.421,0.27
		c-0.077,0.049-0.162,0.074-0.247,0.078c-0.039,0.075-0.098,0.142-0.174,0.191l-0.421,0.27c-0.077,0.049-0.162,0.075-0.247,0.078
		c-0.039,0.075-0.098,0.142-0.174,0.191l-0.421,0.27c-0.077,0.049-0.162,0.074-0.247,0.078c-0.039,0.075-0.098,0.142-0.174,0.191
		l-0.421,0.27C285.726,13.511,285.632,13.537,285.54,13.537z"/>
</g>
</svg>
