<?xml version="1.0" encoding="utf-8"?>
<!-- Generator: Adobe Illustrator 16.0.0, SVG Export Plug-In . SVG Version: 6.00 Build 0)  -->
<!DOCTYPE svg PUBLIC "-//W3C//DTD SVG 1.1//EN" "http://www.w3.org/Graphics/SVG/1.1/DTD/svg11.dtd">
<svg version="1.1" id="Layer_1" xmlns="http://www.w3.org/2000/svg" xmlns:xlink="http://www.w3.org/1999/xlink" x="0px" y="0px"
	 width="71.747px" height="50.685px" viewBox="0 0 71.747 50.685" enable-background="new 0 0 71.747 50.685" xml:space="preserve">
<g>
	<path fill="#EF6A54" d="M8.135,6.299c-0.133,0-0.242,0.109-0.242,0.244v8.195c0,0.135-0.109,0.244-0.24,0.244H3.912
		c-0.133,0-0.243,0.111-0.243,0.245v0.845c0,0.135,0.109,0.244,0.243,0.244h3.742c0.131,0,0.24,0.109,0.24,0.244v10.997v0.428v2.631
		c0,4.161,2.866,6.285,6.364,6.285c1.921,0,3.82,0.009,3.82,0.009l-0.001-1.516c-0.307,0.082-0.634,0.115-1.034,0.126l0-0.154
		c-0.003,0.057-0.029,0.156-0.162,0.157c-0.574,0.007-1.302-0.02-2.328-0.02c-2.987,0-5.079-1.575-5.079-5.696v-1.823v-0.428V16.56
		c0-0.134,0.109-0.244,0.242-0.244h8.478c0.133,0,0.242-0.108,0.242-0.244v-0.845c0-0.134-0.109-0.245-0.242-0.245H9.714
		c-0.133,0-0.242-0.108-0.242-0.244V6.543c0-0.135-0.109-0.244-0.241-0.244H8.135z"/>
	<g>
		<defs>
			<path id="SVGID_1_" d="M18.433,20.909l-0.001-3.508c0-0.134-0.108-0.245-0.242-0.245l-0.908-0.004
				c-0.133,0-0.242,0.108-0.242,0.243v19.271c0,0.134,0.109,0.243,0.242,0.243h0.919c0.132,0,0.241-0.109,0.241-0.243l-0.009-10.792
				c0-5.004,2.824-8.913,6.96-8.913c1.006,0,3.136,0.705,3.136,0.705c0.125,0.043,0.255-0.03,0.289-0.16l0.289-1.131
				c-1.238-0.626-2.475-0.898-3.597-0.898C22.106,15.514,19.631,17.665,18.433,20.909"/>
		</defs>
		<use xlink:href="#SVGID_1_"  overflow="visible" fill="#EF6A54"/>
		<clipPath id="SVGID_2_">
			<use xlink:href="#SVGID_1_"  overflow="visible"/>
		</clipPath>
		<polygon clip-path="url(#SVGID_2_)" fill="#EF6A54" points="39.187,22.881 24.936,42.71 6.958,29.504 21.209,9.674 		"/>
	</g>
	<g>
		<defs>
			<path id="SVGID_3_" d="M27.387,17.414l1.225,0.395c1.542-1.124,3.971-1.854,6.142-1.854c5.273,0,8.588,3.723,9.015,9.004
				c-0.008,0.169-0.087,0.415-0.491,0.415h-18.09c0.101-2.209,0.838-4.213,2.055-5.8l-1.39-0.395
				c-1.426,1.964-2.158,4.208-2.158,6.901c0,6.189,4.317,11.263,10.615,11.492v0.043c9.297,0.393,14.031-8.067,14.031-9.052
				l-1.707-0.009c-3.65,7.088-10.509,7.532-12.152,7.436c-4.93-0.282-8.977-3.877-9.293-9.284c0,0,19.177-0.005,19.181-0.007
				c0.582-0.049,0.761-0.367,0.815-0.577c0.009-0.004,0.02-0.187,0.02-0.187c-0.111-6.692-4.28-11.461-10.652-11.461
				C31.71,14.475,29.227,15.626,27.387,17.414"/>
		</defs>
		<use xlink:href="#SVGID_3_"  overflow="visible" fill="#004181"/>
		<clipPath id="SVGID_4_">
			<use xlink:href="#SVGID_3_"  overflow="visible"/>
		</clipPath>
		<polygon clip-path="url(#SVGID_4_)" fill="#004181" points="13.613,32.126 29.855,3.686 58.421,20.358 42.18,48.799 		"/>
	</g>
	<rect x="46.606" y="6.299" fill="#E06627" width="1.734" height="31.313"/>
	<path fill="#EF6A54" d="M47.088,6.299c-0.265,0-0.482,0.219-0.482,0.488l0.005,30.813c0.014-0.004,1.246,0.01,1.246,0.01
		c0.266,0.002,0.483-0.216,0.483-0.482V6.787c0-0.269-0.217-0.488-0.483-0.488H47.088z"/>
	<path fill-rule="evenodd" clip-rule="evenodd" fill="#FFFFFF" d="M36.187,25.771c0,0.864-0.694,1.564-1.549,1.564
		c-0.855,0-1.549-0.701-1.549-1.564c0-0.866,0.693-1.567,1.549-1.567C35.493,24.204,36.187,24.905,36.187,25.771"/>
	<path fill="#06396E" d="M36.448,21.833l-0.141,0.428l-0.15,0.46l-0.971,2.959l-0.077,0.234c-0.015,0.041-0.032,0.083-0.055,0.121
		c-0.118,0.199-0.327,0.299-0.533,0.278c-0.082-0.009-0.163-0.038-0.237-0.087c-0.216-0.142-0.306-0.418-0.235-0.667
		c0.014-0.051,0.034-0.1,0.061-0.146l1.735-2.925l0.223-0.377l0.214-0.36c0.003-0.006,0.007-0.011,0.01-0.015
		c0.022-0.025,0.048-0.035,0.076-0.031c0.05,0.004,0.094,0.053,0.082,0.115C36.451,21.826,36.45,21.83,36.448,21.833"/>
	<path fill="#06396E" d="M35.669,25.771c0,0.577-0.461,1.044-1.031,1.044c-0.57,0-1.032-0.467-1.032-1.044
		c0-0.577,0.462-1.044,1.032-1.044C35.208,24.727,35.669,25.194,35.669,25.771"/>
	<path fill="#F5F5F5" d="M35.396,25.771c0,0.422-0.339,0.765-0.758,0.765c-0.417,0-0.757-0.343-0.757-0.765
		c0-0.424,0.34-0.767,0.757-0.767C35.057,25.004,35.396,25.347,35.396,25.771"/>
	<path fill="#EF6A54" d="M35.184,25.771c0,0.304-0.246,0.55-0.546,0.55c-0.3,0-0.545-0.246-0.545-0.55
		c0-0.306,0.245-0.551,0.545-0.551C34.938,25.22,35.184,25.465,35.184,25.771"/>
	
		<line fill="none" stroke="#06396E" stroke-linecap="round" stroke-linejoin="round" stroke-miterlimit="10" x1="41.82" y1="23.354" x2="41.096" y2="23.354"/>
	
		<line fill="none" stroke="#06396E" stroke-linecap="round" stroke-linejoin="round" stroke-miterlimit="10" x1="41.556" y1="21.03" x2="40.877" y2="21.287"/>
	
		<line fill="none" stroke="#06396E" stroke-linecap="round" stroke-linejoin="round" stroke-miterlimit="10" x1="40.023" y1="18.947" x2="39.513" y2="19.465"/>
	
		<line fill="none" stroke="#06396E" stroke-linecap="round" stroke-linejoin="round" stroke-miterlimit="10" x1="37.509" y1="17.411" x2="37.201" y2="18.073"/>
	<path fill="#EF6A54" d="M67.943,15.527L58.259,35.26l-9.901-19.732c-0.567-0.923-1.701-0.351-1.483,0.528L57.3,36.754l-4.057,8.262
		c-0.392,1.101,0.83,1.671,1.397,0.484l14.787-29.445c0.33-0.611-0.173-1.099-0.702-1.099
		C68.419,14.957,68.104,15.123,67.943,15.527"/>
</g>
</svg>
