<?xml version="1.0" encoding="utf-8"?>
<!-- Generator: Adobe Illustrator 16.0.0, SVG Export Plug-In . SVG Version: 6.00 Build 0)  -->
<!DOCTYPE svg PUBLIC "-//W3C//DTD SVG 1.1//EN" "http://www.w3.org/Graphics/SVG/1.1/DTD/svg11.dtd">
<svg version="1.1" id="Layer_1" xmlns="http://www.w3.org/2000/svg" xmlns:xlink="http://www.w3.org/1999/xlink" x="0px" y="0px"
	 width="200px" height="200px" viewBox="0 0 200 200" enable-background="new 0 0 200 200" xml:space="preserve">
<path fill="#004181" d="M174.787,102.48c0,41.741-33.841,75.578-75.581,75.578c-41.737,0-75.581-33.837-75.581-75.578
	c0-41.74,33.844-75.583,75.581-75.583C140.946,26.897,174.787,60.74,174.787,102.48z"/>
<g>
	<path fill="#E06627" d="M99.206,186.997c-46.602,0-84.517-37.915-84.517-84.517c0-46.604,37.915-84.519,84.517-84.519
		c46.604,0,84.52,37.915,84.52,84.519C183.726,149.082,145.811,186.997,99.206,186.997z M99.206,20.078
		c-45.437,0-82.4,36.966-82.4,82.403c0,45.437,36.964,82.4,82.4,82.4c45.438,0,82.403-36.964,82.403-82.4
		C181.609,57.043,144.644,20.078,99.206,20.078z"/>
</g>
<g>
	<defs>
		<path id="SVGID_5_" d="M25.239,86.962c8.568-40.851,48.636-67.021,89.487-58.454c40.853,8.574,67.025,48.642,58.449,89.489
			c-8.57,40.856-48.636,67.023-89.489,58.451C42.838,167.882,16.667,127.812,25.239,86.962z"/>
	</defs>
	<clipPath id="SVGID_2_">
		<use xlink:href="#SVGID_5_"  overflow="visible"/>
	</clipPath>
	<path opacity="0.1" clip-path="url(#SVGID_2_)" fill="#FFFFFF" d="M148.898,186.137L63.573,27.019c0,0,83.976-26.28,114.469,48.038
		C178.042,75.057,194.093,135.699,148.898,186.137z"/>
</g>
<g>
	<defs>
		<path id="SVGID_7_" d="M113.937,81.14l-8.939,27.597c0,0,2.811,3.979,1.148,8.03h29.062
			C135.207,116.768,147.493,85.576,113.937,81.14z"/>
	</defs>
	<clipPath id="SVGID_4_">
		<use xlink:href="#SVGID_7_"  overflow="visible"/>
	</clipPath>
	<g clip-path="url(#SVGID_4_)">
		<circle fill="#ED6A54" cx="101.044" cy="113.86" r="34.285"/>
	</g>
</g>
<g>
	<path fill="#004181" d="M101.048,74.215"/>
</g>
<g>
	<path fill="#FFFFFF" d="M141.88,84.844c-0.769,0-1.531-0.292-2.116-0.878l-7.795-7.774c-1.174-1.172-1.174-3.067,0-4.24
		c1.164-1.171,3.069-1.18,4.241-0.007l7.786,7.77c1.174,1.173,1.18,3.072,0.007,4.243C143.418,84.545,142.648,84.844,141.88,84.844
		L141.88,84.844z M141.88,84.844"/>
</g>
<g>
	<path fill-rule="evenodd" clip-rule="evenodd" fill="#004181" d="M109.382,112.753c0,4.868-3.947,8.817-8.817,8.817
		c-4.875,0-8.822-3.949-8.822-8.817c0-4.873,3.947-8.822,8.822-8.822C105.435,103.931,109.382,107.88,109.382,112.753"/>
</g>
<path fill="#FFFFFF" d="M114.482,78.856c-0.209-0.028-0.428,0.054-0.596,0.255c-0.021,0.038-0.058,0.084-0.089,0.128l-1.672,2.973
	l-1.735,3.105l-11.246,19.967c-3.52,0.663-6.181,3.753-6.181,7.469c0,4.197,3.403,7.601,7.603,7.601
	c4.195,0,7.597-3.403,7.597-7.601c0-1.796-0.622-3.445-1.662-4.745l6.39-20.822l1.155-3.769l1.081-3.519
	c0.015-0.033,0.019-0.068,0.024-0.102C115.249,79.276,114.885,78.893,114.482,78.856z"/>
<g>
	<path fill="#004181" d="M106.146,112.753c0,3.079-2.498,5.577-5.579,5.577c-3.079,0-5.584-2.498-5.584-5.577
		c0-3.083,2.505-5.58,5.584-5.58C103.647,107.173,106.146,109.67,106.146,112.753"/>
</g>
<g>
	<path fill="#ED6A54" d="M103.908,112.753c0,1.843-1.499,3.339-3.342,3.339c-1.848,0-3.346-1.496-3.346-3.339
		c0-1.848,1.498-3.34,3.346-3.34C102.409,109.413,103.908,110.905,103.908,112.753"/>
</g>
<g>
	<path fill="#FFFFFF" d="M133.848,112.707H130.8c-0.309,0-0.554-0.25-0.554-0.556s0.245-0.554,0.554-0.554h3.048
		c0.308,0,0.554,0.248,0.554,0.554S134.155,112.707,133.848,112.707z"/>
</g>
<g>
	<path fill="#FFFFFF" d="M128.774,105.02c-0.224,0-0.435-0.139-0.519-0.359c-0.107-0.287,0.037-0.607,0.324-0.715l2.854-1.068
		c0.285-0.107,0.605,0.037,0.713,0.324c0.107,0.285-0.037,0.605-0.324,0.713l-2.854,1.068
		C128.904,105.008,128.841,105.02,128.774,105.02z"/>
</g>
<g>
	<path fill="#FFFFFF" d="M124.629,96.51c-0.174,0-0.348-0.083-0.455-0.235c-0.176-0.252-0.113-0.597,0.137-0.773l2.496-1.749
		c0.248-0.178,0.596-0.116,0.771,0.134c0.176,0.25,0.113,0.598-0.137,0.773l-2.494,1.749C124.85,96.477,124.738,96.51,124.629,96.51
		z"/>
</g>
<g>
	<path fill="#FFFFFF" d="M117.882,90.132c-0.079,0-0.159-0.016-0.235-0.054c-0.277-0.128-0.396-0.458-0.267-0.735l1.302-2.755
		c0.13-0.279,0.461-0.395,0.737-0.265c0.275,0.13,0.395,0.461,0.265,0.738l-1.3,2.753C118.289,90.017,118.088,90.132,117.882,90.132
		z"/>
</g>
<path fill="#FFFFFF" d="M145.637,123c0.546-2,1.413-6.052,1.413-9.034c0-24.104-19.05-44.197-42.05-45.658V63.61
	c0-1.655-2.35-3.004-4.002-3.004c-1.655,0-3.998,1.349-3.998,3.004v4.72c-24,1.637-41.831,21.655-41.831,45.636
	c0,2.982,0.754,7.034,1.304,9.034H52v2h98v-2H145.637z M61.61,113.966c0-21.75,17.695-39.594,39.441-39.594
	c21.75,0,39.438,17.924,39.438,39.672c0,2.997-0.341,6.956-0.978,8.956H62.59C61.953,121,61.61,116.963,61.61,113.966z"/>
</svg>
