<?xml version="1.0" encoding="utf-8"?>
<!-- Generator: Adobe Illustrator 16.0.0, SVG Export Plug-In . SVG Version: 6.00 Build 0)  -->
<!DOCTYPE svg PUBLIC "-//W3C//DTD SVG 1.1//EN" "http://www.w3.org/Graphics/SVG/1.1/DTD/svg11.dtd">
<svg version="1.1" id="Layer_1" xmlns="http://www.w3.org/2000/svg" xmlns:xlink="http://www.w3.org/1999/xlink" x="0px" y="0px"
	 width="200px" height="200px" viewBox="0 0 200 200" enable-background="new 0 0 200 200" xml:space="preserve">
<path fill="#116386" d="M174.611,102.711c0,41.456-33.609,75.065-75.062,75.065c-41.454,0-75.062-33.609-75.062-75.065
	c0-41.451,33.609-75.061,75.062-75.061C141.002,27.65,174.611,61.26,174.611,102.711z"/>
<g>
	<path fill="#E06627" d="M99.623,187h-0.074c-0.686,0-1.369-0.183-2.051-0.199l0.05-2.189c0.665,0.018,1.332,0.156,2.001,0.156
		L99.623,187z M101.749,186.622l-0.058-2.102c0.691-0.019,1.384-0.046,2.073-0.078l0.106,2.097
		C103.165,186.576,102.457,186.604,101.749,186.622z M95.375,186.548c-0.71-0.035-1.417-0.078-2.122-0.129l0.156-2.098
		c0.689,0.051,1.379,0.094,2.069,0.129L95.375,186.548z M105.991,186.408l-0.16-2.098c0.691-0.051,1.381-0.112,2.066-0.181
		l0.21,2.09C107.405,186.291,106.699,186.353,105.991,186.408z M91.134,186.231c-0.707-0.069-1.412-0.149-2.114-0.237l0.265-2.086
		c0.683,0.089,1.37,0.164,2.059,0.234L91.134,186.231z M110.223,185.979l-0.271-2.085c0.688-0.089,1.375-0.186,2.057-0.288
		l0.315,2.077C111.627,185.79,110.927,185.887,110.223,185.979z M86.917,185.706c-0.703-0.104-1.403-0.22-2.101-0.345l0.372-2.068
		c0.677,0.121,1.359,0.231,2.043,0.336L86.917,185.706z M114.427,185.337l-0.374-2.068c0.682-0.124,1.36-0.253,2.038-0.393
		l0.419,2.061C115.82,185.076,115.124,185.21,114.427,185.337z M82.732,184.966c-0.695-0.142-1.386-0.292-2.076-0.45l0.469-2.048
		c0.672,0.154,1.347,0.3,2.025,0.438L82.732,184.966z M118.589,184.483l-0.48-2.049c0.675-0.158,1.349-0.322,2.016-0.494
		l0.525,2.036C119.966,184.152,119.28,184.321,118.589,184.483z M78.588,184.013c-0.687-0.176-1.371-0.36-2.052-0.554l0.575-2.023
		c0.664,0.188,1.33,0.369,2,0.542L78.588,184.013z M122.703,183.414l-0.578-2.02c0.662-0.191,1.325-0.391,1.984-0.598l0.628,2.008
		C124.062,183.016,123.383,183.219,122.703,183.414z M74.5,182.848c-0.68-0.214-1.357-0.434-2.028-0.661l0.677-1.991
		c0.655,0.225,1.313,0.439,1.977,0.645L74.5,182.848z M126.755,182.146l-0.678-1.991c0.657-0.222,1.306-0.453,1.95-0.695
		l0.734,1.971C128.097,181.676,127.428,181.916,126.755,182.146z M70.462,181.473c-0.666-0.247-1.328-0.503-1.988-0.764l0.776-1.954
		c0.644,0.257,1.291,0.505,1.942,0.747L70.462,181.473z M130.747,180.662l-0.784-1.95c0.638-0.257,1.274-0.521,1.908-0.792
		l0.829,1.929C132.054,180.128,131.401,180.396,130.747,180.662z M66.502,179.895c-0.653-0.279-1.302-0.569-1.947-0.862l0.875-1.913
		c0.63,0.289,1.263,0.57,1.901,0.846L66.502,179.895z M134.64,178.987l-0.887-1.905c0.626-0.291,1.248-0.587,1.868-0.891
		l0.928,1.884C135.916,178.388,135.278,178.691,134.64,178.987z M62.628,178.112c-0.637-0.312-1.271-0.632-1.899-0.96l0.973-1.863
		c0.614,0.319,1.231,0.632,1.854,0.939L62.628,178.112z M138.437,177.117l-0.973-1.863c0.611-0.32,1.217-0.648,1.818-0.983
		l1.022,1.839C139.687,176.452,139.064,176.789,138.437,177.117z M58.854,176.143c-0.62-0.345-1.235-0.698-1.846-1.058l1.065-1.81
		c0.596,0.351,1.198,0.695,1.803,1.032L58.854,176.143z M142.144,175.053l-1.063-1.814c0.594-0.347,1.183-0.706,1.766-1.069
		l1.112,1.781C143.358,174.326,142.753,174.693,142.144,175.053z M55.185,173.979c-0.603-0.376-1.201-0.758-1.792-1.149l1.16-1.753
		c0.576,0.38,1.158,0.753,1.745,1.12L55.185,173.979z M145.745,172.808l-1.161-1.753c0.576-0.382,1.146-0.768,1.713-1.164
		l1.203,1.725C146.921,172.02,146.334,172.417,145.745,172.808z M51.634,171.638c-0.582-0.404-1.158-0.817-1.729-1.235l1.24-1.695
		c0.558,0.406,1.122,0.811,1.689,1.206L51.634,171.638z M149.229,170.379l-1.248-1.69c0.556-0.411,1.106-0.825,1.652-1.248
		l1.288,1.658C150.363,169.534,149.797,169.961,149.229,170.379z M48.205,169.119c-0.561-0.435-1.116-0.876-1.667-1.323l1.33-1.63
		c0.536,0.439,1.076,0.868,1.624,1.291L48.205,169.119z M152.579,167.781l-1.325-1.634c0.537-0.433,1.065-0.876,1.586-1.326
		l1.371,1.593C153.674,166.876,153.13,167.332,152.579,167.781z M44.91,166.433c-0.539-0.462-1.071-0.93-1.598-1.406l1.41-1.56
		c0.512,0.464,1.03,0.92,1.555,1.369L44.91,166.433z M155.804,165.009l-1.408-1.561c0.514-0.462,1.019-0.932,1.52-1.407l1.448,1.522
		C156.851,164.052,156.329,164.534,155.804,165.009z M41.752,163.582c-0.512-0.488-1.019-0.981-1.52-1.479l1.481-1.49
		c0.491,0.486,0.985,0.971,1.487,1.447L41.752,163.582z M158.885,162.082l-1.486-1.486c0.488-0.488,0.971-0.983,1.447-1.483
		l1.522,1.448C159.88,161.074,159.385,161.581,158.885,162.082z M38.747,160.577c-0.489-0.513-0.97-1.032-1.445-1.556l1.558-1.412
		c0.463,0.512,0.934,1.019,1.41,1.519L38.747,160.577z M161.811,159.001l-1.556-1.412c0.464-0.511,0.92-1.028,1.369-1.552
		l1.597,1.367C162.759,157.944,162.287,158.478,161.811,159.001z M35.896,157.429c-0.461-0.535-0.917-1.079-1.367-1.631l1.629-1.326
		c0.438,0.535,0.881,1.065,1.33,1.586L35.896,157.429z M164.586,155.779l-1.626-1.33c0.438-0.536,0.866-1.075,1.289-1.621
		l1.662,1.284C165.477,154.675,165.035,155.23,164.586,155.779z M33.208,154.142c-0.434-0.559-0.861-1.125-1.281-1.693l1.691-1.248
		c0.409,0.556,0.826,1.106,1.25,1.652L33.208,154.142z M167.196,152.415l-1.695-1.243c0.41-0.559,0.812-1.119,1.209-1.688
		l1.724,1.203C168.029,151.268,167.615,151.845,167.196,152.415z M30.689,150.722c-0.405-0.578-0.805-1.165-1.194-1.757l1.754-1.157
		c0.38,0.574,0.768,1.146,1.162,1.712L30.689,150.722z M169.626,148.928l-1.752-1.157c0.379-0.576,0.755-1.159,1.122-1.746
		l1.781,1.112C170.402,147.74,170.019,148.335,169.626,148.928z M28.348,147.184c-0.375-0.6-0.743-1.205-1.103-1.814l1.81-1.067
		c0.35,0.594,0.708,1.183,1.074,1.766L28.348,147.184z M171.882,145.32l-1.811-1.071c0.354-0.596,0.698-1.194,1.033-1.8l1.839,1.021
		C172.596,144.093,172.243,144.709,171.882,145.32z M26.189,143.53c-0.345-0.617-0.681-1.237-1.01-1.863l1.862-0.977
		c0.32,0.609,0.648,1.217,0.984,1.818L26.189,143.53z M173.955,141.595l-1.864-0.973c0.32-0.613,0.635-1.231,0.942-1.854
		l1.884,0.928C174.605,140.335,174.283,140.969,173.955,141.595z M24.217,139.774c-0.311-0.634-0.616-1.271-0.912-1.912l1.906-0.883
		c0.291,0.626,0.587,1.25,0.892,1.867L24.217,139.774z M175.833,137.773l-1.909-0.878c0.29-0.63,0.57-1.263,0.846-1.898l1.93,0.829
		C176.42,136.479,176.13,137.127,175.833,137.773z M22.442,135.929c-0.28-0.648-0.551-1.302-0.813-1.956l1.95-0.784
		c0.256,0.639,0.521,1.274,0.793,1.907L22.442,135.929z M177.516,133.855l-1.95-0.779c0.257-0.643,0.505-1.289,0.747-1.939
		l1.971,0.73C178.037,132.534,177.78,133.197,177.516,133.855z M20.861,131.992c-0.249-0.663-0.488-1.332-0.717-2.003l1.988-0.682
		c0.224,0.654,0.457,1.304,0.697,1.95L20.861,131.992z M178.997,129.861l-1.986-0.681c0.224-0.655,0.439-1.313,0.645-1.975
		l2.007,0.624C179.449,128.512,179.229,129.187,178.997,129.861z M19.479,127.972c-0.212-0.675-0.418-1.354-0.613-2.036l2.02-0.579
		c0.191,0.665,0.39,1.324,0.598,1.983L19.479,127.972z M180.27,125.796l-2.02-0.578c0.191-0.663,0.37-1.328,0.542-1.997l2.036,0.521
		C180.651,124.432,180.465,125.117,180.27,125.796z M18.304,123.886c-0.177-0.684-0.347-1.371-0.509-2.063l2.046-0.479
		c0.158,0.675,0.323,1.346,0.497,2.013L18.304,123.886z M181.335,121.677l-2.048-0.472c0.153-0.669,0.302-1.345,0.438-2.023
		l2.061,0.418C181.645,120.296,181.493,120.987,181.335,121.677z M17.341,119.744c-0.143-0.692-0.276-1.388-0.402-2.086l2.069-0.373
		c0.122,0.682,0.253,1.36,0.392,2.036L17.341,119.744z M182.183,117.517l-2.068-0.377c0.123-0.678,0.235-1.357,0.338-2.038
		l2.077,0.312C182.423,116.119,182.31,116.819,182.183,117.517z M16.59,115.561c-0.107-0.699-0.207-1.401-0.297-2.105l2.085-0.267
		c0.088,0.688,0.184,1.373,0.288,2.053L16.59,115.561z M182.823,113.313l-2.085-0.267c0.088-0.682,0.164-1.369,0.233-2.057
		l2.09,0.21C182.991,111.908,182.911,112.611,182.823,113.313z M16.05,111.344c-0.072-0.702-0.134-1.41-0.188-2.118l2.095-0.16
		c0.052,0.691,0.115,1.379,0.185,2.064L16.05,111.344z M183.248,109.084l-2.098-0.16c0.054-0.689,0.097-1.377,0.131-2.066
		l2.098,0.103C183.345,107.67,183.301,108.378,183.248,109.084z M15.725,107.105c-0.036-0.706-0.063-1.414-0.083-2.122l2.102-0.058
		c0.018,0.691,0.045,1.383,0.081,2.073L15.725,107.105z M183.459,104.84l-2.102-0.058c0.019-0.688,0.027-1.592,0.027-2.284
		L181.382,102h2.102l0.003,0.476C183.486,103.211,183.478,104.132,183.459,104.84z M16,102.857v-0.146
		c0-0.66-0.187-1.319-0.172-1.979l2.005,0.05c-0.015,0.643,0.123,1.284,0.123,1.929L16,102.857z M181.35,100.357
		c-0.019-0.691-0.048-1.382-0.082-2.071l2.098-0.11c0.039,0.706,0.067,1.416,0.086,2.124L181.35,100.357z M17.81,98.711
		l-2.099-0.103c0.035-0.708,0.077-1.414,0.129-2.122l2.096,0.156C17.885,97.33,17.843,98.02,17.81,98.711z M181.13,96.218
		c-0.052-0.694-0.115-1.379-0.185-2.062l2.089-0.218c0.074,0.704,0.138,1.41,0.193,2.12L181.13,96.218z M18.112,94.578l-2.091-0.206
		c0.07-0.705,0.149-1.409,0.235-2.111l2.085,0.259C18.257,93.2,18.18,93.889,18.112,94.578z M180.703,92.099
		c-0.091-0.688-0.189-1.371-0.294-2.055l2.077-0.32c0.108,0.696,0.207,1.396,0.302,2.1L180.703,92.099z M18.624,90.465l-2.079-0.312
		c0.106-0.702,0.22-1.4,0.343-2.098l2.069,0.365C18.837,89.098,18.725,89.779,18.624,90.465z M180.068,88.006
		c-0.127-0.681-0.258-1.362-0.397-2.038l2.056-0.427c0.145,0.691,0.279,1.385,0.409,2.083L180.068,88.006z M19.343,86.385
		l-2.061-0.418c0.142-0.696,0.292-1.388,0.45-2.077l2.048,0.472C19.626,85.03,19.48,85.706,19.343,86.385z M179.224,83.947
		c-0.16-0.675-0.327-1.347-0.501-2.016l2.031-0.529c0.179,0.681,0.35,1.369,0.514,2.061L179.224,83.947z M20.269,82.344
		l-2.036-0.521c0.176-0.688,0.361-1.373,0.554-2.052l2.021,0.575C20.62,81.008,20.44,81.672,20.269,82.344z M178.173,79.932
		c-0.193-0.663-0.393-1.324-0.602-1.98l2.003-0.636c0.213,0.673,0.421,1.351,0.617,2.034L178.173,79.932z M21.399,78.358
		l-2.007-0.624c0.212-0.68,0.432-1.355,0.66-2.028l1.991,0.673C21.821,77.036,21.605,77.695,21.399,78.358z M176.921,75.99
		c-0.227-0.657-0.46-1.308-0.702-1.954l1.97-0.734c0.247,0.663,0.484,1.33,0.719,1.999L176.921,75.99z M22.736,74.419l-1.972-0.727
		c0.246-0.667,0.501-1.33,0.762-1.99l1.954,0.775C23.225,73.123,22.977,73.769,22.736,74.419z M175.472,72.106
		c-0.261-0.639-0.525-1.275-0.801-1.908l1.93-0.835c0.278,0.646,0.552,1.297,0.816,1.952L175.472,72.106z M24.272,70.558
		l-1.933-0.827c0.28-0.653,0.567-1.302,0.863-1.948l1.911,0.875C24.826,69.287,24.544,69.92,24.272,70.558z M173.823,68.315
		c-0.289-0.625-0.587-1.246-0.893-1.863l1.884-0.934c0.314,0.633,0.62,1.271,0.918,1.912L173.823,68.315z M26.002,66.783
		l-1.886-0.925c0.312-0.638,0.632-1.271,0.96-1.901l1.863,0.971C26.62,65.542,26.308,66.16,26.002,66.783z M171.993,64.611
		c-0.322-0.609-0.651-1.216-0.987-1.817l1.835-1.026c0.345,0.616,0.681,1.236,1.012,1.862L171.993,64.611z M27.923,63.099
		l-1.839-1.018c0.344-0.622,0.697-1.239,1.056-1.85l1.812,1.065C28.601,61.893,28.258,62.493,27.923,63.099z M169.974,61.005
		c-0.354-0.594-0.713-1.182-1.078-1.766l1.777-1.119c0.378,0.599,0.745,1.203,1.106,1.812L169.974,61.005z M30.025,59.521
		l-1.784-1.11c0.375-0.602,0.757-1.201,1.147-1.792l1.755,1.155C30.764,58.352,30.392,58.934,30.025,59.521z M167.773,57.502
		c-0.384-0.576-0.774-1.145-1.168-1.71l1.72-1.205c0.406,0.578,0.805,1.162,1.196,1.751L167.773,57.502z M32.309,56.055
		l-1.726-1.201c0.405-0.582,0.818-1.159,1.237-1.73l1.695,1.242C33.106,54.923,32.704,55.486,32.309,56.055z M165.396,54.113
		c-0.412-0.554-0.829-1.105-1.254-1.65l1.658-1.291c0.433,0.558,0.862,1.121,1.283,1.689L165.396,54.113z M34.761,52.71
		l-1.663-1.285c0.433-0.561,0.875-1.117,1.322-1.667l1.63,1.328C35.613,51.621,35.184,52.163,34.761,52.71z M162.852,50.845
		c-0.438-0.534-0.881-1.061-1.332-1.583l1.589-1.375c0.464,0.537,0.919,1.079,1.368,1.626L162.852,50.845z M37.379,49.494
		l-1.595-1.367c0.461-0.539,0.928-1.07,1.402-1.597l1.562,1.406C38.286,48.45,37.83,48.969,37.379,49.494z M160.148,47.711
		c-0.468-0.511-0.938-1.018-1.416-1.518l1.522-1.451c0.487,0.512,0.969,1.029,1.445,1.553L160.148,47.711z M40.155,46.414
		l-1.525-1.445c0.487-0.515,0.981-1.024,1.483-1.525l1.486,1.486C41.111,45.419,40.63,45.914,40.155,46.414z M157.281,44.714
		c-0.486-0.487-0.982-0.968-1.485-1.443l1.444-1.527c0.516,0.487,1.024,0.982,1.527,1.482L157.281,44.714z M43.082,43.48
		l-1.451-1.521c0.513-0.488,1.031-0.971,1.558-1.447l1.41,1.558C44.086,42.534,43.58,43.004,43.082,43.48z M154.272,41.865
		c-0.515-0.462-1.034-0.918-1.56-1.368l1.367-1.597c0.537,0.46,1.069,0.927,1.597,1.401L154.272,41.865z M46.151,40.697l-1.373-1.59
		c0.537-0.463,1.079-0.918,1.626-1.367l1.332,1.625C47.203,39.804,46.673,40.247,46.151,40.697z M151.12,39.17
		c-0.535-0.436-1.077-0.866-1.625-1.289l1.284-1.662c0.561,0.433,1.115,0.873,1.667,1.32L151.12,39.17z M49.354,38.073l-1.291-1.658
		c0.558-0.434,1.123-0.861,1.691-1.283l1.25,1.691C50.448,37.233,49.898,37.649,49.354,38.073z M147.837,36.635
		c-0.557-0.408-1.121-0.81-1.688-1.204l1.198-1.726c0.583,0.404,1.16,0.816,1.732,1.236L147.837,36.635z M52.686,35.616
		l-1.205-1.722c0.58-0.406,1.164-0.803,1.753-1.195l1.164,1.751C53.822,34.832,53.251,35.221,52.686,35.616z M144.43,34.271
		c-0.577-0.379-1.162-0.752-1.751-1.119l1.112-1.783c0.602,0.375,1.199,0.756,1.792,1.145L144.43,34.271z M56.133,33.33
		l-1.116-1.782c0.598-0.375,1.203-0.743,1.812-1.104l1.071,1.808C57.305,32.605,56.717,32.963,56.133,33.33z M140.906,32.079
		c-0.596-0.349-1.199-0.692-1.805-1.027l1.019-1.839c0.621,0.344,1.237,0.695,1.849,1.054L140.906,32.079z M59.692,31.222
		l-1.026-1.834c0.617-0.346,1.239-0.682,1.866-1.012l0.977,1.859C60.898,30.557,60.292,30.885,59.692,31.222z M137.271,30.07
		c-0.614-0.32-1.234-0.632-1.855-0.936l0.923-1.888c0.639,0.312,1.271,0.631,1.901,0.958L137.271,30.07z M63.352,29.296
		l-0.932-1.884c0.633-0.313,1.269-0.617,1.912-0.916l0.884,1.907C64.59,28.694,63.968,28.992,63.352,29.296z M133.54,28.247
		c-0.628-0.287-1.263-0.567-1.9-0.839l0.825-1.933c0.654,0.28,1.305,0.566,1.949,0.862L133.54,28.247z M67.1,27.562l-0.833-1.929
		c0.647-0.279,1.299-0.552,1.955-0.816l0.784,1.95C68.366,27.023,67.731,27.289,67.1,27.562z M129.717,26.616
		c-0.645-0.255-1.291-0.503-1.942-0.742l0.727-1.973c0.667,0.246,1.33,0.499,1.991,0.763L129.717,26.616z M70.937,26.017
		l-0.735-1.968c0.663-0.248,1.33-0.486,2.001-0.717l0.684,1.986C72.234,25.543,71.583,25.776,70.937,26.017z M125.819,25.182
		c-0.661-0.222-1.32-0.435-1.983-0.642l0.624-2.007c0.68,0.21,1.354,0.43,2.028,0.658L125.819,25.182z M74.855,24.667l-0.632-2.003
		c0.673-0.213,1.352-0.418,2.033-0.616l0.585,2.02C76.176,24.26,75.514,24.46,74.855,24.667z M121.85,23.952
		c-0.663-0.188-1.33-0.367-2.001-0.539l0.521-2.036c0.688,0.176,1.371,0.359,2.055,0.553L121.85,23.952z M78.838,23.52l-0.531-2.034
		c0.686-0.179,1.374-0.349,2.065-0.51l0.476,2.046C80.176,23.18,79.505,23.346,78.838,23.52z M117.835,22.926
		c-0.673-0.154-1.348-0.299-2.025-0.435l0.415-2.061c0.697,0.14,1.389,0.289,2.078,0.447L117.835,22.926z M82.873,22.576
		l-0.427-2.059c0.693-0.144,1.389-0.278,2.088-0.404l0.372,2.069C84.224,22.304,83.547,22.437,82.873,22.576z M113.773,22.108
		c-0.679-0.119-1.362-0.229-2.048-0.332l0.312-2.079c0.702,0.104,1.402,0.219,2.098,0.34L113.773,22.108z M86.952,21.84
		l-0.322-2.077c0.699-0.107,1.4-0.208,2.105-0.298l0.267,2.085C88.315,21.638,87.632,21.735,86.952,21.84z M109.673,21.496
		c-0.681-0.084-1.369-0.16-2.059-0.228l0.205-2.091c0.706,0.07,1.41,0.148,2.112,0.234L109.673,21.496z M91.062,21.311l-0.216-2.091
		c0.703-0.072,1.409-0.136,2.117-0.191l0.164,2.095C92.436,21.177,91.748,21.239,91.062,21.311z M105.55,21.091
		c-0.689-0.049-1.377-0.091-2.068-0.123l0.099-2.1c0.708,0.034,1.416,0.076,2.122,0.127L105.55,21.091z M95.194,20.991l-0.111-2.1
		c0.706-0.037,1.414-0.064,2.124-0.085l0.058,2.102C96.575,20.926,95.883,20.954,95.194,20.991z M101.408,20.959
		C100.79,20.945,100.171,21,99.549,21H99v-2h0.534c0.7,0,1.289-0.075,1.923-0.061L101.408,20.959z"/>
</g>
<g>
	<defs>
		<path id="SVGID_1_" d="M174.611,102.711c0,41.456-33.609,75.065-75.062,75.065c-41.454,0-75.062-33.609-75.062-75.065
			c0-41.451,33.609-75.061,75.062-75.061C141.002,27.65,174.611,61.26,174.611,102.711z"/>
	</defs>
	<use xlink:href="#SVGID_1_"  overflow="visible" fill="#004181"/>
	<clipPath id="SVGID_2_">
		<use xlink:href="#SVGID_1_"  overflow="visible"/>
	</clipPath>
	<path opacity="0.1" clip-path="url(#SVGID_2_)" fill="#FFFFFF" d="M34.196,31.536l115.381,137.259c0,0-76.266,42.668-121.06-23.354
		C28.517,145.441,0.545,89.771,34.196,31.536z"/>
</g>
<g>
	<path fill="#FFFFFF" d="M128.942,85.116l-8.106-10.175c-0.768-0.958-1.93-1.519-3.156-1.519H81.816
		c-1.229,0-2.393,0.558-3.156,1.519l-8.111,10.175c-0.848,1.065-1.54,3.046-1.54,4.404v16.801c3.116-5.196,8.79-8.693,15.282-8.693
		c9.831,0,17.827,7.995,17.827,17.826c0,5.816-2.81,10.974-7.13,14.231h30.453c2.785,0,5.045-2.262,5.045-5.049V89.521
		C130.486,88.162,129.792,86.182,128.942,85.116L128.942,85.116z M73.199,85.03l2.688-3.368H89.16l1.811-2.974H78.256l1.98-2.487
		c0.388-0.484,0.96-0.76,1.58-0.76h35.863c0.617,0,1.192,0.275,1.576,0.76l1.982,2.487h-13.03l1.01,2.974h14.391l2.687,3.368H73.199
		z M84.292,125.201"/>
	<path fill="#EF6A54" d="M84.292,100.657c-8.17,0-14.797,6.625-14.797,14.797c0,3.497,1.215,6.705,3.245,9.235l-8.693,9.497
		c-1.334,1.459-1.236,3.717,0.219,5.051c0.69,0.63,1.554,0.939,2.414,0.939c0.969,0,1.934-0.39,2.64-1.161l9.125-9.967
		c1.794,0.774,3.772,1.205,5.849,1.205c8.175,0,14.799-6.623,14.799-14.8C99.091,107.282,92.466,100.657,84.292,100.657
		L84.292,100.657z"/>
	<path fill="#116386" d="M84.292,125.201c-5.381,0-9.745-4.365-9.745-9.747c0-5.381,4.363-9.744,9.745-9.744
		c5.383,0,9.749,4.363,9.749,9.744C94.041,120.836,89.675,125.201,84.292,125.201L84.292,125.201z"/>
</g>
</svg>
