<?xml version="1.0" encoding="utf-8"?>
<!-- Generator: Adobe Illustrator 16.0.0, SVG Export Plug-In . SVG Version: 6.00 Build 0)  -->
<!DOCTYPE svg PUBLIC "-//W3C//DTD SVG 1.1//EN" "http://www.w3.org/Graphics/SVG/1.1/DTD/svg11.dtd">
<svg version="1.1" id="Layer_1" xmlns="http://www.w3.org/2000/svg" xmlns:xlink="http://www.w3.org/1999/xlink" x="0px" y="0px"
	 width="200px" height="200px" viewBox="0 0 200 200" enable-background="new 0 0 200 200" xml:space="preserve">
<path fill="#004181" d="M175.077,102.202c0,42.038-34.082,76.11-76.112,76.11c-42.033,0-76.111-34.072-76.111-76.11
	c0-42.031,34.078-76.11,76.111-76.11C140.995,26.092,175.077,60.171,175.077,102.202z"/>
<g>
	<path fill="#E06627" d="M94.743,187.209c-2.866-0.141-5.751-0.428-8.574-0.854l0.315-2.104c2.756,0.415,5.567,0.694,8.361,0.831
		L94.743,187.209z M103.357,187.203l-0.108-2.128c2.791-0.143,5.603-0.429,8.36-0.848l0.32,2.105
		C109.104,186.767,106.22,187.057,103.357,187.203z M77.728,184.642c-2.773-0.711-5.544-1.574-8.228-2.566l0.736-1.999
		c2.618,0.966,5.316,1.81,8.02,2.502L77.728,184.642z M120.37,184.595l-0.533-2.064c2.69-0.694,5.389-1.54,8.015-2.517l0.74,1.998
		C125.899,183.013,123.132,183.881,120.37,184.595z M61.575,178.684c-2.579-1.265-5.116-2.671-7.54-4.181l1.127-1.81
		c2.362,1.473,4.835,2.843,7.35,4.075L61.575,178.684z M136.507,178.605l-0.94-1.914c2.491-1.225,4.96-2.598,7.34-4.086l1.127,1.807
		C141.595,175.938,139.062,177.349,136.507,178.605z M46.961,169.583c-2.27-1.756-4.471-3.641-6.545-5.606l1.465-1.547
		c2.023,1.916,4.169,3.757,6.383,5.467L46.961,169.583z M151.102,169.479l-1.308-1.684c2.21-1.715,4.354-3.558,6.37-5.479
		l1.471,1.545C155.565,165.829,153.366,167.719,151.102,169.479z M34.469,157.74c-1.866-2.168-3.646-4.456-5.287-6.803l1.744-1.221
		c1.602,2.286,3.338,4.519,5.158,6.633L34.469,157.74z M163.57,157.613l-1.62-1.389c1.82-2.118,3.553-4.354,5.147-6.643l1.749,1.219
		C167.211,153.148,165.435,155.44,163.57,157.613z M24.602,143.639c-1.391-2.489-2.674-5.089-3.815-7.727l1.957-0.846
		c1.111,2.571,2.361,5.106,3.718,7.532L24.602,143.639z M173.412,143.489l-1.864-1.036c1.356-2.439,2.604-4.977,3.704-7.541
		l1.956,0.84C176.08,138.384,174.803,140.986,173.412,143.489z M17.781,127.835c-0.861-2.726-1.592-5.531-2.169-8.339l2.087-0.432
		c0.563,2.737,1.275,5.473,2.113,8.131L17.781,127.835z M180.202,127.667l-2.035-0.634c0.835-2.672,1.543-5.408,2.097-8.136
		l2.091,0.426C181.781,122.121,181.058,124.928,180.202,127.667z M14.3,110.981c-0.292-2.836-0.442-5.731-0.45-8.603l2.132-0.006
		c0.005,2.801,0.153,5.624,0.437,8.389L14.3,110.981z M183.609,110.805l-2.076-0.211c0.28-2.768,0.467-5.59,0.467-8.392V102h2v0.184
		C184,105.074,183.893,107.968,183.609,110.805z M16.387,93.981l-2.122-0.208c0.282-2.856,0.711-5.724,1.278-8.521l2.088,0.422
		C17.08,88.402,16.66,91.197,16.387,93.981z M181.495,93.472c-0.298-2.795-0.735-5.589-1.299-8.301l2.085-0.435
		c0.581,2.781,1.027,5.645,1.332,8.511L181.495,93.472z M19.713,77.535l-2.036-0.633c0.849-2.725,1.849-5.446,2.976-8.088
		l1.959,0.834C21.513,72.226,20.539,74.878,19.713,77.535z M178.062,77.044c-0.843-2.651-1.833-5.297-2.949-7.864l1.957-0.849
		c1.143,2.633,2.161,5.349,3.022,8.07L178.062,77.044z M26.301,62.101l-1.865-1.033c1.383-2.496,2.912-4.958,4.548-7.318
		l1.753,1.213C29.139,57.264,27.648,59.666,26.301,62.101z M171.386,61.655c-1.363-2.425-2.868-4.817-4.479-7.108l1.743-1.226
		c1.65,2.351,3.197,4.805,4.59,7.292L171.386,61.655z M35.865,48.31l-1.619-1.386c1.865-2.179,3.856-4.285,5.923-6.258l1.474,1.54
		C39.625,44.131,37.685,46.184,35.865,48.31z M161.732,47.925c-1.828-2.112-3.782-4.153-5.812-6.069l1.466-1.548
		c2.078,1.963,4.083,4.057,5.958,6.223L161.732,47.925z M48.002,36.713l-1.311-1.681c2.262-1.763,4.637-3.428,7.057-4.948
		l1.133,1.804C52.522,33.37,50.208,34.993,48.002,36.713z M149.527,36.402c-2.211-1.701-4.536-3.311-6.908-4.782l1.123-1.811
		c2.433,1.509,4.816,3.159,7.084,4.905L149.527,36.402z M62.209,27.787l-0.943-1.911c2.566-1.271,5.227-2.423,7.907-3.425
		l0.745,1.996C67.307,25.423,64.713,26.547,62.209,27.787z M135.26,27.56c-2.504-1.22-5.102-2.327-7.729-3.29l0.732-2
		c2.695,0.987,5.363,2.123,7.93,3.375L135.26,27.56z M77.928,21.912l-0.542-2.062c2.765-0.723,5.603-1.311,8.439-1.751l0.324,2.106
		C83.387,20.633,80.62,21.207,77.928,21.912z M119.507,21.783c-2.703-0.688-5.474-1.247-8.235-1.656l0.312-2.108
		c2.834,0.421,5.676,0.993,8.447,1.7L119.507,21.783z M94.506,19.338l-0.111-2.129c2.852-0.152,5.761-0.16,8.616-0.026l-0.101,2.129
		C100.126,19.183,97.287,19.191,94.506,19.338z"/>
</g>
<g>
	<defs>
		<path id="SVGID_3_" d="M98.965,26.092c42.03,0,76.112,34.079,76.112,76.11c0,42.038-34.082,76.11-76.112,76.11
			c-42.033,0-76.111-34.072-76.111-76.11C22.854,60.171,56.932,26.092,98.965,26.092z"/>
	</defs>
	<clipPath id="SVGID_2_">
		<use xlink:href="#SVGID_3_"  overflow="visible"/>
	</clipPath>
	<path opacity="0.1" clip-path="url(#SVGID_2_)" fill="#FFFFFF" d="M26.793,168.473l139.18-116.998
		c0,0,43.262,77.337-23.683,122.754C142.29,174.229,85.842,202.594,26.793,168.473z"/>
</g>
<g>
	<path fill="#FFFFFF" d="M124.419,71.558H73.52c-1.389,0-2.526,1.136-2.526,2.524v60.513c0,1.389,1.138,2.512,2.526,2.512h50.899
		c1.389,0,2.514-1.123,2.514-2.512V74.082C126.933,72.675,125.808,71.558,124.419,71.558L124.419,71.558z M121.894,132.068H76.032
		V76.61h45.861V132.068z M121.894,132.068"/>
	<path fill="#EF6A54" d="M92.391,87.562h-9.242v9.242h9.242V87.562z M91.271,90.625l-4.104,4.102c-0.117,0.118-0.305,0.118-0.404,0
		l-2.494-2.511c-0.117-0.103-0.117-0.282,0-0.4l0.607-0.587c0.095-0.117,0.279-0.117,0.381,0l1.709,1.708l3.299-3.301
		c0.115-0.114,0.281-0.114,0.401,0l0.604,0.604C91.369,90.339,91.369,90.523,91.271,90.625L91.271,90.625z M91.271,90.625"/>
	<rect x="94.316" y="89.636" fill="#FFFFFF" width="21.13" height="5.075"/>
	<path fill="#EF6A54" d="M92.391,99.603h-9.242v9.24h9.242V99.603z M91.271,102.662l-4.104,4.103c-0.117,0.12-0.305,0.12-0.404,0
		l-2.494-2.508c-0.117-0.102-0.117-0.288,0-0.401l0.607-0.588c0.095-0.116,0.279-0.116,0.381,0l1.709,1.706l3.299-3.298
		c0.115-0.115,0.281-0.115,0.401,0l0.604,0.588C91.369,102.379,91.369,102.564,91.271,102.662L91.271,102.662z M91.271,102.662"/>
	<rect x="94.316" y="101.676" fill="#FFFFFF" width="21.13" height="5.077"/>
	<rect x="83.148" y="111.908" fill="#FFFFFF" width="9.242" height="9.24"/>
	<rect x="94.316" y="114" fill="#FFFFFF" width="21.13" height="5.073"/>
</g>
</svg>
