<?xml version="1.0" encoding="utf-8"?>
<!-- Generator: Adobe Illustrator 16.0.0, SVG Export Plug-In . SVG Version: 6.00 Build 0)  -->
<!DOCTYPE svg PUBLIC "-//W3C//DTD SVG 1.1//EN" "http://www.w3.org/Graphics/SVG/1.1/DTD/svg11.dtd">
<svg version="1.1" id="Layer_1" xmlns="http://www.w3.org/2000/svg" xmlns:xlink="http://www.w3.org/1999/xlink" x="0px" y="0px"
	 width="36.167px" height="26px" viewBox="254 0 36.167 26" enable-background="new 254 0 36.167 26" xml:space="preserve">
<g>
	<g>
		<path fill="#FFFFFF" d="M275.737,7.241c-1.207-0.384-2.494-0.594-3.826-0.594c-6.959,0-12.62,5.661-12.62,12.617
			c0,0.688,0.034,1.203,0.14,1.861c0.559-0.006,1.125,0.039,1.682,0c-0.112-0.636-0.152-1.19-0.152-1.861
			c0-6.038,4.914-10.951,10.953-10.951c1.097,0,2.158,0.163,3.152,0.465L275.737,7.241z"/>
	</g>
	<g>
		<path fill="#FFFFFF" d="M277.673,8.047l-0.682,1.554c3.453,1.844,5.867,5.481,5.867,9.664c0,0.506-0.054,1.375-0.123,1.861h1.703
			c0.058-0.488,0.088-1.355,0.088-1.861C284.528,14.384,281.743,10.144,277.673,8.047z"/>
	</g>
	<g>
		<path fill="#FFFFFF" d="M271.911,8.314"/>
	</g>
	<g>
		<path fill="#FFFFFF" d="M283.249,11.266c-0.215,0-0.424-0.082-0.588-0.245l-2.165-2.157c-0.327-0.326-0.327-0.853,0-1.179
			c0.323-0.326,0.854-0.328,1.176,0l2.167,2.156c0.322,0.326,0.322,0.854,0,1.18C283.676,11.182,283.465,11.266,283.249,11.266
			L283.249,11.266z"/>
	</g>
	<g>
		<path fill="#FFFFFF" d="M260.127,11.514c-0.214,0-0.429-0.084-0.591-0.248c-0.328-0.323-0.326-0.851,0.002-1.177l2.16-2.157
			c0.326-0.325,0.857-0.323,1.179,0.002c0.325,0.325,0.325,0.851,0,1.179l-2.163,2.157C260.55,11.432,260.337,11.514,260.127,11.514
			L260.127,11.514z"/>
	</g>
	<g>
		<path fill="#FFFFFF" d="M271.86,7.866c-0.461,0-0.834-0.372-0.834-0.832V5.366c0-0.456,0.373-0.832,0.834-0.832
			c0.459,0,0.834,0.376,0.834,0.832v1.668C272.694,7.494,272.319,7.866,271.86,7.866L271.86,7.866z"/>
	</g>
	<g>
		<path fill="#FFFFFF" d="M274.224,19.015c0,1.355-1.094,2.451-2.449,2.451c-1.351,0-2.447-1.096-2.447-2.451
			c0-1.352,1.097-2.449,2.447-2.449C273.13,16.565,274.224,17.663,274.224,19.015"/>
	</g>
	<g>
		<path fill="#FFFFFF" d="M275.819,9.894l-0.299,0.975l-0.318,1.048l-2.076,6.755l-0.164,0.532
			c-0.029,0.094-0.071,0.191-0.114,0.279c-0.259,0.455-0.721,0.688-1.179,0.646c-0.184-0.019-0.363-0.078-0.527-0.188
			c-0.484-0.319-0.689-0.942-0.543-1.512c0.03-0.113,0.073-0.229,0.133-0.334l3.773-6.699l0.48-0.861l0.463-0.826
			c0.012-0.011,0.02-0.024,0.025-0.035c0.047-0.056,0.108-0.08,0.166-0.069c0.112,0.009,0.213,0.115,0.184,0.261
			C275.823,9.873,275.823,9.882,275.819,9.894"/>
	</g>
	<g>
		<path fill="#EF6A54" d="M273.884,19.015c0,1.168-0.945,2.111-2.107,2.111c-1.166,0-2.11-0.943-2.11-2.111
			c0-1.166,0.944-2.109,2.11-2.109C272.938,16.905,273.884,17.849,273.884,19.015"/>
	</g>
	<g>
		<path fill="#FFFFFF" d="M273.327,19.015c0,0.854-0.691,1.549-1.551,1.549c-0.857,0-1.551-0.694-1.551-1.549
			c0-0.854,0.693-1.549,1.551-1.549C272.636,17.466,273.327,18.161,273.327,19.015"/>
	</g>
	<g>
		<path fill="#EF6A54" d="M272.891,19.015c0,0.615-0.497,1.114-1.114,1.114c-0.613,0-1.112-0.499-1.112-1.114
			s0.499-1.115,1.112-1.115C272.394,17.899,272.891,18.399,272.891,19.015"/>
	</g>
	<g>
		<path fill="#FFFFFF" d="M281.019,19.003h-0.849c-0.084,0-0.149-0.07-0.149-0.155c0-0.084,0.065-0.151,0.149-0.151h0.849
			c0.084,0,0.155,0.067,0.155,0.151C281.173,18.933,281.103,19.003,281.019,19.003z"/>
	</g>
	<g>
		<path fill="#FFFFFF" d="M279.61,16.868c-0.065,0-0.123-0.039-0.146-0.102c-0.028-0.078,0.011-0.169,0.091-0.199l0.791-0.295
			c0.079-0.029,0.17,0.011,0.203,0.09c0.025,0.081-0.012,0.168-0.096,0.2l-0.791,0.295C279.647,16.864,279.629,16.868,279.61,16.868
			z"/>
	</g>
	<g>
		<path fill="#FFFFFF" d="M278.458,14.506c-0.049,0-0.096-0.024-0.123-0.067c-0.051-0.068-0.034-0.164,0.036-0.215l0.692-0.484
			c0.07-0.049,0.164-0.031,0.215,0.038c0.047,0.069,0.027,0.164-0.037,0.215l-0.695,0.484
			C278.521,14.496,278.489,14.506,278.458,14.506z"/>
	</g>
	<g>
		<path fill="#FFFFFF" d="M276.583,12.735c-0.021,0-0.042-0.004-0.061-0.018c-0.082-0.035-0.117-0.127-0.076-0.205l0.36-0.764
			c0.034-0.077,0.13-0.109,0.203-0.072c0.079,0.034,0.108,0.127,0.072,0.204l-0.358,0.765
			C276.696,12.702,276.644,12.735,276.583,12.735z"/>
	</g>
</g>
</svg>
